M48
; DRILL file {KiCad 9.0.4} date 2025-09-09T23:44:59+0200
; FORMAT={-:-/ absolute / metric / decimal}
; #@! TF.CreationDate,2025-09-09T23:44:59+02:00
; #@! TF.GenerationSoftware,Kicad,Pcbnew,9.0.4
; #@! TF.FileFunction,Plated,1,2,PTH
FMAT,2
METRIC
; #@! TA.AperFunction,Plated,PTH,ComponentDrill
T1C1.000
; #@! TA.AperFunction,Plated,PTH,ComponentDrill
T2C1.200
; #@! TA.AperFunction,Plated,PTH,ComponentDrill
T3C1.300
; #@! TA.AperFunction,Plated,PTH,ViaDrill
T4C2.000
%
G90
G05
T1
X128.27Y-125.73
X130.81Y-125.73
X133.35Y-125.73
X134.62Y-52.07
X134.62Y-54.61
X134.62Y-57.15
X134.62Y-59.69
X134.62Y-62.23
X134.62Y-64.77
X134.62Y-67.31
X134.62Y-69.85
X134.62Y-72.39
X135.89Y-125.73
X138.43Y-125.73
X140.97Y-125.73
X143.51Y-125.73
X146.05Y-125.73
X148.59Y-125.73
X162.56Y-52.07
X162.56Y-54.61
X162.56Y-57.15
X162.56Y-59.69
X162.56Y-62.23
X162.56Y-64.77
X162.56Y-67.31
X162.56Y-69.85
X162.56Y-72.39
X185.42Y-52.07
X185.42Y-54.61
X185.42Y-57.15
X185.42Y-59.69
X185.42Y-62.23
X185.42Y-64.77
X185.42Y-67.31
X185.42Y-69.85
X185.42Y-72.39
X200.66Y-125.73
X203.2Y-125.73
X205.74Y-125.73
X208.28Y-125.73
X210.82Y-125.73
X213.36Y-52.07
X213.36Y-54.61
X213.36Y-57.15
X213.36Y-59.69
X213.36Y-62.23
X213.36Y-64.77
X213.36Y-67.31
X213.36Y-69.85
X213.36Y-72.39
X213.36Y-125.73
X215.9Y-125.73
X218.44Y-125.73
X220.98Y-125.73
T2
X161.587Y-85.09
X169.087Y-85.09
X171.57Y-111.76
X179.07Y-111.76
X180.163Y-85.09
X187.663Y-85.09
T3
X158.83Y-125.73
X163.83Y-125.73
X172.8Y-125.73
X177.8Y-125.73
X184.15Y-125.73
X189.15Y-125.73
T4
X166.37Y-102.87
X182.88Y-102.87
X208.28Y-118.11
M30
