%TF.GenerationSoftware,KiCad,Pcbnew,9.0.4*%
%TF.CreationDate,2025-09-09T23:45:02+02:00*%
%TF.ProjectId,hexapod,68657861-706f-4642-9e6b-696361645f70,rev?*%
%TF.SameCoordinates,Original*%
%TF.FileFunction,Copper,L2,Bot*%
%TF.FilePolarity,Positive*%
%FSLAX46Y46*%
G04 Gerber Fmt 4.6, Leading zero omitted, Abs format (unit mm)*
G04 Created by KiCad (PCBNEW 9.0.4) date 2025-09-09 23:45:02*
%MOMM*%
%LPD*%
G01*
G04 APERTURE LIST*
G04 Aperture macros list*
%AMRoundRect*
0 Rectangle with rounded corners*
0 $1 Rounding radius*
0 $2 $3 $4 $5 $6 $7 $8 $9 X,Y pos of 4 corners*
0 Add a 4 corners polygon primitive as box body*
4,1,4,$2,$3,$4,$5,$6,$7,$8,$9,$2,$3,0*
0 Add four circle primitives for the rounded corners*
1,1,$1+$1,$2,$3*
1,1,$1+$1,$4,$5*
1,1,$1+$1,$6,$7*
1,1,$1+$1,$8,$9*
0 Add four rect primitives between the rounded corners*
20,1,$1+$1,$2,$3,$4,$5,0*
20,1,$1+$1,$4,$5,$6,$7,0*
20,1,$1+$1,$6,$7,$8,$9,0*
20,1,$1+$1,$8,$9,$2,$3,0*%
G04 Aperture macros list end*
%TA.AperFunction,ComponentPad*%
%ADD10R,1.700000X1.700000*%
%TD*%
%TA.AperFunction,ComponentPad*%
%ADD11C,1.700000*%
%TD*%
%TA.AperFunction,ComponentPad*%
%ADD12RoundRect,0.250000X-1.050000X-1.050000X1.050000X-1.050000X1.050000X1.050000X-1.050000X1.050000X0*%
%TD*%
%TA.AperFunction,ComponentPad*%
%ADD13C,2.600000*%
%TD*%
%TA.AperFunction,ComponentPad*%
%ADD14RoundRect,0.250001X-0.949999X-0.949999X0.949999X-0.949999X0.949999X0.949999X-0.949999X0.949999X0*%
%TD*%
%TA.AperFunction,ComponentPad*%
%ADD15C,2.400000*%
%TD*%
%TA.AperFunction,ComponentPad*%
%ADD16RoundRect,0.250001X0.949999X0.949999X-0.949999X0.949999X-0.949999X-0.949999X0.949999X-0.949999X0*%
%TD*%
%TA.AperFunction,ViaPad*%
%ADD17C,3.000000*%
%TD*%
%TA.AperFunction,Conductor*%
%ADD18C,4.000000*%
%TD*%
%TA.AperFunction,Conductor*%
%ADD19C,1.000000*%
%TD*%
%TA.AperFunction,Conductor*%
%ADD20C,3.000000*%
%TD*%
%TA.AperFunction,Conductor*%
%ADD21C,2.000000*%
%TD*%
G04 APERTURE END LIST*
D10*
%TO.P,J14_L_{3}_TIBIA1,1,Pin_1*%
%TO.N,L_{3}_TIBIA*%
X148590000Y-125730000D03*
D11*
%TO.P,J14_L_{3}_TIBIA1,2,Pin_2*%
%TO.N,6V_UBEC2*%
X146050000Y-125730000D03*
%TO.P,J14_L_{3}_TIBIA1,3,Pin_3*%
%TO.N,GND*%
X143510000Y-125730000D03*
%TD*%
D10*
%TO.P,J17_L_{6}_COXA1,1,Pin_1*%
%TO.N,L_{6}_COXA*%
X213360000Y-67310000D03*
D11*
%TO.P,J17_L_{6}_COXA1,2,Pin_2*%
%TO.N,6V_UBEC3*%
X213360000Y-69850000D03*
%TO.P,J17_L_{6}_COXA1,3,Pin_3*%
%TO.N,GND*%
X213360000Y-72390000D03*
%TD*%
D10*
%TO.P,J20_L_{5}_TIBIA1,1,Pin_1*%
%TO.N,L_{5}_TIBIA*%
X185420000Y-52070000D03*
D11*
%TO.P,J20_L_{5}_TIBIA1,2,Pin_2*%
%TO.N,6V_UBEC3*%
X185420000Y-54610000D03*
%TO.P,J20_L_{5}_TIBIA1,3,Pin_3*%
%TO.N,GND*%
X185420000Y-57150000D03*
%TD*%
D12*
%TO.P,J3,1*%
%TO.N,6V_UBEC2*%
X172800000Y-125730000D03*
D13*
%TO.P,J3,2*%
%TO.N,GND*%
X177800000Y-125730000D03*
%TD*%
D14*
%TO.P,C1,1*%
%TO.N,6V_UBEC1*%
X161587246Y-85090000D03*
D15*
%TO.P,C1,2*%
%TO.N,GND*%
X169087246Y-85090000D03*
%TD*%
D12*
%TO.P,J2,1*%
%TO.N,6V_UBEC1*%
X158830000Y-125730000D03*
D13*
%TO.P,J2,2*%
%TO.N,GND*%
X163830000Y-125730000D03*
%TD*%
D10*
%TO.P,J10_L_{3}_COXA1,1,Pin_1*%
%TO.N,L_{3}_COXA*%
X133350000Y-125730000D03*
D11*
%TO.P,J10_L_{3}_COXA1,2,Pin_2*%
%TO.N,6V_UBEC2*%
X130810000Y-125730000D03*
%TO.P,J10_L_{3}_COXA1,3,Pin_3*%
%TO.N,GND*%
X128270000Y-125730000D03*
%TD*%
D10*
%TO.P,J8_L_{2}_FEMUR1,1,Pin_1*%
%TO.N,L_{2}_FEMUR*%
X162560000Y-64770000D03*
D11*
%TO.P,J8_L_{2}_FEMUR1,2,Pin_2*%
%TO.N,6V_UBEC1*%
X162560000Y-62230000D03*
%TO.P,J8_L_{2}_FEMUR1,3,Pin_3*%
%TO.N,GND*%
X162560000Y-59690000D03*
%TD*%
D10*
%TO.P,J13_L_{4}_FEMUR1,1,Pin_1*%
%TO.N,L_{4}_FEMUR*%
X213360000Y-125730000D03*
D11*
%TO.P,J13_L_{4}_FEMUR1,2,Pin_2*%
%TO.N,6V_UBEC2*%
X210820000Y-125730000D03*
%TO.P,J13_L_{4}_FEMUR1,3,Pin_3*%
%TO.N,GND*%
X208280000Y-125730000D03*
%TD*%
D10*
%TO.P,J1_L_{1}_COXA1,1,Pin_1*%
%TO.N,L_{1}_COXA*%
X134620000Y-72390000D03*
D11*
%TO.P,J1_L_{1}_COXA1,2,Pin_2*%
%TO.N,6V_UBEC1*%
X134620000Y-69850000D03*
%TO.P,J1_L_{1}_COXA1,3,Pin_3*%
%TO.N,GND*%
X134620000Y-67310000D03*
%TD*%
D10*
%TO.P,J12_L_{3}_FEMUR1,1,Pin_1*%
%TO.N,L_{3}_FEMUR*%
X140970000Y-125730000D03*
D11*
%TO.P,J12_L_{3}_FEMUR1,2,Pin_2*%
%TO.N,6V_UBEC2*%
X138430000Y-125730000D03*
%TO.P,J12_L_{3}_FEMUR1,3,Pin_3*%
%TO.N,GND*%
X135890000Y-125730000D03*
%TD*%
D12*
%TO.P,J4,1*%
%TO.N,6V_UBEC3*%
X184150000Y-125730000D03*
D13*
%TO.P,J4,2*%
%TO.N,GND*%
X189150000Y-125730000D03*
%TD*%
D10*
%TO.P,J16_L_{5}_COXA1,1,Pin_1*%
%TO.N,L_{5}_COXA*%
X185420000Y-67310000D03*
D11*
%TO.P,J16_L_{5}_COXA1,2,Pin_2*%
%TO.N,6V_UBEC3*%
X185420000Y-69850000D03*
%TO.P,J16_L_{5}_COXA1,3,Pin_3*%
%TO.N,GND*%
X185420000Y-72390000D03*
%TD*%
D10*
%TO.P,J11_L_{4}_COXA1,1,Pin_1*%
%TO.N,L_{4}_COXA*%
X205740000Y-125730000D03*
D11*
%TO.P,J11_L_{4}_COXA1,2,Pin_2*%
%TO.N,6V_UBEC2*%
X203200000Y-125730000D03*
%TO.P,J11_L_{4}_COXA1,3,Pin_3*%
%TO.N,GND*%
X200660000Y-125730000D03*
%TD*%
D10*
%TO.P,J6_L_{1}_TIBIA1,1,Pin_1*%
%TO.N,L_{1}_TIBIA*%
X134620000Y-57150000D03*
D11*
%TO.P,J6_L_{1}_TIBIA1,2,Pin_2*%
%TO.N,6V_UBEC1*%
X134620000Y-54610000D03*
%TO.P,J6_L_{1}_TIBIA1,3,Pin_3*%
%TO.N,GND*%
X134620000Y-52070000D03*
%TD*%
D10*
%TO.P,J15_L_{4}_TIBIA1,1,Pin_1*%
%TO.N,L_{4}_TIBIA*%
X220980000Y-125730000D03*
D11*
%TO.P,J15_L_{4}_TIBIA1,2,Pin_2*%
%TO.N,6V_UBEC2*%
X218440000Y-125730000D03*
%TO.P,J15_L_{4}_TIBIA1,3,Pin_3*%
%TO.N,GND*%
X215900000Y-125730000D03*
%TD*%
D10*
%TO.P,J18_L_{5}_FEMUR1,1,Pin_1*%
%TO.N,L_{5}_FEMUR*%
X185420000Y-59690000D03*
D11*
%TO.P,J18_L_{5}_FEMUR1,2,Pin_2*%
%TO.N,6V_UBEC3*%
X185420000Y-62230000D03*
%TO.P,J18_L_{5}_FEMUR1,3,Pin_3*%
%TO.N,GND*%
X185420000Y-64770000D03*
%TD*%
D14*
%TO.P,C2,1*%
%TO.N,6V_UBEC2*%
X171570000Y-111760000D03*
D15*
%TO.P,C2,2*%
%TO.N,GND*%
X179070000Y-111760000D03*
%TD*%
D10*
%TO.P,J9_L_{2}_TIBIA1,1,Pin_1*%
%TO.N,L_{2}_TIBIA*%
X162560000Y-57150000D03*
D11*
%TO.P,J9_L_{2}_TIBIA1,2,Pin_2*%
%TO.N,6V_UBEC1*%
X162560000Y-54610000D03*
%TO.P,J9_L_{2}_TIBIA1,3,Pin_3*%
%TO.N,GND*%
X162560000Y-52070000D03*
%TD*%
D10*
%TO.P,J7_L_{2}_COXA1,1,Pin_1*%
%TO.N,L_{2}_COXA*%
X162560000Y-72390000D03*
D11*
%TO.P,J7_L_{2}_COXA1,2,Pin_2*%
%TO.N,6V_UBEC1*%
X162560000Y-69850000D03*
%TO.P,J7_L_{2}_COXA1,3,Pin_3*%
%TO.N,GND*%
X162560000Y-67310000D03*
%TD*%
D10*
%TO.P,J19_L_{6}_FEMUR1,1,Pin_1*%
%TO.N,L_{6}_FEMUR*%
X213360000Y-59690000D03*
D11*
%TO.P,J19_L_{6}_FEMUR1,2,Pin_2*%
%TO.N,6V_UBEC3*%
X213360000Y-62230000D03*
%TO.P,J19_L_{6}_FEMUR1,3,Pin_3*%
%TO.N,GND*%
X213360000Y-64770000D03*
%TD*%
D10*
%TO.P,J5_L_{1}_FEMUR1,1,Pin_1*%
%TO.N,L_{1}_FEMUR*%
X134620000Y-64770000D03*
D11*
%TO.P,J5_L_{1}_FEMUR1,2,Pin_2*%
%TO.N,6V_UBEC1*%
X134620000Y-62230000D03*
%TO.P,J5_L_{1}_FEMUR1,3,Pin_3*%
%TO.N,GND*%
X134620000Y-59690000D03*
%TD*%
D16*
%TO.P,C3,1*%
%TO.N,6V_UBEC3*%
X187662755Y-85090000D03*
D15*
%TO.P,C3,2*%
%TO.N,GND*%
X180162755Y-85090000D03*
%TD*%
D10*
%TO.P,J21_L_{6}_TIBIA1,1,Pin_1*%
%TO.N,L_{6}_TIBIA*%
X213360000Y-52070000D03*
D11*
%TO.P,J21_L_{6}_TIBIA1,2,Pin_2*%
%TO.N,6V_UBEC3*%
X213360000Y-54610000D03*
%TO.P,J21_L_{6}_TIBIA1,3,Pin_3*%
%TO.N,GND*%
X213360000Y-57150000D03*
%TD*%
D17*
%TO.N,GND*%
X182880000Y-102870000D03*
X208280000Y-118110000D03*
X166370000Y-102870000D03*
%TD*%
D18*
%TO.N,6V_UBEC2*%
X168250000Y-114960000D02*
X171450000Y-111760000D01*
X168250000Y-132690000D02*
X168250000Y-114960000D01*
X168910000Y-133350000D02*
X168250000Y-132690000D01*
D19*
%TO.N,GND*%
X128270000Y-124527919D02*
X128270000Y-125730000D01*
D20*
X200660000Y-118110000D02*
X208280000Y-118110000D01*
X177800000Y-125730000D02*
X177800000Y-113030000D01*
X156210000Y-129540000D02*
X152400000Y-125730000D01*
D21*
X208280000Y-125730000D02*
X208280000Y-118110000D01*
D20*
X208280000Y-118110000D02*
X215900000Y-118110000D01*
X177800000Y-113030000D02*
X179070000Y-111760000D01*
X135890000Y-121920000D02*
X130877919Y-121920000D01*
D21*
X215900000Y-118110000D02*
X215900000Y-125730000D01*
D20*
X152400000Y-121920000D02*
X143510000Y-121920000D01*
X189150000Y-125730000D02*
X189230000Y-125730000D01*
X152400000Y-125730000D02*
X152400000Y-121920000D01*
X189230000Y-125730000D02*
X189230000Y-113030000D01*
D19*
X130877919Y-121920000D02*
X128270000Y-124527919D01*
D20*
X162560000Y-129540000D02*
X156210000Y-129540000D01*
D19*
X135890000Y-125730000D02*
X135890000Y-121920000D01*
D20*
X189230000Y-113030000D02*
X185420000Y-109220000D01*
X163830000Y-125730000D02*
X163830000Y-128270000D01*
X163830000Y-125730000D02*
X163830000Y-109220000D01*
X143510000Y-121920000D02*
X135890000Y-121920000D01*
D21*
X200660000Y-125730000D02*
X200660000Y-118110000D01*
D19*
X143510000Y-125730000D02*
X143510000Y-121920000D01*
D20*
X163830000Y-128270000D02*
X162560000Y-129540000D01*
D19*
%TO.N,6V_UBEC1*%
X158750000Y-87630000D02*
X159047246Y-87630000D01*
D20*
X142240000Y-72390000D02*
X139700000Y-69850000D01*
X139700000Y-69850000D02*
X139700000Y-62230000D01*
D19*
X154940000Y-69850000D02*
X167640000Y-69850000D01*
D18*
X158750000Y-125730000D02*
X158750000Y-87630000D01*
D20*
X167640000Y-62230000D02*
X167640000Y-57150000D01*
D18*
X159047246Y-87630000D02*
X161587246Y-85090000D01*
D20*
X167640000Y-69850000D02*
X167640000Y-62230000D01*
X161587246Y-85090000D02*
X167640000Y-79037246D01*
X161290000Y-85090000D02*
X148590000Y-72390000D01*
X158830000Y-125730000D02*
X158750000Y-125730000D01*
X167640000Y-79037246D02*
X167640000Y-69850000D01*
D19*
X134620000Y-54610000D02*
X139700000Y-54610000D01*
X134620000Y-62230000D02*
X139700000Y-62230000D01*
X167640000Y-57150000D02*
X165100000Y-54610000D01*
X134620000Y-69850000D02*
X139700000Y-69850000D01*
D20*
X139700000Y-62230000D02*
X139700000Y-54610000D01*
D19*
X154940000Y-62230000D02*
X167640000Y-62230000D01*
D20*
X148590000Y-72390000D02*
X142240000Y-72390000D01*
D19*
X165100000Y-54610000D02*
X154940000Y-54610000D01*
X161587246Y-85090000D02*
X161290000Y-85090000D01*
D20*
%TO.N,6V_UBEC2*%
X210820000Y-134620000D02*
X217170000Y-134620000D01*
X172720000Y-112910000D02*
X172720000Y-125650000D01*
X203200000Y-134620000D02*
X210820000Y-134620000D01*
D19*
X130810000Y-125730000D02*
X130810000Y-127092000D01*
X210820000Y-125730000D02*
X210820000Y-134620000D01*
X138430000Y-125730000D02*
X138430000Y-129540000D01*
D20*
X168910000Y-133350000D02*
X146050000Y-133350000D01*
D19*
X171570000Y-111760000D02*
X171450000Y-111760000D01*
X146050000Y-125730000D02*
X146050000Y-133350000D01*
D20*
X170180000Y-134620000D02*
X203200000Y-134620000D01*
X142240000Y-133350000D02*
X138430000Y-133350000D01*
D19*
X203200000Y-125730000D02*
X203200000Y-134620000D01*
X138430000Y-129540000D02*
X142240000Y-133350000D01*
X137068000Y-133350000D02*
X138430000Y-133350000D01*
D20*
X171570000Y-111760000D02*
X172720000Y-112910000D01*
D19*
X218440000Y-125730000D02*
X218440000Y-133350000D01*
D20*
X172720000Y-125650000D02*
X172800000Y-125730000D01*
X168910000Y-133350000D02*
X170180000Y-134620000D01*
D19*
X130810000Y-127092000D02*
X137068000Y-133350000D01*
D20*
X217170000Y-134620000D02*
X218440000Y-134620000D01*
D19*
X218440000Y-133350000D02*
X217170000Y-134620000D01*
D20*
X146050000Y-133350000D02*
X142240000Y-133350000D01*
D19*
%TO.N,6V_UBEC3*%
X180340000Y-54610000D02*
X185420000Y-54610000D01*
D20*
X187662755Y-81577245D02*
X193040000Y-76200000D01*
X179070000Y-78740000D02*
X179070000Y-69850000D01*
D19*
X213360000Y-62230000D02*
X207010000Y-62230000D01*
D20*
X187662755Y-87332755D02*
X187662755Y-85090000D01*
X185420000Y-85090000D02*
X179070000Y-78740000D01*
X187662755Y-85090000D02*
X187662755Y-81577245D01*
X207010000Y-76200000D02*
X207010000Y-69850000D01*
D19*
X213360000Y-54610000D02*
X207010000Y-54610000D01*
D20*
X193040000Y-76200000D02*
X207010000Y-76200000D01*
D18*
X192812307Y-129767693D02*
X194310000Y-128270000D01*
D19*
X213360000Y-69850000D02*
X207010000Y-69850000D01*
D18*
X186917693Y-129767693D02*
X192812307Y-129767693D01*
D20*
X207010000Y-62230000D02*
X207010000Y-54610000D01*
X187662755Y-85090000D02*
X185420000Y-85090000D01*
X179070000Y-69850000D02*
X179070000Y-62230000D01*
D19*
X185420000Y-62230000D02*
X179070000Y-62230000D01*
D20*
X207010000Y-69850000D02*
X207010000Y-62230000D01*
X179070000Y-62230000D02*
X179070000Y-55880000D01*
D18*
X194310000Y-128270000D02*
X194310000Y-93980000D01*
D19*
X179070000Y-55880000D02*
X180340000Y-54610000D01*
X185420000Y-69850000D02*
X179070000Y-69850000D01*
D18*
X184150000Y-127000000D02*
X186917693Y-129767693D01*
X194310000Y-93980000D02*
X187662755Y-87332755D01*
%TD*%
%TA.AperFunction,Conductor*%
%TO.N,GND*%
G36*
X204176662Y-44469685D02*
G01*
X204197304Y-44486319D01*
X205443546Y-45732561D01*
X205557674Y-45798453D01*
X205684968Y-45832561D01*
X205816753Y-45832561D01*
X223396000Y-45832561D01*
X223463039Y-45852246D01*
X223508794Y-45905050D01*
X223520000Y-45956561D01*
X223520000Y-84151212D01*
X223500315Y-84218251D01*
X223447511Y-84264006D01*
X223396000Y-84275212D01*
X199128619Y-84275212D01*
X199001323Y-84309320D01*
X198887197Y-84375212D01*
X198887194Y-84375214D01*
X198794013Y-84468395D01*
X198794011Y-84468398D01*
X198728119Y-84582524D01*
X198694011Y-84709820D01*
X198694011Y-106841603D01*
X198728119Y-106968899D01*
X198761065Y-107025962D01*
X198794011Y-107083026D01*
X198887197Y-107176212D01*
X199001325Y-107242104D01*
X199128619Y-107276212D01*
X199260403Y-107276212D01*
X223396000Y-107276212D01*
X223463039Y-107295897D01*
X223508794Y-107348701D01*
X223520000Y-107400212D01*
X223520000Y-125606000D01*
X223500315Y-125673039D01*
X223447511Y-125718794D01*
X223396000Y-125730000D01*
X222954499Y-125730000D01*
X222887460Y-125710315D01*
X222841705Y-125657511D01*
X222830499Y-125606000D01*
X222830499Y-124821971D01*
X222830499Y-124821964D01*
X222819886Y-124702582D01*
X222763909Y-124506951D01*
X222669698Y-124326593D01*
X222557082Y-124188480D01*
X222541109Y-124168890D01*
X222383409Y-124040304D01*
X222383410Y-124040304D01*
X222383407Y-124040302D01*
X222203049Y-123946091D01*
X222203048Y-123946090D01*
X222203045Y-123946089D01*
X222082693Y-123911653D01*
X222007418Y-123890114D01*
X222007415Y-123890113D01*
X222007413Y-123890113D01*
X221941102Y-123884217D01*
X221888037Y-123879500D01*
X221888032Y-123879500D01*
X220071971Y-123879500D01*
X220071965Y-123879500D01*
X220071964Y-123879501D01*
X220066351Y-123880000D01*
X219952584Y-123890113D01*
X219756954Y-123946089D01*
X219576591Y-124040303D01*
X219492718Y-124108692D01*
X219428321Y-124135800D01*
X219359492Y-124123790D01*
X219352358Y-124119976D01*
X219260215Y-124066777D01*
X219260205Y-124066773D01*
X219036104Y-123973947D01*
X218801785Y-123911161D01*
X218561289Y-123879500D01*
X218561288Y-123879500D01*
X218318712Y-123879500D01*
X218318711Y-123879500D01*
X218078214Y-123911161D01*
X217843895Y-123973947D01*
X217619794Y-124066773D01*
X217619785Y-124066777D01*
X217409706Y-124188067D01*
X217245074Y-124314393D01*
X217179905Y-124339587D01*
X217111460Y-124325548D01*
X217094102Y-124314393D01*
X216930009Y-124188480D01*
X216719993Y-124067227D01*
X216719978Y-124067220D01*
X216495939Y-123974421D01*
X216261687Y-123911653D01*
X216021264Y-123880001D01*
X216021248Y-123880000D01*
X215778752Y-123880000D01*
X215778735Y-123880001D01*
X215538312Y-123911653D01*
X215304060Y-123974421D01*
X215080021Y-124067220D01*
X215079999Y-124067231D01*
X214988055Y-124120315D01*
X214920155Y-124136788D01*
X214854128Y-124113935D01*
X214847695Y-124109030D01*
X214763407Y-124040302D01*
X214583049Y-123946091D01*
X214583048Y-123946090D01*
X214583045Y-123946089D01*
X214462693Y-123911653D01*
X214387418Y-123890114D01*
X214387415Y-123890113D01*
X214387413Y-123890113D01*
X214321102Y-123884217D01*
X214268037Y-123879500D01*
X214268032Y-123879500D01*
X212451971Y-123879500D01*
X212451965Y-123879500D01*
X212451964Y-123879501D01*
X212446351Y-123880000D01*
X212332584Y-123890113D01*
X212136954Y-123946089D01*
X211956591Y-124040303D01*
X211872718Y-124108692D01*
X211808321Y-124135800D01*
X211739492Y-124123790D01*
X211732358Y-124119976D01*
X211640215Y-124066777D01*
X211640205Y-124066773D01*
X211416104Y-123973947D01*
X211181785Y-123911161D01*
X210941289Y-123879500D01*
X210941288Y-123879500D01*
X210698712Y-123879500D01*
X210698711Y-123879500D01*
X210458214Y-123911161D01*
X210223895Y-123973947D01*
X209999794Y-124066773D01*
X209999785Y-124066777D01*
X209789706Y-124188067D01*
X209625074Y-124314393D01*
X209559905Y-124339587D01*
X209491460Y-124325548D01*
X209474102Y-124314393D01*
X209310009Y-124188480D01*
X209099993Y-124067227D01*
X209099978Y-124067220D01*
X208875939Y-123974421D01*
X208641687Y-123911653D01*
X208401264Y-123880001D01*
X208401248Y-123880000D01*
X208158752Y-123880000D01*
X208158735Y-123880001D01*
X207918312Y-123911653D01*
X207684060Y-123974421D01*
X207460021Y-124067220D01*
X207459999Y-124067231D01*
X207368055Y-124120315D01*
X207300155Y-124136788D01*
X207234128Y-124113935D01*
X207227695Y-124109030D01*
X207143407Y-124040302D01*
X206963049Y-123946091D01*
X206963048Y-123946090D01*
X206963045Y-123946089D01*
X206842693Y-123911653D01*
X206767418Y-123890114D01*
X206767415Y-123890113D01*
X206767413Y-123890113D01*
X206701102Y-123884217D01*
X206648037Y-123879500D01*
X206648032Y-123879500D01*
X204831971Y-123879500D01*
X204831965Y-123879500D01*
X204831964Y-123879501D01*
X204826351Y-123880000D01*
X204712584Y-123890113D01*
X204516954Y-123946089D01*
X204336591Y-124040303D01*
X204252718Y-124108692D01*
X204188321Y-124135800D01*
X204119492Y-124123790D01*
X204112358Y-124119976D01*
X204020215Y-124066777D01*
X204020205Y-124066773D01*
X203796104Y-123973947D01*
X203561785Y-123911161D01*
X203321289Y-123879500D01*
X203321288Y-123879500D01*
X203078712Y-123879500D01*
X203078711Y-123879500D01*
X202838214Y-123911161D01*
X202603895Y-123973947D01*
X202379794Y-124066773D01*
X202379785Y-124066777D01*
X202169706Y-124188067D01*
X202005074Y-124314393D01*
X201939905Y-124339587D01*
X201871460Y-124325548D01*
X201854102Y-124314393D01*
X201690009Y-124188480D01*
X201479993Y-124067227D01*
X201479978Y-124067220D01*
X201255939Y-123974421D01*
X201021687Y-123911653D01*
X200781264Y-123880001D01*
X200781248Y-123880000D01*
X200538752Y-123880000D01*
X200538735Y-123880001D01*
X200298312Y-123911653D01*
X200064060Y-123974421D01*
X199840021Y-124067220D01*
X199840007Y-124067227D01*
X199753994Y-124116887D01*
X199753994Y-124116888D01*
X200925872Y-125288766D01*
X200939736Y-125314156D01*
X200852993Y-125264075D01*
X200725826Y-125230000D01*
X200594174Y-125230000D01*
X200467007Y-125264075D01*
X200352993Y-125329901D01*
X200259901Y-125422993D01*
X200194075Y-125537007D01*
X200160000Y-125664174D01*
X200160000Y-125730000D01*
X199952894Y-125730000D01*
X199046888Y-124823994D01*
X199046887Y-124823994D01*
X198997227Y-124910007D01*
X198997220Y-124910021D01*
X198904421Y-125134060D01*
X198841653Y-125368312D01*
X198810001Y-125608735D01*
X198809735Y-125612795D01*
X198808037Y-125612683D01*
X198790315Y-125673039D01*
X198737511Y-125718794D01*
X198686000Y-125730000D01*
X197434500Y-125730000D01*
X197367461Y-125710315D01*
X197321706Y-125657511D01*
X197310500Y-125606000D01*
X197310500Y-93811493D01*
X197310499Y-93811491D01*
X197272768Y-93476618D01*
X197272767Y-93476606D01*
X197197776Y-93148046D01*
X197086469Y-92829949D01*
X196940246Y-92526314D01*
X196760946Y-92240961D01*
X196550825Y-91977477D01*
X196312523Y-91739175D01*
X190199574Y-85626226D01*
X190166089Y-85564903D01*
X190163255Y-85538545D01*
X190163255Y-82664348D01*
X190182940Y-82597309D01*
X190199574Y-82576667D01*
X194039422Y-78736819D01*
X194100745Y-78703334D01*
X194127103Y-78700500D01*
X207150428Y-78700500D01*
X207150429Y-78700499D01*
X207293055Y-78684429D01*
X207429494Y-78669057D01*
X207429499Y-78669056D01*
X207429509Y-78669055D01*
X207703318Y-78606560D01*
X207968408Y-78513801D01*
X208221445Y-78391945D01*
X208459248Y-78242523D01*
X208678825Y-78067416D01*
X208877416Y-77868825D01*
X209052523Y-77649248D01*
X209201945Y-77411445D01*
X209323801Y-77158408D01*
X209416560Y-76893318D01*
X209479055Y-76619509D01*
X209510500Y-76340425D01*
X209510500Y-74003111D01*
X212453993Y-74003111D01*
X212540009Y-74052773D01*
X212540018Y-74052778D01*
X212764060Y-74145578D01*
X212998312Y-74208346D01*
X213238735Y-74239998D01*
X213238752Y-74240000D01*
X213481248Y-74240000D01*
X213481264Y-74239998D01*
X213721687Y-74208346D01*
X213955936Y-74145579D01*
X214179986Y-74052774D01*
X214179990Y-74052772D01*
X214266005Y-74003111D01*
X213360001Y-73097106D01*
X213360000Y-73097106D01*
X212453993Y-74003111D01*
X209510500Y-74003111D01*
X209510500Y-71474500D01*
X209530185Y-71407461D01*
X209582989Y-71361706D01*
X209634500Y-71350500D01*
X211609186Y-71350500D01*
X211676225Y-71370185D01*
X211721980Y-71422989D01*
X211731924Y-71492147D01*
X211716573Y-71536500D01*
X211697227Y-71570007D01*
X211697220Y-71570021D01*
X211604421Y-71794060D01*
X211541653Y-72028312D01*
X211510001Y-72268735D01*
X211510000Y-72268751D01*
X211510000Y-72511248D01*
X211510001Y-72511264D01*
X211541653Y-72751687D01*
X211604421Y-72985939D01*
X211697221Y-73209981D01*
X211697229Y-73209997D01*
X211746887Y-73296005D01*
X212918765Y-72124127D01*
X212944157Y-72110261D01*
X212894075Y-72197007D01*
X212860000Y-72324174D01*
X212860000Y-72455826D01*
X212894075Y-72582993D01*
X212959901Y-72697007D01*
X213052993Y-72790099D01*
X213167007Y-72855925D01*
X213294174Y-72890000D01*
X213425826Y-72890000D01*
X213552993Y-72855925D01*
X213667007Y-72790099D01*
X213760099Y-72697007D01*
X213825925Y-72582993D01*
X213860000Y-72455826D01*
X213860000Y-72324174D01*
X213825925Y-72197007D01*
X213773591Y-72106362D01*
X213801234Y-72124128D01*
X214973111Y-73296005D01*
X215022772Y-73209990D01*
X215022774Y-73209986D01*
X215115579Y-72985936D01*
X215178346Y-72751687D01*
X215209998Y-72511264D01*
X215210000Y-72511248D01*
X215210000Y-72268751D01*
X215209998Y-72268735D01*
X215178346Y-72028312D01*
X215115578Y-71794060D01*
X215022779Y-71570021D01*
X215022772Y-71570006D01*
X214901519Y-71359990D01*
X214775606Y-71195897D01*
X214750412Y-71130728D01*
X214764450Y-71062283D01*
X214775598Y-71044935D01*
X214901936Y-70880289D01*
X215023224Y-70670212D01*
X215116054Y-70446100D01*
X215178838Y-70211789D01*
X215210500Y-69971288D01*
X215210500Y-69728712D01*
X215178838Y-69488211D01*
X215116054Y-69253900D01*
X215023224Y-69029788D01*
X215023218Y-69029777D01*
X214970023Y-68937639D01*
X214953550Y-68869739D01*
X214976403Y-68803712D01*
X214981298Y-68797292D01*
X215049698Y-68713407D01*
X215143909Y-68533049D01*
X215199886Y-68337418D01*
X215210500Y-68218037D01*
X215210499Y-66401964D01*
X215199886Y-66282582D01*
X215143909Y-66086951D01*
X215049698Y-65906593D01*
X214980968Y-65822302D01*
X214953860Y-65757908D01*
X214965869Y-65689078D01*
X214969685Y-65681942D01*
X215022768Y-65590001D01*
X215022778Y-65589981D01*
X215115578Y-65365939D01*
X215178346Y-65131687D01*
X215209998Y-64891264D01*
X215210000Y-64891248D01*
X215210000Y-64648751D01*
X215209998Y-64648735D01*
X215178346Y-64408312D01*
X215115578Y-64174060D01*
X215022779Y-63950021D01*
X215022772Y-63950006D01*
X214901519Y-63739990D01*
X214775606Y-63575897D01*
X214750412Y-63510728D01*
X214764450Y-63442283D01*
X214775598Y-63424935D01*
X214901936Y-63260289D01*
X215023224Y-63050212D01*
X215116054Y-62826100D01*
X215178838Y-62591789D01*
X215210500Y-62351288D01*
X215210500Y-62108712D01*
X215178838Y-61868211D01*
X215116054Y-61633900D01*
X215023224Y-61409788D01*
X215023218Y-61409777D01*
X214970023Y-61317639D01*
X214953550Y-61249739D01*
X214976403Y-61183712D01*
X214981298Y-61177292D01*
X215049698Y-61093407D01*
X215143909Y-60913049D01*
X215199886Y-60717418D01*
X215210500Y-60598037D01*
X215210499Y-58781964D01*
X215199886Y-58662582D01*
X215143909Y-58466951D01*
X215049698Y-58286593D01*
X214980968Y-58202302D01*
X214953860Y-58137908D01*
X214965869Y-58069078D01*
X214969685Y-58061942D01*
X215022768Y-57970001D01*
X215022778Y-57969981D01*
X215115578Y-57745939D01*
X215178346Y-57511687D01*
X215209998Y-57271264D01*
X215210000Y-57271248D01*
X215210000Y-57028751D01*
X215209998Y-57028735D01*
X215178346Y-56788312D01*
X215115578Y-56554060D01*
X215022779Y-56330021D01*
X215022772Y-56330006D01*
X214901519Y-56119990D01*
X214775606Y-55955897D01*
X214750412Y-55890728D01*
X214764450Y-55822283D01*
X214775598Y-55804935D01*
X214901936Y-55640289D01*
X215023224Y-55430212D01*
X215116054Y-55206100D01*
X215178838Y-54971789D01*
X215210500Y-54731288D01*
X215210500Y-54488712D01*
X215178838Y-54248211D01*
X215116054Y-54013900D01*
X215115508Y-54012583D01*
X215042977Y-53837476D01*
X215023224Y-53789788D01*
X215023218Y-53789777D01*
X214970023Y-53697639D01*
X214953550Y-53629739D01*
X214976403Y-53563712D01*
X214981298Y-53557292D01*
X215049698Y-53473407D01*
X215143909Y-53293049D01*
X215199886Y-53097418D01*
X215210500Y-52978037D01*
X215210499Y-51161964D01*
X215199886Y-51042582D01*
X215143909Y-50846951D01*
X215049698Y-50666593D01*
X214997684Y-50602803D01*
X214921109Y-50508890D01*
X214796428Y-50407227D01*
X214763407Y-50380302D01*
X214583049Y-50286091D01*
X214583048Y-50286090D01*
X214583045Y-50286089D01*
X214462693Y-50251653D01*
X214387418Y-50230114D01*
X214387415Y-50230113D01*
X214387413Y-50230113D01*
X214321102Y-50224217D01*
X214268037Y-50219500D01*
X214268032Y-50219500D01*
X212451971Y-50219500D01*
X212451965Y-50219500D01*
X212451964Y-50219501D01*
X212446351Y-50220000D01*
X212332584Y-50230113D01*
X212136954Y-50286089D01*
X212082716Y-50314421D01*
X211956593Y-50380302D01*
X211956591Y-50380303D01*
X211956590Y-50380304D01*
X211798890Y-50508890D01*
X211670304Y-50666590D01*
X211576089Y-50846954D01*
X211520114Y-51042583D01*
X211520113Y-51042586D01*
X211509500Y-51161966D01*
X211509500Y-52978046D01*
X211509588Y-52980009D01*
X211509500Y-52980362D01*
X211509501Y-52980785D01*
X211509397Y-52980785D01*
X211492892Y-53047854D01*
X211442166Y-53095903D01*
X211385710Y-53109500D01*
X209071366Y-53109500D01*
X209004327Y-53089815D01*
X208974419Y-53062813D01*
X208906812Y-52978037D01*
X208877416Y-52941175D01*
X208678825Y-52742584D01*
X208459248Y-52567477D01*
X208221445Y-52418055D01*
X208221442Y-52418053D01*
X207968411Y-52296200D01*
X207703329Y-52203443D01*
X207703317Y-52203439D01*
X207429512Y-52140945D01*
X207429494Y-52140942D01*
X207150431Y-52109500D01*
X207150425Y-52109500D01*
X206869575Y-52109500D01*
X206869568Y-52109500D01*
X206590505Y-52140942D01*
X206590487Y-52140945D01*
X206316682Y-52203439D01*
X206316670Y-52203443D01*
X206051588Y-52296200D01*
X205798557Y-52418053D01*
X205560753Y-52567476D01*
X205341175Y-52742583D01*
X205142583Y-52941175D01*
X204967476Y-53160753D01*
X204818053Y-53398557D01*
X204696200Y-53651588D01*
X204603443Y-53916670D01*
X204603439Y-53916682D01*
X204540945Y-54190487D01*
X204540942Y-54190505D01*
X204509500Y-54469568D01*
X204509500Y-73575500D01*
X204489815Y-73642539D01*
X204437011Y-73688294D01*
X204385500Y-73699500D01*
X192899568Y-73699500D01*
X192620505Y-73730942D01*
X192620487Y-73730945D01*
X192346682Y-73793439D01*
X192346670Y-73793443D01*
X192081588Y-73886200D01*
X191946805Y-73951109D01*
X191946804Y-73951109D01*
X191828560Y-74008051D01*
X191590753Y-74157476D01*
X191371175Y-74332583D01*
X185795338Y-79908420D01*
X185620231Y-80127998D01*
X185470808Y-80365802D01*
X185348955Y-80618833D01*
X185256198Y-80883915D01*
X185256195Y-80883923D01*
X185212085Y-81077184D01*
X185177976Y-81138162D01*
X185116315Y-81171020D01*
X185046677Y-81165325D01*
X185003513Y-81137272D01*
X181606819Y-77740578D01*
X181573334Y-77679255D01*
X181570500Y-77652897D01*
X181570500Y-74003111D01*
X184513993Y-74003111D01*
X184600009Y-74052773D01*
X184600018Y-74052778D01*
X184824060Y-74145578D01*
X185058312Y-74208346D01*
X185298735Y-74239998D01*
X185298752Y-74240000D01*
X185541248Y-74240000D01*
X185541264Y-74239998D01*
X185781687Y-74208346D01*
X186015936Y-74145579D01*
X186239986Y-74052774D01*
X186239990Y-74052772D01*
X186326005Y-74003111D01*
X185420001Y-73097106D01*
X185420000Y-73097106D01*
X184513993Y-74003111D01*
X181570500Y-74003111D01*
X181570500Y-71474500D01*
X181590185Y-71407461D01*
X181642989Y-71361706D01*
X181694500Y-71350500D01*
X183669186Y-71350500D01*
X183736225Y-71370185D01*
X183781980Y-71422989D01*
X183791924Y-71492147D01*
X183776573Y-71536500D01*
X183757227Y-71570007D01*
X183757220Y-71570021D01*
X183664421Y-71794060D01*
X183601653Y-72028312D01*
X183570001Y-72268735D01*
X183570000Y-72268751D01*
X183570000Y-72511248D01*
X183570001Y-72511264D01*
X183601653Y-72751687D01*
X183664421Y-72985939D01*
X183757221Y-73209981D01*
X183757229Y-73209997D01*
X183806887Y-73296005D01*
X184978765Y-72124127D01*
X185004157Y-72110261D01*
X184954075Y-72197007D01*
X184920000Y-72324174D01*
X184920000Y-72455826D01*
X184954075Y-72582993D01*
X185019901Y-72697007D01*
X185112993Y-72790099D01*
X185227007Y-72855925D01*
X185354174Y-72890000D01*
X185485826Y-72890000D01*
X185612993Y-72855925D01*
X185727007Y-72790099D01*
X185820099Y-72697007D01*
X185885925Y-72582993D01*
X185920000Y-72455826D01*
X185920000Y-72324174D01*
X185885925Y-72197007D01*
X185833591Y-72106362D01*
X185861234Y-72124128D01*
X187033111Y-73296005D01*
X187082772Y-73209990D01*
X187082774Y-73209986D01*
X187175579Y-72985936D01*
X187238346Y-72751687D01*
X187269998Y-72511264D01*
X187270000Y-72511248D01*
X187270000Y-72268751D01*
X187269998Y-72268735D01*
X187238346Y-72028312D01*
X187175578Y-71794060D01*
X187082779Y-71570021D01*
X187082772Y-71570006D01*
X186961519Y-71359990D01*
X186835606Y-71195897D01*
X186810412Y-71130728D01*
X186824450Y-71062283D01*
X186835598Y-71044935D01*
X186961936Y-70880289D01*
X187083224Y-70670212D01*
X187176054Y-70446100D01*
X187238838Y-70211789D01*
X187270500Y-69971288D01*
X187270500Y-69728712D01*
X187238838Y-69488211D01*
X187176054Y-69253900D01*
X187083224Y-69029788D01*
X187083218Y-69029777D01*
X187030023Y-68937639D01*
X187013550Y-68869739D01*
X187036403Y-68803712D01*
X187041298Y-68797292D01*
X187109698Y-68713407D01*
X187203909Y-68533049D01*
X187259886Y-68337418D01*
X187270500Y-68218037D01*
X187270499Y-66401964D01*
X187259886Y-66282582D01*
X187203909Y-66086951D01*
X187109698Y-65906593D01*
X187040968Y-65822302D01*
X187013860Y-65757908D01*
X187025869Y-65689078D01*
X187029685Y-65681942D01*
X187082768Y-65590001D01*
X187082778Y-65589981D01*
X187175578Y-65365939D01*
X187238346Y-65131687D01*
X187269998Y-64891264D01*
X187270000Y-64891248D01*
X187270000Y-64648751D01*
X187269998Y-64648735D01*
X187238346Y-64408312D01*
X187175578Y-64174060D01*
X187082779Y-63950021D01*
X187082772Y-63950006D01*
X186961519Y-63739990D01*
X186835606Y-63575897D01*
X186810412Y-63510728D01*
X186824450Y-63442283D01*
X186835598Y-63424935D01*
X186961936Y-63260289D01*
X187083224Y-63050212D01*
X187176054Y-62826100D01*
X187238838Y-62591789D01*
X187270500Y-62351288D01*
X187270500Y-62108712D01*
X187238838Y-61868211D01*
X187176054Y-61633900D01*
X187083224Y-61409788D01*
X187083218Y-61409777D01*
X187030023Y-61317639D01*
X187013550Y-61249739D01*
X187036403Y-61183712D01*
X187041298Y-61177292D01*
X187109698Y-61093407D01*
X187203909Y-60913049D01*
X187259886Y-60717418D01*
X187270500Y-60598037D01*
X187270499Y-58781964D01*
X187259886Y-58662582D01*
X187203909Y-58466951D01*
X187109698Y-58286593D01*
X187040968Y-58202302D01*
X187013860Y-58137908D01*
X187025869Y-58069078D01*
X187029685Y-58061942D01*
X187082768Y-57970001D01*
X187082778Y-57969981D01*
X187175578Y-57745939D01*
X187238346Y-57511687D01*
X187269998Y-57271264D01*
X187270000Y-57271248D01*
X187270000Y-57028751D01*
X187269998Y-57028735D01*
X187238346Y-56788312D01*
X187175578Y-56554060D01*
X187082779Y-56330021D01*
X187082772Y-56330006D01*
X186961519Y-56119990D01*
X186835606Y-55955897D01*
X186810412Y-55890728D01*
X186824450Y-55822283D01*
X186835598Y-55804935D01*
X186961936Y-55640289D01*
X187083224Y-55430212D01*
X187176054Y-55206100D01*
X187238838Y-54971789D01*
X187270500Y-54731288D01*
X187270500Y-54488712D01*
X187238838Y-54248211D01*
X187176054Y-54013900D01*
X187175508Y-54012583D01*
X187102977Y-53837476D01*
X187083224Y-53789788D01*
X187083218Y-53789777D01*
X187030023Y-53697639D01*
X187013550Y-53629739D01*
X187036403Y-53563712D01*
X187041298Y-53557292D01*
X187109698Y-53473407D01*
X187203909Y-53293049D01*
X187259886Y-53097418D01*
X187270500Y-52978037D01*
X187270499Y-51161964D01*
X187259886Y-51042582D01*
X187203909Y-50846951D01*
X187109698Y-50666593D01*
X187057684Y-50602803D01*
X186981109Y-50508890D01*
X186856428Y-50407227D01*
X186823407Y-50380302D01*
X186643049Y-50286091D01*
X186643048Y-50286090D01*
X186643045Y-50286089D01*
X186522693Y-50251653D01*
X186447418Y-50230114D01*
X186447415Y-50230113D01*
X186447413Y-50230113D01*
X186381102Y-50224217D01*
X186328037Y-50219500D01*
X186328032Y-50219500D01*
X184511971Y-50219500D01*
X184511965Y-50219500D01*
X184511964Y-50219501D01*
X184506351Y-50220000D01*
X184392584Y-50230113D01*
X184196954Y-50286089D01*
X184142716Y-50314421D01*
X184016593Y-50380302D01*
X184016591Y-50380303D01*
X184016590Y-50380304D01*
X183858890Y-50508890D01*
X183730304Y-50666590D01*
X183636089Y-50846954D01*
X183580114Y-51042583D01*
X183580113Y-51042586D01*
X183569500Y-51161966D01*
X183569500Y-52978046D01*
X183569588Y-52980009D01*
X183569500Y-52980362D01*
X183569501Y-52980785D01*
X183569397Y-52980785D01*
X183552892Y-53047854D01*
X183502166Y-53095903D01*
X183445710Y-53109500D01*
X180221903Y-53109500D01*
X179988631Y-53146446D01*
X179820394Y-53201111D01*
X179779135Y-53214517D01*
X179773836Y-53216238D01*
X179764006Y-53219432D01*
X179553561Y-53326659D01*
X179483468Y-53377585D01*
X179417661Y-53401065D01*
X179396700Y-53400487D01*
X179210431Y-53379500D01*
X179210425Y-53379500D01*
X178929575Y-53379500D01*
X178929568Y-53379500D01*
X178650505Y-53410942D01*
X178650487Y-53410945D01*
X178376682Y-53473439D01*
X178376670Y-53473443D01*
X178111588Y-53566200D01*
X177858557Y-53688053D01*
X177620753Y-53837476D01*
X177401175Y-54012583D01*
X177202583Y-54211175D01*
X177027476Y-54430753D01*
X176878053Y-54668557D01*
X176756200Y-54921588D01*
X176663443Y-55186670D01*
X176663439Y-55186682D01*
X176600945Y-55460487D01*
X176600942Y-55460505D01*
X176569500Y-55739568D01*
X176569500Y-78880431D01*
X176600942Y-79159494D01*
X176600945Y-79159512D01*
X176663439Y-79433317D01*
X176663443Y-79433329D01*
X176756200Y-79698411D01*
X176878053Y-79951442D01*
X176878055Y-79951445D01*
X177027477Y-80189248D01*
X177158113Y-80353060D01*
X177202583Y-80408824D01*
X179571907Y-82778148D01*
X179605392Y-82839471D01*
X179600408Y-82909163D01*
X179558536Y-82965096D01*
X179516321Y-82985603D01*
X179454076Y-83002281D01*
X179454074Y-83002282D01*
X179187638Y-83112644D01*
X179187628Y-83112648D01*
X179000531Y-83220669D01*
X179000531Y-83220670D01*
X180280151Y-84500290D01*
X180241746Y-84490000D01*
X180083764Y-84490000D01*
X179931164Y-84530889D01*
X179794347Y-84609881D01*
X179682636Y-84721592D01*
X179603644Y-84858409D01*
X179562755Y-85011009D01*
X179562755Y-85168991D01*
X179603644Y-85321591D01*
X179682636Y-85458408D01*
X179794347Y-85570119D01*
X179931164Y-85649111D01*
X180083764Y-85690000D01*
X180241746Y-85690000D01*
X180394346Y-85649111D01*
X180531163Y-85570119D01*
X180642874Y-85458408D01*
X180721866Y-85321591D01*
X180762755Y-85168991D01*
X180762755Y-85011009D01*
X180752464Y-84972603D01*
X182032084Y-86252223D01*
X182032085Y-86252223D01*
X182140104Y-86065130D01*
X182140109Y-86065119D01*
X182250471Y-85798680D01*
X182267150Y-85736435D01*
X182303515Y-85676775D01*
X182366361Y-85646245D01*
X182435737Y-85654539D01*
X182474606Y-85680847D01*
X183552584Y-86758825D01*
X183751175Y-86957416D01*
X183970752Y-87132523D01*
X184208555Y-87281945D01*
X184461592Y-87403801D01*
X184585520Y-87447165D01*
X184642293Y-87487885D01*
X184667782Y-87550321D01*
X184699986Y-87836136D01*
X184699988Y-87836152D01*
X184774978Y-88164708D01*
X184774982Y-88164720D01*
X184886287Y-88482809D01*
X185032507Y-88786438D01*
X185032509Y-88786441D01*
X185211809Y-89071794D01*
X185277699Y-89154417D01*
X185421930Y-89335278D01*
X191273181Y-95186529D01*
X191306666Y-95247852D01*
X191309500Y-95274210D01*
X191309500Y-124407590D01*
X191289815Y-124474629D01*
X191237011Y-124520384D01*
X191167853Y-124530328D01*
X191104297Y-124501303D01*
X191099494Y-124495486D01*
X191092534Y-124494570D01*
X189857104Y-125730000D01*
X189800000Y-125730000D01*
X189800000Y-125665981D01*
X189775021Y-125540402D01*
X189726022Y-125422110D01*
X189654888Y-125315649D01*
X189564351Y-125225112D01*
X189457890Y-125153978D01*
X189339598Y-125104979D01*
X189214019Y-125080000D01*
X189085981Y-125080000D01*
X188960402Y-125104979D01*
X188842110Y-125153978D01*
X188735649Y-125225112D01*
X188645112Y-125315649D01*
X188573978Y-125422110D01*
X188524979Y-125540402D01*
X188500000Y-125665981D01*
X188500000Y-125730000D01*
X188442894Y-125730000D01*
X187207465Y-124494571D01*
X187207464Y-124494571D01*
X187082768Y-124710550D01*
X187082764Y-124710559D01*
X186967389Y-124989098D01*
X186899364Y-125242973D01*
X186862999Y-125302633D01*
X186800152Y-125333162D01*
X186730776Y-125324867D01*
X186691908Y-125298560D01*
X186486818Y-125093470D01*
X186453333Y-125032147D01*
X186450499Y-125005789D01*
X186450499Y-124615791D01*
X186450498Y-124615783D01*
X186440096Y-124483588D01*
X186428356Y-124436999D01*
X186385097Y-124265321D01*
X186385096Y-124265318D01*
X186350007Y-124188067D01*
X186292007Y-124060374D01*
X186277622Y-124039611D01*
X186182649Y-123902524D01*
X186182647Y-123902522D01*
X186163819Y-123875346D01*
X186075937Y-123787464D01*
X187914571Y-123787464D01*
X189150000Y-125022893D01*
X189150001Y-125022893D01*
X190385428Y-123787464D01*
X190385428Y-123787463D01*
X190169454Y-123662770D01*
X190169443Y-123662765D01*
X189890901Y-123547389D01*
X189599667Y-123469353D01*
X189300759Y-123430001D01*
X189300743Y-123430000D01*
X188999257Y-123430000D01*
X188999240Y-123430001D01*
X188700332Y-123469353D01*
X188409098Y-123547389D01*
X188130559Y-123662764D01*
X188130550Y-123662768D01*
X187914571Y-123787464D01*
X186075937Y-123787464D01*
X186004654Y-123716181D01*
X186004650Y-123716178D01*
X186004645Y-123716174D01*
X185819632Y-123587997D01*
X185819630Y-123587995D01*
X185819626Y-123587993D01*
X185614683Y-123494904D01*
X185614681Y-123494903D01*
X185614678Y-123494902D01*
X185396420Y-123439905D01*
X185396413Y-123439904D01*
X185352347Y-123436436D01*
X185264217Y-123429500D01*
X185264215Y-123429500D01*
X183035791Y-123429500D01*
X183035776Y-123429501D01*
X182903586Y-123439904D01*
X182903579Y-123439905D01*
X182685321Y-123494902D01*
X182685318Y-123494903D01*
X182480377Y-123587991D01*
X182480367Y-123587997D01*
X182295354Y-123716174D01*
X182295342Y-123716184D01*
X182136184Y-123875342D01*
X182136174Y-123875354D01*
X182007997Y-124060367D01*
X182007991Y-124060377D01*
X181914903Y-124265318D01*
X181914902Y-124265321D01*
X181859905Y-124483579D01*
X181859904Y-124483586D01*
X181849500Y-124615777D01*
X181849500Y-125028917D01*
X181829815Y-125095956D01*
X181822447Y-125106229D01*
X181699056Y-125260956D01*
X181699055Y-125260958D01*
X181519756Y-125546309D01*
X181465101Y-125659802D01*
X181418278Y-125711662D01*
X181353381Y-125730000D01*
X180224000Y-125730000D01*
X180156961Y-125710315D01*
X180111206Y-125657511D01*
X180100000Y-125606000D01*
X180100000Y-125579256D01*
X180099998Y-125579240D01*
X180060646Y-125280332D01*
X179982610Y-124989098D01*
X179867234Y-124710556D01*
X179867229Y-124710545D01*
X179742534Y-124494570D01*
X178507104Y-125730000D01*
X178450000Y-125730000D01*
X178450000Y-125665981D01*
X178425021Y-125540402D01*
X178376022Y-125422110D01*
X178304888Y-125315649D01*
X178214351Y-125225112D01*
X178107890Y-125153978D01*
X177989598Y-125104979D01*
X177864019Y-125080000D01*
X177735981Y-125080000D01*
X177610402Y-125104979D01*
X177492110Y-125153978D01*
X177385649Y-125225112D01*
X177295112Y-125315649D01*
X177223978Y-125422110D01*
X177174979Y-125540402D01*
X177150000Y-125665981D01*
X177150000Y-125730000D01*
X177092894Y-125730000D01*
X175857465Y-124494571D01*
X175857464Y-124494571D01*
X175732768Y-124710550D01*
X175732764Y-124710559D01*
X175617389Y-124989098D01*
X175539353Y-125280332D01*
X175524375Y-125394101D01*
X175496108Y-125457998D01*
X175437783Y-125496468D01*
X175367919Y-125497299D01*
X175308695Y-125460226D01*
X175278917Y-125397020D01*
X175278216Y-125391798D01*
X175269057Y-125310504D01*
X175269054Y-125310487D01*
X175223609Y-125111377D01*
X175220500Y-125083785D01*
X175220500Y-123787464D01*
X176564571Y-123787464D01*
X177800000Y-125022893D01*
X177800001Y-125022893D01*
X179035428Y-123787464D01*
X179035428Y-123787463D01*
X178819454Y-123662770D01*
X178819443Y-123662765D01*
X178540901Y-123547389D01*
X178249667Y-123469353D01*
X177950759Y-123430001D01*
X177950743Y-123430000D01*
X177649257Y-123430000D01*
X177649240Y-123430001D01*
X177350332Y-123469353D01*
X177059098Y-123547389D01*
X176780559Y-123662764D01*
X176780550Y-123662768D01*
X176564571Y-123787464D01*
X175220500Y-123787464D01*
X175220500Y-113629329D01*
X177907775Y-113629329D01*
X177907775Y-113629330D01*
X178094869Y-113737349D01*
X178094880Y-113737354D01*
X178361317Y-113847716D01*
X178639881Y-113922356D01*
X178925796Y-113959999D01*
X178925811Y-113960000D01*
X179214189Y-113960000D01*
X179214203Y-113959999D01*
X179500118Y-113922356D01*
X179778682Y-113847716D01*
X180045119Y-113737354D01*
X180045130Y-113737349D01*
X180232223Y-113629330D01*
X180232223Y-113629329D01*
X179070001Y-112467106D01*
X179070000Y-112467106D01*
X177907775Y-113629329D01*
X175220500Y-113629329D01*
X175220500Y-112769572D01*
X175220499Y-112769568D01*
X175189057Y-112490505D01*
X175189054Y-112490487D01*
X175183717Y-112467106D01*
X175126560Y-112216682D01*
X175033801Y-111951592D01*
X174911945Y-111698555D01*
X174859944Y-111615796D01*
X176870000Y-111615796D01*
X176870000Y-111904203D01*
X176907643Y-112190118D01*
X176982283Y-112468682D01*
X177092644Y-112735116D01*
X177092648Y-112735125D01*
X177200669Y-112922222D01*
X177200670Y-112922223D01*
X178362893Y-111760000D01*
X178362893Y-111759999D01*
X178283903Y-111681009D01*
X178470000Y-111681009D01*
X178470000Y-111838991D01*
X178510889Y-111991591D01*
X178589881Y-112128408D01*
X178701592Y-112240119D01*
X178838409Y-112319111D01*
X178991009Y-112360000D01*
X179148991Y-112360000D01*
X179301591Y-112319111D01*
X179438408Y-112240119D01*
X179550119Y-112128408D01*
X179629111Y-111991591D01*
X179670000Y-111838991D01*
X179670000Y-111759999D01*
X179777106Y-111759999D01*
X179777106Y-111760000D01*
X180939329Y-112922223D01*
X180939330Y-112922223D01*
X181047349Y-112735130D01*
X181047354Y-112735119D01*
X181157716Y-112468682D01*
X181232356Y-112190118D01*
X181269999Y-111904203D01*
X181270000Y-111904189D01*
X181270000Y-111615810D01*
X181269999Y-111615796D01*
X181232356Y-111329881D01*
X181157716Y-111051317D01*
X181047354Y-110784880D01*
X181047349Y-110784869D01*
X180939329Y-110597775D01*
X179777106Y-111759999D01*
X179670000Y-111759999D01*
X179670000Y-111681009D01*
X179629111Y-111528409D01*
X179550119Y-111391592D01*
X179438408Y-111279881D01*
X179301591Y-111200889D01*
X179148991Y-111160000D01*
X178991009Y-111160000D01*
X178838409Y-111200889D01*
X178701592Y-111279881D01*
X178589881Y-111391592D01*
X178510889Y-111528409D01*
X178470000Y-111681009D01*
X178283903Y-111681009D01*
X177200670Y-110597776D01*
X177200669Y-110597776D01*
X177092648Y-110784873D01*
X177092644Y-110784883D01*
X176982283Y-111051317D01*
X176907643Y-111329881D01*
X176870000Y-111615796D01*
X174859944Y-111615796D01*
X174762523Y-111460752D01*
X174587416Y-111241175D01*
X174388825Y-111042584D01*
X174381812Y-111035571D01*
X174348602Y-110975483D01*
X174337776Y-110928047D01*
X174226469Y-110609949D01*
X174080246Y-110306315D01*
X173900946Y-110020961D01*
X173797041Y-109890669D01*
X177907776Y-109890669D01*
X179070000Y-111052893D01*
X179070001Y-111052893D01*
X180232223Y-109890670D01*
X180232222Y-109890669D01*
X180045125Y-109782648D01*
X180045116Y-109782644D01*
X179778682Y-109672283D01*
X179500118Y-109597643D01*
X179214203Y-109560000D01*
X178925796Y-109560000D01*
X178639881Y-109597643D01*
X178361317Y-109672283D01*
X178094883Y-109782644D01*
X178094873Y-109782648D01*
X177907776Y-109890669D01*
X173797041Y-109890669D01*
X173690824Y-109757477D01*
X173452523Y-109519176D01*
X173189039Y-109309054D01*
X172903685Y-109129754D01*
X172903682Y-109129752D01*
X172600054Y-108983532D01*
X172281964Y-108872227D01*
X172281952Y-108872223D01*
X171953397Y-108797233D01*
X171953381Y-108797231D01*
X171618509Y-108759500D01*
X171618505Y-108759500D01*
X171281495Y-108759500D01*
X171281490Y-108759500D01*
X170946617Y-108797231D01*
X170946601Y-108797233D01*
X170618046Y-108872223D01*
X170618034Y-108872227D01*
X170299945Y-108983532D01*
X169996316Y-109129752D01*
X169710961Y-109309053D01*
X169447476Y-109519175D01*
X166009174Y-112957477D01*
X165799053Y-113220962D01*
X165619752Y-113506316D01*
X165473532Y-113809945D01*
X165362227Y-114128034D01*
X165362223Y-114128046D01*
X165287233Y-114456602D01*
X165287231Y-114456618D01*
X165249500Y-114791491D01*
X165249500Y-123678964D01*
X165229815Y-123746003D01*
X165177011Y-123791758D01*
X165107853Y-123801702D01*
X165063500Y-123786351D01*
X164849454Y-123662770D01*
X164849443Y-123662765D01*
X164570901Y-123547389D01*
X164279667Y-123469353D01*
X163980759Y-123430001D01*
X163980743Y-123430000D01*
X163679257Y-123430000D01*
X163679240Y-123430001D01*
X163380332Y-123469353D01*
X163089098Y-123547389D01*
X162810559Y-123662764D01*
X162810550Y-123662768D01*
X162594571Y-123787464D01*
X162594571Y-123787465D01*
X163887106Y-125080000D01*
X163765981Y-125080000D01*
X163640402Y-125104979D01*
X163522110Y-125153978D01*
X163415649Y-125225112D01*
X163325112Y-125315649D01*
X163253978Y-125422110D01*
X163204979Y-125540402D01*
X163180000Y-125665981D01*
X163180000Y-125730000D01*
X163122894Y-125730000D01*
X161886366Y-124493472D01*
X161821649Y-124483380D01*
X161769393Y-124436999D01*
X161750500Y-124371207D01*
X161750500Y-89221456D01*
X161770185Y-89154417D01*
X161786819Y-89133775D01*
X162755886Y-88164708D01*
X163828070Y-87092524D01*
X163934290Y-86959329D01*
X167925021Y-86959329D01*
X167925021Y-86959330D01*
X168112115Y-87067349D01*
X168112126Y-87067354D01*
X168378563Y-87177716D01*
X168657127Y-87252356D01*
X168943042Y-87289999D01*
X168943057Y-87290000D01*
X169231435Y-87290000D01*
X169231449Y-87289999D01*
X169517364Y-87252356D01*
X169795928Y-87177716D01*
X170062365Y-87067354D01*
X170062376Y-87067349D01*
X170249469Y-86959330D01*
X170249469Y-86959329D01*
X179000530Y-86959329D01*
X179000530Y-86959330D01*
X179187624Y-87067349D01*
X179187635Y-87067354D01*
X179454072Y-87177716D01*
X179732636Y-87252356D01*
X180018551Y-87289999D01*
X180018566Y-87290000D01*
X180306944Y-87290000D01*
X180306958Y-87289999D01*
X180592873Y-87252356D01*
X180871437Y-87177716D01*
X181137874Y-87067354D01*
X181137885Y-87067349D01*
X181324978Y-86959330D01*
X181324978Y-86959329D01*
X180162756Y-85797106D01*
X180162755Y-85797106D01*
X179000530Y-86959329D01*
X170249469Y-86959329D01*
X169087247Y-85797106D01*
X169087246Y-85797106D01*
X167925021Y-86959329D01*
X163934290Y-86959329D01*
X164038192Y-86829040D01*
X164217492Y-86543686D01*
X164363715Y-86240052D01*
X164475022Y-85921954D01*
X164521337Y-85719026D01*
X164554545Y-85658940D01*
X165267689Y-84945796D01*
X166887246Y-84945796D01*
X166887246Y-85234203D01*
X166924889Y-85520118D01*
X166999529Y-85798682D01*
X167109890Y-86065116D01*
X167109894Y-86065125D01*
X167217915Y-86252222D01*
X167217916Y-86252223D01*
X168380139Y-85090000D01*
X168380139Y-85089999D01*
X168301149Y-85011009D01*
X168487246Y-85011009D01*
X168487246Y-85168991D01*
X168528135Y-85321591D01*
X168607127Y-85458408D01*
X168718838Y-85570119D01*
X168855655Y-85649111D01*
X169008255Y-85690000D01*
X169166237Y-85690000D01*
X169318837Y-85649111D01*
X169455654Y-85570119D01*
X169567365Y-85458408D01*
X169646357Y-85321591D01*
X169687246Y-85168991D01*
X169687246Y-85089999D01*
X169794352Y-85089999D01*
X169794352Y-85090000D01*
X170956575Y-86252223D01*
X170956576Y-86252223D01*
X171064595Y-86065130D01*
X171064600Y-86065119D01*
X171174962Y-85798682D01*
X171249602Y-85520118D01*
X171287245Y-85234203D01*
X171287246Y-85234189D01*
X171287246Y-84945810D01*
X171287245Y-84945796D01*
X177962755Y-84945796D01*
X177962755Y-85234203D01*
X178000398Y-85520118D01*
X178075038Y-85798682D01*
X178185399Y-86065116D01*
X178185403Y-86065125D01*
X178293424Y-86252222D01*
X178293425Y-86252223D01*
X179455648Y-85090000D01*
X179455648Y-85089999D01*
X178293424Y-83927776D01*
X178185403Y-84114873D01*
X178185399Y-84114883D01*
X178075038Y-84381317D01*
X178000398Y-84659881D01*
X177962755Y-84945796D01*
X171287245Y-84945796D01*
X171249602Y-84659881D01*
X171174962Y-84381317D01*
X171064600Y-84114880D01*
X171064595Y-84114869D01*
X170956575Y-83927775D01*
X169794352Y-85089999D01*
X169687246Y-85089999D01*
X169687246Y-85011009D01*
X169646357Y-84858409D01*
X169567365Y-84721592D01*
X169455654Y-84609881D01*
X169318837Y-84530889D01*
X169166237Y-84490000D01*
X169008255Y-84490000D01*
X168855655Y-84530889D01*
X168718838Y-84609881D01*
X168607127Y-84721592D01*
X168528135Y-84858409D01*
X168487246Y-85011009D01*
X168301149Y-85011009D01*
X167217915Y-83927776D01*
X167109894Y-84114873D01*
X167109890Y-84114883D01*
X166999529Y-84381317D01*
X166924889Y-84659881D01*
X166887246Y-84945796D01*
X165267689Y-84945796D01*
X166992817Y-83220669D01*
X167925022Y-83220669D01*
X169087246Y-84382893D01*
X169087247Y-84382893D01*
X170249469Y-83220670D01*
X170249468Y-83220669D01*
X170062371Y-83112648D01*
X170062362Y-83112644D01*
X169795928Y-83002283D01*
X169517364Y-82927643D01*
X169231449Y-82890000D01*
X168943042Y-82890000D01*
X168657127Y-82927643D01*
X168378563Y-83002283D01*
X168112129Y-83112644D01*
X168112119Y-83112648D01*
X167925022Y-83220669D01*
X166992817Y-83220669D01*
X169507416Y-80706071D01*
X169682523Y-80486494D01*
X169831945Y-80248691D01*
X169860572Y-80189246D01*
X169953794Y-79995668D01*
X169953795Y-79995664D01*
X169953801Y-79995653D01*
X170046560Y-79730564D01*
X170109055Y-79456755D01*
X170111695Y-79433329D01*
X170140499Y-79177677D01*
X170140500Y-79177673D01*
X170140500Y-57009572D01*
X170140499Y-57009568D01*
X170109057Y-56730505D01*
X170109054Y-56730487D01*
X170046560Y-56456682D01*
X170046556Y-56456670D01*
X170002239Y-56330021D01*
X169953801Y-56191592D01*
X169831945Y-55938555D01*
X169682523Y-55700752D01*
X169507416Y-55481175D01*
X169308825Y-55282584D01*
X169089248Y-55107477D01*
X168925004Y-55004275D01*
X168851442Y-54958053D01*
X168598411Y-54836200D01*
X168333329Y-54743443D01*
X168333317Y-54743439D01*
X168059512Y-54680945D01*
X168059494Y-54680942D01*
X167780431Y-54649500D01*
X167780425Y-54649500D01*
X167499575Y-54649500D01*
X167499568Y-54649500D01*
X167344971Y-54666919D01*
X167276150Y-54654864D01*
X167243407Y-54631380D01*
X166077511Y-53465484D01*
X166008128Y-53415074D01*
X165886434Y-53326657D01*
X165675996Y-53219433D01*
X165451368Y-53146446D01*
X165218097Y-53109500D01*
X165218092Y-53109500D01*
X164310814Y-53109500D01*
X164243775Y-53089815D01*
X164198020Y-53037011D01*
X164188076Y-52967853D01*
X164203427Y-52923500D01*
X164222772Y-52889992D01*
X164222779Y-52889978D01*
X164315578Y-52665939D01*
X164378346Y-52431687D01*
X164409998Y-52191264D01*
X164410000Y-52191248D01*
X164410000Y-51948751D01*
X164409998Y-51948735D01*
X164378346Y-51708312D01*
X164315578Y-51474060D01*
X164222778Y-51250018D01*
X164222773Y-51250009D01*
X164173111Y-51163993D01*
X163001233Y-52335871D01*
X162975845Y-52349733D01*
X163025925Y-52262993D01*
X163060000Y-52135826D01*
X163060000Y-52004174D01*
X163025925Y-51877007D01*
X162960099Y-51762993D01*
X162867007Y-51669901D01*
X162752993Y-51604075D01*
X162625826Y-51570000D01*
X162494174Y-51570000D01*
X162367007Y-51604075D01*
X162252993Y-51669901D01*
X162159901Y-51762993D01*
X162094075Y-51877007D01*
X162060000Y-52004174D01*
X162060000Y-52135826D01*
X162094075Y-52262993D01*
X162146408Y-52353637D01*
X162118766Y-52335872D01*
X160946888Y-51163994D01*
X160946887Y-51163994D01*
X160897227Y-51250007D01*
X160897220Y-51250021D01*
X160804421Y-51474060D01*
X160741653Y-51708312D01*
X160710001Y-51948735D01*
X160710000Y-51948751D01*
X160710000Y-52191248D01*
X160710001Y-52191264D01*
X160741653Y-52431687D01*
X160804421Y-52665939D01*
X160897220Y-52889978D01*
X160897227Y-52889992D01*
X160916573Y-52923500D01*
X160933046Y-52991400D01*
X160910193Y-53057427D01*
X160855272Y-53100618D01*
X160809186Y-53109500D01*
X154821903Y-53109500D01*
X154588631Y-53146446D01*
X154364003Y-53219433D01*
X154153566Y-53326657D01*
X154055763Y-53397716D01*
X153962490Y-53465483D01*
X153962488Y-53465485D01*
X153962487Y-53465485D01*
X153795485Y-53632487D01*
X153795485Y-53632488D01*
X153795483Y-53632490D01*
X153781605Y-53651592D01*
X153656657Y-53823566D01*
X153549433Y-54034003D01*
X153476446Y-54258631D01*
X153439500Y-54491902D01*
X153439500Y-54728097D01*
X153476446Y-54961368D01*
X153549433Y-55185996D01*
X153656657Y-55396433D01*
X153795483Y-55587510D01*
X153962490Y-55754517D01*
X154153567Y-55893343D01*
X154242301Y-55938555D01*
X154364003Y-56000566D01*
X154364005Y-56000566D01*
X154364008Y-56000568D01*
X154484412Y-56039689D01*
X154588631Y-56073553D01*
X154821903Y-56110500D01*
X154821908Y-56110500D01*
X160585709Y-56110500D01*
X160652748Y-56130185D01*
X160698503Y-56182989D01*
X160709436Y-56239214D01*
X160709500Y-56239214D01*
X160709500Y-56239544D01*
X160709587Y-56239992D01*
X160709500Y-56241954D01*
X160709500Y-58058028D01*
X160709501Y-58058034D01*
X160720113Y-58177415D01*
X160776089Y-58373045D01*
X160776090Y-58373047D01*
X160776091Y-58373049D01*
X160870302Y-58553407D01*
X160870304Y-58553409D01*
X160939030Y-58637695D01*
X160966139Y-58702091D01*
X160954130Y-58770921D01*
X160950315Y-58778055D01*
X160897231Y-58869999D01*
X160897220Y-58870021D01*
X160804421Y-59094060D01*
X160741653Y-59328312D01*
X160710001Y-59568735D01*
X160710000Y-59568751D01*
X160710000Y-59811248D01*
X160710001Y-59811264D01*
X160741653Y-60051687D01*
X160804421Y-60285939D01*
X160897220Y-60509978D01*
X160897227Y-60509992D01*
X160916573Y-60543500D01*
X160933046Y-60611400D01*
X160910193Y-60677427D01*
X160855272Y-60720618D01*
X160809186Y-60729500D01*
X154821903Y-60729500D01*
X154588631Y-60766446D01*
X154364003Y-60839433D01*
X154153566Y-60946657D01*
X154055763Y-61017716D01*
X153962490Y-61085483D01*
X153962488Y-61085485D01*
X153962487Y-61085485D01*
X153795485Y-61252487D01*
X153795485Y-61252488D01*
X153795483Y-61252490D01*
X153748149Y-61317639D01*
X153656657Y-61443566D01*
X153549433Y-61654003D01*
X153476446Y-61878631D01*
X153439500Y-62111902D01*
X153439500Y-62348097D01*
X153476446Y-62581368D01*
X153549433Y-62805996D01*
X153656657Y-63016433D01*
X153795483Y-63207510D01*
X153962490Y-63374517D01*
X154153567Y-63513343D01*
X154252991Y-63564002D01*
X154364003Y-63620566D01*
X154364005Y-63620566D01*
X154364008Y-63620568D01*
X154484412Y-63659689D01*
X154588631Y-63693553D01*
X154821903Y-63730500D01*
X154821908Y-63730500D01*
X160585709Y-63730500D01*
X160652748Y-63750185D01*
X160698503Y-63802989D01*
X160709436Y-63859214D01*
X160709500Y-63859214D01*
X160709500Y-63859544D01*
X160709587Y-63859992D01*
X160709500Y-63861954D01*
X160709500Y-65678028D01*
X160709501Y-65678034D01*
X160720113Y-65797415D01*
X160776089Y-65993045D01*
X160776090Y-65993047D01*
X160776091Y-65993049D01*
X160870302Y-66173407D01*
X160870304Y-66173409D01*
X160939030Y-66257695D01*
X160966139Y-66322091D01*
X160954130Y-66390921D01*
X160950315Y-66398055D01*
X160897231Y-66489999D01*
X160897220Y-66490021D01*
X160804421Y-66714060D01*
X160741653Y-66948312D01*
X160710001Y-67188735D01*
X160710000Y-67188751D01*
X160710000Y-67431248D01*
X160710001Y-67431264D01*
X160741653Y-67671687D01*
X160804421Y-67905939D01*
X160897220Y-68129978D01*
X160897227Y-68129992D01*
X160916573Y-68163500D01*
X160933046Y-68231400D01*
X160910193Y-68297427D01*
X160855272Y-68340618D01*
X160809186Y-68349500D01*
X154821903Y-68349500D01*
X154588631Y-68386446D01*
X154364003Y-68459433D01*
X154153566Y-68566657D01*
X154055763Y-68637716D01*
X153962490Y-68705483D01*
X153962488Y-68705485D01*
X153962487Y-68705485D01*
X153795485Y-68872487D01*
X153795485Y-68872488D01*
X153795483Y-68872490D01*
X153748149Y-68937639D01*
X153656657Y-69063566D01*
X153549433Y-69274003D01*
X153476446Y-69498631D01*
X153439500Y-69731902D01*
X153439500Y-69968097D01*
X153476446Y-70201368D01*
X153549433Y-70425996D01*
X153656657Y-70636433D01*
X153795483Y-70827510D01*
X153962490Y-70994517D01*
X154153567Y-71133343D01*
X154252991Y-71184002D01*
X154364003Y-71240566D01*
X154364005Y-71240566D01*
X154364008Y-71240568D01*
X154484412Y-71279689D01*
X154588631Y-71313553D01*
X154821903Y-71350500D01*
X154821908Y-71350500D01*
X160585709Y-71350500D01*
X160652748Y-71370185D01*
X160698503Y-71422989D01*
X160709436Y-71479214D01*
X160709500Y-71479214D01*
X160709500Y-71479544D01*
X160709587Y-71479992D01*
X160709500Y-71481954D01*
X160709500Y-73298028D01*
X160709501Y-73298034D01*
X160720113Y-73417415D01*
X160776089Y-73613045D01*
X160776090Y-73613048D01*
X160776091Y-73613049D01*
X160870302Y-73793407D01*
X160904977Y-73835933D01*
X160998890Y-73951109D01*
X161062666Y-74003111D01*
X161156593Y-74079698D01*
X161336951Y-74173909D01*
X161532582Y-74229886D01*
X161651963Y-74240500D01*
X163468036Y-74240499D01*
X163587418Y-74229886D01*
X163783049Y-74173909D01*
X163963407Y-74079698D01*
X164121109Y-73951109D01*
X164249698Y-73793407D01*
X164343909Y-73613049D01*
X164399886Y-73417418D01*
X164410500Y-73298037D01*
X164410499Y-71481964D01*
X164410499Y-71481963D01*
X164410499Y-71481953D01*
X164410412Y-71479991D01*
X164410499Y-71479637D01*
X164410499Y-71479215D01*
X164410603Y-71479215D01*
X164427108Y-71412146D01*
X164477834Y-71364097D01*
X164534290Y-71350500D01*
X165015500Y-71350500D01*
X165082539Y-71370185D01*
X165128294Y-71422989D01*
X165139500Y-71474500D01*
X165139500Y-77950143D01*
X165119815Y-78017182D01*
X165103181Y-78037824D01*
X161526304Y-81614701D01*
X161464981Y-81648186D01*
X161395289Y-81643202D01*
X161350942Y-81614701D01*
X150258824Y-70522583D01*
X150162917Y-70446100D01*
X150039248Y-70347477D01*
X149875004Y-70244275D01*
X149801442Y-70198053D01*
X149548411Y-70076200D01*
X149283329Y-69983443D01*
X149283317Y-69983439D01*
X149009512Y-69920945D01*
X149009494Y-69920942D01*
X148730431Y-69889500D01*
X148730425Y-69889500D01*
X143327103Y-69889500D01*
X143260064Y-69869815D01*
X143239422Y-69853181D01*
X142236819Y-68850578D01*
X142203334Y-68789255D01*
X142200500Y-68762897D01*
X142200500Y-54469572D01*
X142200499Y-54469568D01*
X142169057Y-54190505D01*
X142169054Y-54190487D01*
X142106560Y-53916682D01*
X142106556Y-53916670D01*
X142062154Y-53789777D01*
X142013801Y-53651592D01*
X141891945Y-53398555D01*
X141742523Y-53160752D01*
X141567416Y-52941175D01*
X141368825Y-52742584D01*
X141149248Y-52567477D01*
X140911445Y-52418055D01*
X140911442Y-52418053D01*
X140658411Y-52296200D01*
X140393329Y-52203443D01*
X140393317Y-52203439D01*
X140119512Y-52140945D01*
X140119494Y-52140942D01*
X139840431Y-52109500D01*
X139840425Y-52109500D01*
X139559575Y-52109500D01*
X139559568Y-52109500D01*
X139280505Y-52140942D01*
X139280487Y-52140945D01*
X139006682Y-52203439D01*
X139006670Y-52203443D01*
X138741588Y-52296200D01*
X138488557Y-52418053D01*
X138250753Y-52567476D01*
X138031175Y-52742583D01*
X137832583Y-52941175D01*
X137735581Y-53062813D01*
X137678393Y-53102953D01*
X137638634Y-53109500D01*
X136370814Y-53109500D01*
X136303775Y-53089815D01*
X136258020Y-53037011D01*
X136248076Y-52967853D01*
X136263427Y-52923500D01*
X136282772Y-52889992D01*
X136282779Y-52889978D01*
X136375578Y-52665939D01*
X136438346Y-52431687D01*
X136469998Y-52191264D01*
X136470000Y-52191248D01*
X136470000Y-51948751D01*
X136469998Y-51948735D01*
X136438346Y-51708312D01*
X136375578Y-51474060D01*
X136282778Y-51250018D01*
X136282773Y-51250009D01*
X136233111Y-51163993D01*
X135061233Y-52335871D01*
X135035845Y-52349733D01*
X135085925Y-52262993D01*
X135120000Y-52135826D01*
X135120000Y-52004174D01*
X135085925Y-51877007D01*
X135020099Y-51762993D01*
X134927007Y-51669901D01*
X134812993Y-51604075D01*
X134685826Y-51570000D01*
X134554174Y-51570000D01*
X134427007Y-51604075D01*
X134312993Y-51669901D01*
X134219901Y-51762993D01*
X134154075Y-51877007D01*
X134120000Y-52004174D01*
X134120000Y-52135826D01*
X134154075Y-52262993D01*
X134206408Y-52353637D01*
X134178766Y-52335872D01*
X133006888Y-51163994D01*
X133006887Y-51163994D01*
X132957227Y-51250007D01*
X132957220Y-51250021D01*
X132864421Y-51474060D01*
X132801653Y-51708312D01*
X132770001Y-51948735D01*
X132770000Y-51948751D01*
X132770000Y-52191248D01*
X132770001Y-52191264D01*
X132801653Y-52431687D01*
X132864421Y-52665939D01*
X132957220Y-52889978D01*
X132957227Y-52889993D01*
X133078480Y-53100009D01*
X133204393Y-53264102D01*
X133229587Y-53329271D01*
X133215549Y-53397716D01*
X133204393Y-53415074D01*
X133078067Y-53579706D01*
X132956777Y-53789785D01*
X132956773Y-53789794D01*
X132863947Y-54013895D01*
X132801161Y-54248214D01*
X132769500Y-54488711D01*
X132769500Y-54731288D01*
X132801161Y-54971785D01*
X132863947Y-55206104D01*
X132956773Y-55430205D01*
X132956777Y-55430215D01*
X133009976Y-55522358D01*
X133026449Y-55590259D01*
X133003596Y-55656285D01*
X132998692Y-55662718D01*
X132930303Y-55746591D01*
X132836089Y-55926954D01*
X132794143Y-56073553D01*
X132780298Y-56121941D01*
X132780114Y-56122583D01*
X132780113Y-56122586D01*
X132777504Y-56151936D01*
X132769676Y-56239991D01*
X132769500Y-56241966D01*
X132769500Y-58058028D01*
X132769501Y-58058034D01*
X132780113Y-58177415D01*
X132836089Y-58373045D01*
X132836090Y-58373047D01*
X132836091Y-58373049D01*
X132930302Y-58553407D01*
X132930304Y-58553409D01*
X132999030Y-58637695D01*
X133026139Y-58702091D01*
X133014130Y-58770921D01*
X133010315Y-58778055D01*
X132957231Y-58869999D01*
X132957220Y-58870021D01*
X132864421Y-59094060D01*
X132801653Y-59328312D01*
X132770001Y-59568735D01*
X132770000Y-59568751D01*
X132770000Y-59811248D01*
X132770001Y-59811264D01*
X132801653Y-60051687D01*
X132864421Y-60285939D01*
X132957220Y-60509978D01*
X132957227Y-60509993D01*
X133078480Y-60720009D01*
X133204393Y-60884102D01*
X133229587Y-60949271D01*
X133215549Y-61017716D01*
X133204393Y-61035074D01*
X133078067Y-61199706D01*
X132956777Y-61409785D01*
X132956773Y-61409794D01*
X132863947Y-61633895D01*
X132801161Y-61868214D01*
X132769500Y-62108711D01*
X132769500Y-62351288D01*
X132801161Y-62591785D01*
X132863947Y-62826104D01*
X132956773Y-63050205D01*
X132956777Y-63050215D01*
X133009976Y-63142358D01*
X133026449Y-63210259D01*
X133003596Y-63276285D01*
X132998692Y-63282718D01*
X132930303Y-63366591D01*
X132836089Y-63546954D01*
X132794143Y-63693553D01*
X132780298Y-63741941D01*
X132780114Y-63742583D01*
X132780113Y-63742586D01*
X132777504Y-63771936D01*
X132769676Y-63859991D01*
X132769500Y-63861966D01*
X132769500Y-65678028D01*
X132769501Y-65678034D01*
X132780113Y-65797415D01*
X132836089Y-65993045D01*
X132836090Y-65993047D01*
X132836091Y-65993049D01*
X132930302Y-66173407D01*
X132930304Y-66173409D01*
X132999030Y-66257695D01*
X133026139Y-66322091D01*
X133014130Y-66390921D01*
X133010315Y-66398055D01*
X132957231Y-66489999D01*
X132957220Y-66490021D01*
X132864421Y-66714060D01*
X132801653Y-66948312D01*
X132770001Y-67188735D01*
X132770000Y-67188751D01*
X132770000Y-67431248D01*
X132770001Y-67431264D01*
X132801653Y-67671687D01*
X132864421Y-67905939D01*
X132957220Y-68129978D01*
X132957227Y-68129993D01*
X133078480Y-68340009D01*
X133204393Y-68504102D01*
X133229587Y-68569271D01*
X133215549Y-68637716D01*
X133204393Y-68655074D01*
X133078067Y-68819706D01*
X132956777Y-69029785D01*
X132956773Y-69029794D01*
X132863947Y-69253895D01*
X132801161Y-69488214D01*
X132769500Y-69728711D01*
X132769500Y-69971288D01*
X132801161Y-70211785D01*
X132863947Y-70446104D01*
X132956773Y-70670205D01*
X132956777Y-70670215D01*
X133009976Y-70762358D01*
X133026449Y-70830259D01*
X133003596Y-70896285D01*
X132998692Y-70902718D01*
X132930303Y-70986591D01*
X132836089Y-71166954D01*
X132780114Y-71362583D01*
X132780113Y-71362586D01*
X132777504Y-71391936D01*
X132769676Y-71479991D01*
X132769500Y-71481966D01*
X132769500Y-73298028D01*
X132769501Y-73298034D01*
X132780113Y-73417415D01*
X132836089Y-73613045D01*
X132836090Y-73613048D01*
X132836091Y-73613049D01*
X132930302Y-73793407D01*
X132964977Y-73835933D01*
X133058890Y-73951109D01*
X133122666Y-74003111D01*
X133216593Y-74079698D01*
X133396951Y-74173909D01*
X133592582Y-74229886D01*
X133711963Y-74240500D01*
X135528036Y-74240499D01*
X135647418Y-74229886D01*
X135843049Y-74173909D01*
X136023407Y-74079698D01*
X136181109Y-73951109D01*
X136309698Y-73793407D01*
X136403909Y-73613049D01*
X136459886Y-73417418D01*
X136470500Y-73298037D01*
X136470499Y-71481964D01*
X136470499Y-71481963D01*
X136470499Y-71481953D01*
X136470412Y-71479991D01*
X136470499Y-71479637D01*
X136470499Y-71479215D01*
X136470603Y-71479215D01*
X136487108Y-71412146D01*
X136537834Y-71364097D01*
X136594290Y-71350500D01*
X137638634Y-71350500D01*
X137705673Y-71370185D01*
X137735581Y-71397187D01*
X137801332Y-71479637D01*
X137832584Y-71518825D01*
X140372584Y-74058825D01*
X140571175Y-74257416D01*
X140790752Y-74432523D01*
X141028555Y-74581945D01*
X141281592Y-74703801D01*
X141281598Y-74703803D01*
X141546669Y-74796556D01*
X141546681Y-74796560D01*
X141820491Y-74859055D01*
X141820497Y-74859055D01*
X141820505Y-74859057D01*
X142006547Y-74880018D01*
X142099569Y-74890499D01*
X142099572Y-74890500D01*
X142099575Y-74890500D01*
X147502897Y-74890500D01*
X147569936Y-74910185D01*
X147590578Y-74926819D01*
X157420582Y-84756823D01*
X157454067Y-84818146D01*
X157449083Y-84887838D01*
X157407211Y-84943771D01*
X157386704Y-84956224D01*
X157296309Y-84999756D01*
X157010962Y-85179053D01*
X156747477Y-85389174D01*
X156509174Y-85627477D01*
X156299053Y-85890962D01*
X156119752Y-86176316D01*
X155973532Y-86479945D01*
X155862227Y-86798034D01*
X155862223Y-86798046D01*
X155787233Y-87126602D01*
X155787231Y-87126618D01*
X155749500Y-87461491D01*
X155749500Y-125606000D01*
X155729815Y-125673039D01*
X155677011Y-125718794D01*
X155625500Y-125730000D01*
X150564499Y-125730000D01*
X150497460Y-125710315D01*
X150451705Y-125657511D01*
X150440499Y-125606000D01*
X150440499Y-124821971D01*
X150440499Y-124821964D01*
X150429886Y-124702582D01*
X150373909Y-124506951D01*
X150279698Y-124326593D01*
X150167082Y-124188480D01*
X150151109Y-124168890D01*
X149993409Y-124040304D01*
X149993410Y-124040304D01*
X149993407Y-124040302D01*
X149813049Y-123946091D01*
X149813048Y-123946090D01*
X149813045Y-123946089D01*
X149692693Y-123911653D01*
X149617418Y-123890114D01*
X149617415Y-123890113D01*
X149617413Y-123890113D01*
X149551102Y-123884217D01*
X149498037Y-123879500D01*
X149498032Y-123879500D01*
X147681971Y-123879500D01*
X147681965Y-123879500D01*
X147681964Y-123879501D01*
X147676351Y-123880000D01*
X147562584Y-123890113D01*
X147366954Y-123946089D01*
X147186591Y-124040303D01*
X147102718Y-124108692D01*
X147038321Y-124135800D01*
X146969492Y-124123790D01*
X146962358Y-124119976D01*
X146870215Y-124066777D01*
X146870205Y-124066773D01*
X146646104Y-123973947D01*
X146411785Y-123911161D01*
X146171289Y-123879500D01*
X146171288Y-123879500D01*
X145928712Y-123879500D01*
X145928711Y-123879500D01*
X145688214Y-123911161D01*
X145453895Y-123973947D01*
X145229794Y-124066773D01*
X145229785Y-124066777D01*
X145019706Y-124188067D01*
X144855074Y-124314393D01*
X144789905Y-124339587D01*
X144721460Y-124325548D01*
X144704102Y-124314393D01*
X144540009Y-124188480D01*
X144329993Y-124067227D01*
X144329978Y-124067220D01*
X144105939Y-123974421D01*
X143871687Y-123911653D01*
X143631264Y-123880001D01*
X143631248Y-123880000D01*
X143388752Y-123880000D01*
X143388735Y-123880001D01*
X143148312Y-123911653D01*
X142914060Y-123974421D01*
X142690021Y-124067220D01*
X142689999Y-124067231D01*
X142598055Y-124120315D01*
X142530155Y-124136788D01*
X142464128Y-124113935D01*
X142457695Y-124109030D01*
X142373407Y-124040302D01*
X142193049Y-123946091D01*
X142193048Y-123946090D01*
X142193045Y-123946089D01*
X142072693Y-123911653D01*
X141997418Y-123890114D01*
X141997415Y-123890113D01*
X141997413Y-123890113D01*
X141931102Y-123884217D01*
X141878037Y-123879500D01*
X141878032Y-123879500D01*
X140061971Y-123879500D01*
X140061965Y-123879500D01*
X140061964Y-123879501D01*
X140056351Y-123880000D01*
X139942584Y-123890113D01*
X139746954Y-123946089D01*
X139566591Y-124040303D01*
X139482718Y-124108692D01*
X139418321Y-124135800D01*
X139349492Y-124123790D01*
X139342358Y-124119976D01*
X139250215Y-124066777D01*
X139250205Y-124066773D01*
X139026104Y-123973947D01*
X138791785Y-123911161D01*
X138551289Y-123879500D01*
X138551288Y-123879500D01*
X138308712Y-123879500D01*
X138308711Y-123879500D01*
X138068214Y-123911161D01*
X137833895Y-123973947D01*
X137609794Y-124066773D01*
X137609785Y-124066777D01*
X137399706Y-124188067D01*
X137235074Y-124314393D01*
X137169905Y-124339587D01*
X137101460Y-124325548D01*
X137084102Y-124314393D01*
X136920009Y-124188480D01*
X136709993Y-124067227D01*
X136709978Y-124067220D01*
X136485939Y-123974421D01*
X136251687Y-123911653D01*
X136011264Y-123880001D01*
X136011248Y-123880000D01*
X135768752Y-123880000D01*
X135768735Y-123880001D01*
X135528312Y-123911653D01*
X135294060Y-123974421D01*
X135070021Y-124067220D01*
X135069999Y-124067231D01*
X134978055Y-124120315D01*
X134910155Y-124136788D01*
X134844128Y-124113935D01*
X134837695Y-124109030D01*
X134753407Y-124040302D01*
X134573049Y-123946091D01*
X134573048Y-123946090D01*
X134573045Y-123946089D01*
X134452693Y-123911653D01*
X134377418Y-123890114D01*
X134377415Y-123890113D01*
X134377413Y-123890113D01*
X134311102Y-123884217D01*
X134258037Y-123879500D01*
X134258032Y-123879500D01*
X132441971Y-123879500D01*
X132441965Y-123879500D01*
X132441964Y-123879501D01*
X132436351Y-123880000D01*
X132322584Y-123890113D01*
X132126954Y-123946089D01*
X131946591Y-124040303D01*
X131862718Y-124108692D01*
X131798321Y-124135800D01*
X131729492Y-124123790D01*
X131722358Y-124119976D01*
X131630215Y-124066777D01*
X131630205Y-124066773D01*
X131406104Y-123973947D01*
X131171785Y-123911161D01*
X130931289Y-123879500D01*
X130931288Y-123879500D01*
X130688712Y-123879500D01*
X130688711Y-123879500D01*
X130448214Y-123911161D01*
X130213895Y-123973947D01*
X129989794Y-124066773D01*
X129989785Y-124066777D01*
X129779706Y-124188067D01*
X129615074Y-124314393D01*
X129549905Y-124339587D01*
X129481460Y-124325548D01*
X129464102Y-124314393D01*
X129300009Y-124188480D01*
X129089993Y-124067227D01*
X129089978Y-124067220D01*
X128865939Y-123974421D01*
X128631687Y-123911653D01*
X128391264Y-123880001D01*
X128391248Y-123880000D01*
X128148752Y-123880000D01*
X128148735Y-123880001D01*
X127908312Y-123911653D01*
X127674060Y-123974421D01*
X127450021Y-124067220D01*
X127450007Y-124067227D01*
X127363994Y-124116887D01*
X127363994Y-124116888D01*
X128535872Y-125288766D01*
X128549736Y-125314156D01*
X128462993Y-125264075D01*
X128335826Y-125230000D01*
X128204174Y-125230000D01*
X128077007Y-125264075D01*
X127962993Y-125329901D01*
X127869901Y-125422993D01*
X127804075Y-125537007D01*
X127770000Y-125664174D01*
X127770000Y-125730000D01*
X127562894Y-125730000D01*
X126656888Y-124823994D01*
X126656887Y-124823994D01*
X126607227Y-124910007D01*
X126607220Y-124910021D01*
X126514421Y-125134060D01*
X126451653Y-125368312D01*
X126420001Y-125608735D01*
X126419735Y-125612795D01*
X126418037Y-125612683D01*
X126400315Y-125673039D01*
X126347511Y-125718794D01*
X126296000Y-125730000D01*
X124819011Y-125730000D01*
X124751972Y-125710315D01*
X124706217Y-125657511D01*
X124695011Y-125606000D01*
X124695011Y-107400212D01*
X124714696Y-107333173D01*
X124767500Y-107287418D01*
X124819011Y-107276212D01*
X149260401Y-107276212D01*
X149260403Y-107276212D01*
X149387697Y-107242104D01*
X149501825Y-107176212D01*
X149595011Y-107083026D01*
X149660903Y-106968898D01*
X149695011Y-106841604D01*
X149695011Y-84709820D01*
X149660903Y-84582526D01*
X149595011Y-84468398D01*
X149501825Y-84375212D01*
X149444761Y-84342266D01*
X149387698Y-84309320D01*
X149324050Y-84292266D01*
X149260403Y-84275212D01*
X149260402Y-84275212D01*
X124819011Y-84275212D01*
X124751972Y-84255527D01*
X124706217Y-84202723D01*
X124695011Y-84151212D01*
X124695011Y-50456887D01*
X133713994Y-50456887D01*
X134620000Y-51362893D01*
X134620001Y-51362893D01*
X135526005Y-50456887D01*
X161653994Y-50456887D01*
X162560000Y-51362893D01*
X162560001Y-51362893D01*
X163466005Y-50456887D01*
X163466005Y-50456886D01*
X163379997Y-50407229D01*
X163379981Y-50407221D01*
X163155939Y-50314421D01*
X162921687Y-50251653D01*
X162681264Y-50220001D01*
X162681248Y-50220000D01*
X162438752Y-50220000D01*
X162438735Y-50220001D01*
X162198312Y-50251653D01*
X161964060Y-50314421D01*
X161740021Y-50407220D01*
X161740007Y-50407227D01*
X161653994Y-50456887D01*
X135526005Y-50456887D01*
X135526005Y-50456886D01*
X135439997Y-50407229D01*
X135439981Y-50407221D01*
X135215939Y-50314421D01*
X134981687Y-50251653D01*
X134741264Y-50220001D01*
X134741248Y-50220000D01*
X134498752Y-50220000D01*
X134498735Y-50220001D01*
X134258312Y-50251653D01*
X134024060Y-50314421D01*
X133800021Y-50407220D01*
X133800007Y-50407227D01*
X133713994Y-50456887D01*
X124695011Y-50456887D01*
X124695011Y-45956561D01*
X124714696Y-45889522D01*
X124767500Y-45843767D01*
X124819011Y-45832561D01*
X142704052Y-45832561D01*
X142704054Y-45832561D01*
X142831348Y-45798453D01*
X142945476Y-45732561D01*
X144191718Y-44486319D01*
X144253041Y-44452834D01*
X144279399Y-44450000D01*
X204109623Y-44450000D01*
X204176662Y-44469685D01*
G37*
%TD.AperFunction*%
%TD*%
M02*
