%TF.GenerationSoftware,KiCad,Pcbnew,9.0.4*%
%TF.CreationDate,2025-09-09T23:45:02+02:00*%
%TF.ProjectId,hexapod,68657861-706f-4642-9e6b-696361645f70,rev?*%
%TF.SameCoordinates,Original*%
%TF.FileFunction,Profile,NP*%
%FSLAX46Y46*%
G04 Gerber Fmt 4.6, Leading zero omitted, Abs format (unit mm)*
G04 Created by KiCad (PCBNEW 9.0.4) date 2025-09-09 23:45:02*
%MOMM*%
%LPD*%
G01*
G04 APERTURE LIST*
%TA.AperFunction,Profile*%
%ADD10C,0.200000*%
%TD*%
G04 APERTURE END LIST*
D10*
X124194511Y-45332061D02*
X142638162Y-45332061D01*
X142638162Y-45332061D02*
X158194511Y-29775712D01*
X199194511Y-106775712D02*
X224194511Y-106775712D01*
X160294511Y-42359292D02*
X160294511Y-41359292D01*
X160294511Y-41359292D02*
X188094511Y-41359292D01*
X205750860Y-45332061D02*
X224194511Y-45332061D01*
X149194511Y-84775712D02*
X124194511Y-84775712D01*
X224194511Y-106775712D02*
X224194511Y-136775712D01*
X158194511Y-29775712D02*
X190194511Y-29775712D01*
X124194511Y-84775712D02*
X124194511Y-45332061D01*
X124194511Y-106775712D02*
X149194511Y-106775712D01*
X199194511Y-84775712D02*
X199194511Y-106775712D01*
X188094511Y-41359292D02*
X188094511Y-42359292D01*
X224194511Y-45332061D02*
X224194511Y-84775712D01*
X224194511Y-136775712D02*
X124194511Y-136775712D01*
X124194511Y-136775712D02*
X124194511Y-106775712D01*
X188094511Y-42359292D02*
X160294511Y-42359292D01*
X224194511Y-84775712D02*
X199194511Y-84775712D01*
X149194511Y-106775712D02*
X149194511Y-84775712D01*
X190194511Y-29775712D02*
X205750860Y-45332061D01*
M02*
