%TF.GenerationSoftware,KiCad,Pcbnew,9.0.4*%
%TF.CreationDate,2025-09-09T23:45:02+02:00*%
%TF.ProjectId,hexapod,68657861-706f-4642-9e6b-696361645f70,rev?*%
%TF.SameCoordinates,Original*%
%TF.FileFunction,Copper,L1,Top*%
%TF.FilePolarity,Positive*%
%FSLAX46Y46*%
G04 Gerber Fmt 4.6, Leading zero omitted, Abs format (unit mm)*
G04 Created by KiCad (PCBNEW 9.0.4) date 2025-09-09 23:45:02*
%MOMM*%
%LPD*%
G01*
G04 APERTURE LIST*
G04 Aperture macros list*
%AMRoundRect*
0 Rectangle with rounded corners*
0 $1 Rounding radius*
0 $2 $3 $4 $5 $6 $7 $8 $9 X,Y pos of 4 corners*
0 Add a 4 corners polygon primitive as box body*
4,1,4,$2,$3,$4,$5,$6,$7,$8,$9,$2,$3,0*
0 Add four circle primitives for the rounded corners*
1,1,$1+$1,$2,$3*
1,1,$1+$1,$4,$5*
1,1,$1+$1,$6,$7*
1,1,$1+$1,$8,$9*
0 Add four rect primitives between the rounded corners*
20,1,$1+$1,$2,$3,$4,$5,0*
20,1,$1+$1,$4,$5,$6,$7,0*
20,1,$1+$1,$6,$7,$8,$9,0*
20,1,$1+$1,$8,$9,$2,$3,0*%
G04 Aperture macros list end*
%TA.AperFunction,ComponentPad*%
%ADD10R,1.700000X1.700000*%
%TD*%
%TA.AperFunction,ComponentPad*%
%ADD11C,1.700000*%
%TD*%
%TA.AperFunction,ComponentPad*%
%ADD12RoundRect,0.250000X-1.050000X-1.050000X1.050000X-1.050000X1.050000X1.050000X-1.050000X1.050000X0*%
%TD*%
%TA.AperFunction,ComponentPad*%
%ADD13C,2.600000*%
%TD*%
%TA.AperFunction,ComponentPad*%
%ADD14RoundRect,0.250001X-0.949999X-0.949999X0.949999X-0.949999X0.949999X0.949999X-0.949999X0.949999X0*%
%TD*%
%TA.AperFunction,ComponentPad*%
%ADD15C,2.400000*%
%TD*%
%TA.AperFunction,ComponentPad*%
%ADD16RoundRect,0.250001X0.949999X0.949999X-0.949999X0.949999X-0.949999X-0.949999X0.949999X-0.949999X0*%
%TD*%
%TA.AperFunction,ViaPad*%
%ADD17C,3.000000*%
%TD*%
G04 APERTURE END LIST*
D10*
%TO.P,J14_L_{3}_TIBIA1,1,Pin_1*%
%TO.N,L_{3}_TIBIA*%
X148590000Y-125730000D03*
D11*
%TO.P,J14_L_{3}_TIBIA1,2,Pin_2*%
%TO.N,6V_UBEC2*%
X146050000Y-125730000D03*
%TO.P,J14_L_{3}_TIBIA1,3,Pin_3*%
%TO.N,GND*%
X143510000Y-125730000D03*
%TD*%
D10*
%TO.P,J17_L_{6}_COXA1,1,Pin_1*%
%TO.N,L_{6}_COXA*%
X213360000Y-67310000D03*
D11*
%TO.P,J17_L_{6}_COXA1,2,Pin_2*%
%TO.N,6V_UBEC3*%
X213360000Y-69850000D03*
%TO.P,J17_L_{6}_COXA1,3,Pin_3*%
%TO.N,GND*%
X213360000Y-72390000D03*
%TD*%
D10*
%TO.P,J20_L_{5}_TIBIA1,1,Pin_1*%
%TO.N,L_{5}_TIBIA*%
X185420000Y-52070000D03*
D11*
%TO.P,J20_L_{5}_TIBIA1,2,Pin_2*%
%TO.N,6V_UBEC3*%
X185420000Y-54610000D03*
%TO.P,J20_L_{5}_TIBIA1,3,Pin_3*%
%TO.N,GND*%
X185420000Y-57150000D03*
%TD*%
D12*
%TO.P,J3,1*%
%TO.N,6V_UBEC2*%
X172800000Y-125730000D03*
D13*
%TO.P,J3,2*%
%TO.N,GND*%
X177800000Y-125730000D03*
%TD*%
D14*
%TO.P,C1,1*%
%TO.N,6V_UBEC1*%
X161587246Y-85090000D03*
D15*
%TO.P,C1,2*%
%TO.N,GND*%
X169087246Y-85090000D03*
%TD*%
D12*
%TO.P,J2,1*%
%TO.N,6V_UBEC1*%
X158830000Y-125730000D03*
D13*
%TO.P,J2,2*%
%TO.N,GND*%
X163830000Y-125730000D03*
%TD*%
D10*
%TO.P,J10_L_{3}_COXA1,1,Pin_1*%
%TO.N,L_{3}_COXA*%
X133350000Y-125730000D03*
D11*
%TO.P,J10_L_{3}_COXA1,2,Pin_2*%
%TO.N,6V_UBEC2*%
X130810000Y-125730000D03*
%TO.P,J10_L_{3}_COXA1,3,Pin_3*%
%TO.N,GND*%
X128270000Y-125730000D03*
%TD*%
D10*
%TO.P,J8_L_{2}_FEMUR1,1,Pin_1*%
%TO.N,L_{2}_FEMUR*%
X162560000Y-64770000D03*
D11*
%TO.P,J8_L_{2}_FEMUR1,2,Pin_2*%
%TO.N,6V_UBEC1*%
X162560000Y-62230000D03*
%TO.P,J8_L_{2}_FEMUR1,3,Pin_3*%
%TO.N,GND*%
X162560000Y-59690000D03*
%TD*%
D10*
%TO.P,J13_L_{4}_FEMUR1,1,Pin_1*%
%TO.N,L_{4}_FEMUR*%
X213360000Y-125730000D03*
D11*
%TO.P,J13_L_{4}_FEMUR1,2,Pin_2*%
%TO.N,6V_UBEC2*%
X210820000Y-125730000D03*
%TO.P,J13_L_{4}_FEMUR1,3,Pin_3*%
%TO.N,GND*%
X208280000Y-125730000D03*
%TD*%
D10*
%TO.P,J1_L_{1}_COXA1,1,Pin_1*%
%TO.N,L_{1}_COXA*%
X134620000Y-72390000D03*
D11*
%TO.P,J1_L_{1}_COXA1,2,Pin_2*%
%TO.N,6V_UBEC1*%
X134620000Y-69850000D03*
%TO.P,J1_L_{1}_COXA1,3,Pin_3*%
%TO.N,GND*%
X134620000Y-67310000D03*
%TD*%
D10*
%TO.P,J12_L_{3}_FEMUR1,1,Pin_1*%
%TO.N,L_{3}_FEMUR*%
X140970000Y-125730000D03*
D11*
%TO.P,J12_L_{3}_FEMUR1,2,Pin_2*%
%TO.N,6V_UBEC2*%
X138430000Y-125730000D03*
%TO.P,J12_L_{3}_FEMUR1,3,Pin_3*%
%TO.N,GND*%
X135890000Y-125730000D03*
%TD*%
D12*
%TO.P,J4,1*%
%TO.N,6V_UBEC3*%
X184150000Y-125730000D03*
D13*
%TO.P,J4,2*%
%TO.N,GND*%
X189150000Y-125730000D03*
%TD*%
D10*
%TO.P,J16_L_{5}_COXA1,1,Pin_1*%
%TO.N,L_{5}_COXA*%
X185420000Y-67310000D03*
D11*
%TO.P,J16_L_{5}_COXA1,2,Pin_2*%
%TO.N,6V_UBEC3*%
X185420000Y-69850000D03*
%TO.P,J16_L_{5}_COXA1,3,Pin_3*%
%TO.N,GND*%
X185420000Y-72390000D03*
%TD*%
D10*
%TO.P,J11_L_{4}_COXA1,1,Pin_1*%
%TO.N,L_{4}_COXA*%
X205740000Y-125730000D03*
D11*
%TO.P,J11_L_{4}_COXA1,2,Pin_2*%
%TO.N,6V_UBEC2*%
X203200000Y-125730000D03*
%TO.P,J11_L_{4}_COXA1,3,Pin_3*%
%TO.N,GND*%
X200660000Y-125730000D03*
%TD*%
D10*
%TO.P,J6_L_{1}_TIBIA1,1,Pin_1*%
%TO.N,L_{1}_TIBIA*%
X134620000Y-57150000D03*
D11*
%TO.P,J6_L_{1}_TIBIA1,2,Pin_2*%
%TO.N,6V_UBEC1*%
X134620000Y-54610000D03*
%TO.P,J6_L_{1}_TIBIA1,3,Pin_3*%
%TO.N,GND*%
X134620000Y-52070000D03*
%TD*%
D10*
%TO.P,J15_L_{4}_TIBIA1,1,Pin_1*%
%TO.N,L_{4}_TIBIA*%
X220980000Y-125730000D03*
D11*
%TO.P,J15_L_{4}_TIBIA1,2,Pin_2*%
%TO.N,6V_UBEC2*%
X218440000Y-125730000D03*
%TO.P,J15_L_{4}_TIBIA1,3,Pin_3*%
%TO.N,GND*%
X215900000Y-125730000D03*
%TD*%
D10*
%TO.P,J18_L_{5}_FEMUR1,1,Pin_1*%
%TO.N,L_{5}_FEMUR*%
X185420000Y-59690000D03*
D11*
%TO.P,J18_L_{5}_FEMUR1,2,Pin_2*%
%TO.N,6V_UBEC3*%
X185420000Y-62230000D03*
%TO.P,J18_L_{5}_FEMUR1,3,Pin_3*%
%TO.N,GND*%
X185420000Y-64770000D03*
%TD*%
D14*
%TO.P,C2,1*%
%TO.N,6V_UBEC2*%
X171570000Y-111760000D03*
D15*
%TO.P,C2,2*%
%TO.N,GND*%
X179070000Y-111760000D03*
%TD*%
D10*
%TO.P,J9_L_{2}_TIBIA1,1,Pin_1*%
%TO.N,L_{2}_TIBIA*%
X162560000Y-57150000D03*
D11*
%TO.P,J9_L_{2}_TIBIA1,2,Pin_2*%
%TO.N,6V_UBEC1*%
X162560000Y-54610000D03*
%TO.P,J9_L_{2}_TIBIA1,3,Pin_3*%
%TO.N,GND*%
X162560000Y-52070000D03*
%TD*%
D10*
%TO.P,J7_L_{2}_COXA1,1,Pin_1*%
%TO.N,L_{2}_COXA*%
X162560000Y-72390000D03*
D11*
%TO.P,J7_L_{2}_COXA1,2,Pin_2*%
%TO.N,6V_UBEC1*%
X162560000Y-69850000D03*
%TO.P,J7_L_{2}_COXA1,3,Pin_3*%
%TO.N,GND*%
X162560000Y-67310000D03*
%TD*%
D10*
%TO.P,J19_L_{6}_FEMUR1,1,Pin_1*%
%TO.N,L_{6}_FEMUR*%
X213360000Y-59690000D03*
D11*
%TO.P,J19_L_{6}_FEMUR1,2,Pin_2*%
%TO.N,6V_UBEC3*%
X213360000Y-62230000D03*
%TO.P,J19_L_{6}_FEMUR1,3,Pin_3*%
%TO.N,GND*%
X213360000Y-64770000D03*
%TD*%
D10*
%TO.P,J5_L_{1}_FEMUR1,1,Pin_1*%
%TO.N,L_{1}_FEMUR*%
X134620000Y-64770000D03*
D11*
%TO.P,J5_L_{1}_FEMUR1,2,Pin_2*%
%TO.N,6V_UBEC1*%
X134620000Y-62230000D03*
%TO.P,J5_L_{1}_FEMUR1,3,Pin_3*%
%TO.N,GND*%
X134620000Y-59690000D03*
%TD*%
D16*
%TO.P,C3,1*%
%TO.N,6V_UBEC3*%
X187662755Y-85090000D03*
D15*
%TO.P,C3,2*%
%TO.N,GND*%
X180162755Y-85090000D03*
%TD*%
D10*
%TO.P,J21_L_{6}_TIBIA1,1,Pin_1*%
%TO.N,L_{6}_TIBIA*%
X213360000Y-52070000D03*
D11*
%TO.P,J21_L_{6}_TIBIA1,2,Pin_2*%
%TO.N,6V_UBEC3*%
X213360000Y-54610000D03*
%TO.P,J21_L_{6}_TIBIA1,3,Pin_3*%
%TO.N,GND*%
X213360000Y-57150000D03*
%TD*%
D17*
%TO.N,GND*%
X182880000Y-102870000D03*
X208280000Y-118110000D03*
X166370000Y-102870000D03*
%TD*%
M02*
