%TF.GenerationSoftware,KiCad,Pcbnew,9.0.4*%
%TF.CreationDate,2025-09-09T23:45:02+02:00*%
%TF.ProjectId,hexapod,68657861-706f-4642-9e6b-696361645f70,rev?*%
%TF.SameCoordinates,Original*%
%TF.FileFunction,Legend,Top*%
%TF.FilePolarity,Positive*%
%FSLAX46Y46*%
G04 Gerber Fmt 4.6, Leading zero omitted, Abs format (unit mm)*
G04 Created by KiCad (PCBNEW 9.0.4) date 2025-09-09 23:45:02*
%MOMM*%
%LPD*%
G01*
G04 APERTURE LIST*
%ADD10C,0.150000*%
%ADD11C,0.120000*%
G04 APERTURE END LIST*
D10*
X150314819Y-134734047D02*
X151029104Y-134734047D01*
X151029104Y-134734047D02*
X151171961Y-134781666D01*
X151171961Y-134781666D02*
X151267200Y-134876904D01*
X151267200Y-134876904D02*
X151314819Y-135019761D01*
X151314819Y-135019761D02*
X151314819Y-135114999D01*
X151314819Y-133734047D02*
X151314819Y-134305475D01*
X151314819Y-134019761D02*
X150314819Y-134019761D01*
X150314819Y-134019761D02*
X150457676Y-134114999D01*
X150457676Y-134114999D02*
X150552914Y-134210237D01*
X150552914Y-134210237D02*
X150600533Y-134305475D01*
X150648152Y-132876904D02*
X151314819Y-132876904D01*
X150267200Y-133114999D02*
X150981485Y-133353094D01*
X150981485Y-133353094D02*
X150981485Y-132734047D01*
X151410057Y-132591190D02*
X151410057Y-131829285D01*
X151314819Y-131114999D02*
X151314819Y-131591189D01*
X151314819Y-131591189D02*
X150314819Y-131591189D01*
X150625295Y-130905475D02*
X150625295Y-130410237D01*
X150625295Y-130410237D02*
X150930057Y-130676903D01*
X150930057Y-130676903D02*
X150930057Y-130562618D01*
X150930057Y-130562618D02*
X150968152Y-130486427D01*
X150968152Y-130486427D02*
X151006247Y-130448332D01*
X151006247Y-130448332D02*
X151082438Y-130410237D01*
X151082438Y-130410237D02*
X151272914Y-130410237D01*
X151272914Y-130410237D02*
X151349104Y-130448332D01*
X151349104Y-130448332D02*
X151387200Y-130486427D01*
X151387200Y-130486427D02*
X151425295Y-130562618D01*
X151425295Y-130562618D02*
X151425295Y-130791189D01*
X151425295Y-130791189D02*
X151387200Y-130867380D01*
X151387200Y-130867380D02*
X151349104Y-130905475D01*
X151410057Y-130257856D02*
X151410057Y-129495951D01*
X150314819Y-129400712D02*
X150314819Y-128829284D01*
X151314819Y-129114998D02*
X150314819Y-129114998D01*
X151314819Y-128495950D02*
X150314819Y-128495950D01*
X150791009Y-127686427D02*
X150838628Y-127543570D01*
X150838628Y-127543570D02*
X150886247Y-127495951D01*
X150886247Y-127495951D02*
X150981485Y-127448332D01*
X150981485Y-127448332D02*
X151124342Y-127448332D01*
X151124342Y-127448332D02*
X151219580Y-127495951D01*
X151219580Y-127495951D02*
X151267200Y-127543570D01*
X151267200Y-127543570D02*
X151314819Y-127638808D01*
X151314819Y-127638808D02*
X151314819Y-128019760D01*
X151314819Y-128019760D02*
X150314819Y-128019760D01*
X150314819Y-128019760D02*
X150314819Y-127686427D01*
X150314819Y-127686427D02*
X150362438Y-127591189D01*
X150362438Y-127591189D02*
X150410057Y-127543570D01*
X150410057Y-127543570D02*
X150505295Y-127495951D01*
X150505295Y-127495951D02*
X150600533Y-127495951D01*
X150600533Y-127495951D02*
X150695771Y-127543570D01*
X150695771Y-127543570D02*
X150743390Y-127591189D01*
X150743390Y-127591189D02*
X150791009Y-127686427D01*
X150791009Y-127686427D02*
X150791009Y-128019760D01*
X151314819Y-127019760D02*
X150314819Y-127019760D01*
X151029104Y-126591189D02*
X151029104Y-126114999D01*
X151314819Y-126686427D02*
X150314819Y-126353094D01*
X150314819Y-126353094D02*
X151314819Y-126019761D01*
X151314819Y-125162618D02*
X151314819Y-125734046D01*
X151314819Y-125448332D02*
X150314819Y-125448332D01*
X150314819Y-125448332D02*
X150457676Y-125543570D01*
X150457676Y-125543570D02*
X150552914Y-125638808D01*
X150552914Y-125638808D02*
X150600533Y-125734046D01*
X212983094Y-64494819D02*
X212983094Y-65209104D01*
X212983094Y-65209104D02*
X212935475Y-65351961D01*
X212935475Y-65351961D02*
X212840237Y-65447200D01*
X212840237Y-65447200D02*
X212697380Y-65494819D01*
X212697380Y-65494819D02*
X212602142Y-65494819D01*
X213983094Y-65494819D02*
X213411666Y-65494819D01*
X213697380Y-65494819D02*
X213697380Y-64494819D01*
X213697380Y-64494819D02*
X213602142Y-64637676D01*
X213602142Y-64637676D02*
X213506904Y-64732914D01*
X213506904Y-64732914D02*
X213411666Y-64780533D01*
X214316428Y-64494819D02*
X214983094Y-64494819D01*
X214983094Y-64494819D02*
X214554523Y-65494819D01*
X215125952Y-65590057D02*
X215887856Y-65590057D01*
X216602142Y-65494819D02*
X216125952Y-65494819D01*
X216125952Y-65494819D02*
X216125952Y-64494819D01*
X217230714Y-64805295D02*
X217078333Y-64805295D01*
X217078333Y-64805295D02*
X217002142Y-64843390D01*
X217002142Y-64843390D02*
X216964047Y-64881485D01*
X216964047Y-64881485D02*
X216887857Y-64995771D01*
X216887857Y-64995771D02*
X216849761Y-65148152D01*
X216849761Y-65148152D02*
X216849761Y-65452914D01*
X216849761Y-65452914D02*
X216887857Y-65529104D01*
X216887857Y-65529104D02*
X216925952Y-65567200D01*
X216925952Y-65567200D02*
X217002142Y-65605295D01*
X217002142Y-65605295D02*
X217154523Y-65605295D01*
X217154523Y-65605295D02*
X217230714Y-65567200D01*
X217230714Y-65567200D02*
X217268809Y-65529104D01*
X217268809Y-65529104D02*
X217306904Y-65452914D01*
X217306904Y-65452914D02*
X217306904Y-65262438D01*
X217306904Y-65262438D02*
X217268809Y-65186247D01*
X217268809Y-65186247D02*
X217230714Y-65148152D01*
X217230714Y-65148152D02*
X217154523Y-65110057D01*
X217154523Y-65110057D02*
X217002142Y-65110057D01*
X217002142Y-65110057D02*
X216925952Y-65148152D01*
X216925952Y-65148152D02*
X216887857Y-65186247D01*
X216887857Y-65186247D02*
X216849761Y-65262438D01*
X217459286Y-65590057D02*
X218221190Y-65590057D01*
X219030714Y-65399580D02*
X218983095Y-65447200D01*
X218983095Y-65447200D02*
X218840238Y-65494819D01*
X218840238Y-65494819D02*
X218745000Y-65494819D01*
X218745000Y-65494819D02*
X218602143Y-65447200D01*
X218602143Y-65447200D02*
X218506905Y-65351961D01*
X218506905Y-65351961D02*
X218459286Y-65256723D01*
X218459286Y-65256723D02*
X218411667Y-65066247D01*
X218411667Y-65066247D02*
X218411667Y-64923390D01*
X218411667Y-64923390D02*
X218459286Y-64732914D01*
X218459286Y-64732914D02*
X218506905Y-64637676D01*
X218506905Y-64637676D02*
X218602143Y-64542438D01*
X218602143Y-64542438D02*
X218745000Y-64494819D01*
X218745000Y-64494819D02*
X218840238Y-64494819D01*
X218840238Y-64494819D02*
X218983095Y-64542438D01*
X218983095Y-64542438D02*
X219030714Y-64590057D01*
X219649762Y-64494819D02*
X219840238Y-64494819D01*
X219840238Y-64494819D02*
X219935476Y-64542438D01*
X219935476Y-64542438D02*
X220030714Y-64637676D01*
X220030714Y-64637676D02*
X220078333Y-64828152D01*
X220078333Y-64828152D02*
X220078333Y-65161485D01*
X220078333Y-65161485D02*
X220030714Y-65351961D01*
X220030714Y-65351961D02*
X219935476Y-65447200D01*
X219935476Y-65447200D02*
X219840238Y-65494819D01*
X219840238Y-65494819D02*
X219649762Y-65494819D01*
X219649762Y-65494819D02*
X219554524Y-65447200D01*
X219554524Y-65447200D02*
X219459286Y-65351961D01*
X219459286Y-65351961D02*
X219411667Y-65161485D01*
X219411667Y-65161485D02*
X219411667Y-64828152D01*
X219411667Y-64828152D02*
X219459286Y-64637676D01*
X219459286Y-64637676D02*
X219554524Y-64542438D01*
X219554524Y-64542438D02*
X219649762Y-64494819D01*
X220411667Y-64494819D02*
X221078333Y-65494819D01*
X221078333Y-64494819D02*
X220411667Y-65494819D01*
X221411667Y-65209104D02*
X221887857Y-65209104D01*
X221316429Y-65494819D02*
X221649762Y-64494819D01*
X221649762Y-64494819D02*
X221983095Y-65494819D01*
X222840238Y-65494819D02*
X222268810Y-65494819D01*
X222554524Y-65494819D02*
X222554524Y-64494819D01*
X222554524Y-64494819D02*
X222459286Y-64637676D01*
X222459286Y-64637676D02*
X222364048Y-64732914D01*
X222364048Y-64732914D02*
X222268810Y-64780533D01*
X185185952Y-49254819D02*
X185185952Y-49969104D01*
X185185952Y-49969104D02*
X185138333Y-50111961D01*
X185138333Y-50111961D02*
X185043095Y-50207200D01*
X185043095Y-50207200D02*
X184900238Y-50254819D01*
X184900238Y-50254819D02*
X184805000Y-50254819D01*
X185614524Y-49350057D02*
X185662143Y-49302438D01*
X185662143Y-49302438D02*
X185757381Y-49254819D01*
X185757381Y-49254819D02*
X185995476Y-49254819D01*
X185995476Y-49254819D02*
X186090714Y-49302438D01*
X186090714Y-49302438D02*
X186138333Y-49350057D01*
X186138333Y-49350057D02*
X186185952Y-49445295D01*
X186185952Y-49445295D02*
X186185952Y-49540533D01*
X186185952Y-49540533D02*
X186138333Y-49683390D01*
X186138333Y-49683390D02*
X185566905Y-50254819D01*
X185566905Y-50254819D02*
X186185952Y-50254819D01*
X186805000Y-49254819D02*
X186900238Y-49254819D01*
X186900238Y-49254819D02*
X186995476Y-49302438D01*
X186995476Y-49302438D02*
X187043095Y-49350057D01*
X187043095Y-49350057D02*
X187090714Y-49445295D01*
X187090714Y-49445295D02*
X187138333Y-49635771D01*
X187138333Y-49635771D02*
X187138333Y-49873866D01*
X187138333Y-49873866D02*
X187090714Y-50064342D01*
X187090714Y-50064342D02*
X187043095Y-50159580D01*
X187043095Y-50159580D02*
X186995476Y-50207200D01*
X186995476Y-50207200D02*
X186900238Y-50254819D01*
X186900238Y-50254819D02*
X186805000Y-50254819D01*
X186805000Y-50254819D02*
X186709762Y-50207200D01*
X186709762Y-50207200D02*
X186662143Y-50159580D01*
X186662143Y-50159580D02*
X186614524Y-50064342D01*
X186614524Y-50064342D02*
X186566905Y-49873866D01*
X186566905Y-49873866D02*
X186566905Y-49635771D01*
X186566905Y-49635771D02*
X186614524Y-49445295D01*
X186614524Y-49445295D02*
X186662143Y-49350057D01*
X186662143Y-49350057D02*
X186709762Y-49302438D01*
X186709762Y-49302438D02*
X186805000Y-49254819D01*
X187328810Y-50350057D02*
X188090714Y-50350057D01*
X188805000Y-50254819D02*
X188328810Y-50254819D01*
X188328810Y-50254819D02*
X188328810Y-49254819D01*
X189471667Y-49565295D02*
X189090715Y-49565295D01*
X189090715Y-49565295D02*
X189052619Y-49946247D01*
X189052619Y-49946247D02*
X189090715Y-49908152D01*
X189090715Y-49908152D02*
X189166905Y-49870057D01*
X189166905Y-49870057D02*
X189357381Y-49870057D01*
X189357381Y-49870057D02*
X189433572Y-49908152D01*
X189433572Y-49908152D02*
X189471667Y-49946247D01*
X189471667Y-49946247D02*
X189509762Y-50022438D01*
X189509762Y-50022438D02*
X189509762Y-50212914D01*
X189509762Y-50212914D02*
X189471667Y-50289104D01*
X189471667Y-50289104D02*
X189433572Y-50327200D01*
X189433572Y-50327200D02*
X189357381Y-50365295D01*
X189357381Y-50365295D02*
X189166905Y-50365295D01*
X189166905Y-50365295D02*
X189090715Y-50327200D01*
X189090715Y-50327200D02*
X189052619Y-50289104D01*
X189662144Y-50350057D02*
X190424048Y-50350057D01*
X190519287Y-49254819D02*
X191090715Y-49254819D01*
X190805001Y-50254819D02*
X190805001Y-49254819D01*
X191424049Y-50254819D02*
X191424049Y-49254819D01*
X192233572Y-49731009D02*
X192376429Y-49778628D01*
X192376429Y-49778628D02*
X192424048Y-49826247D01*
X192424048Y-49826247D02*
X192471667Y-49921485D01*
X192471667Y-49921485D02*
X192471667Y-50064342D01*
X192471667Y-50064342D02*
X192424048Y-50159580D01*
X192424048Y-50159580D02*
X192376429Y-50207200D01*
X192376429Y-50207200D02*
X192281191Y-50254819D01*
X192281191Y-50254819D02*
X191900239Y-50254819D01*
X191900239Y-50254819D02*
X191900239Y-49254819D01*
X191900239Y-49254819D02*
X192233572Y-49254819D01*
X192233572Y-49254819D02*
X192328810Y-49302438D01*
X192328810Y-49302438D02*
X192376429Y-49350057D01*
X192376429Y-49350057D02*
X192424048Y-49445295D01*
X192424048Y-49445295D02*
X192424048Y-49540533D01*
X192424048Y-49540533D02*
X192376429Y-49635771D01*
X192376429Y-49635771D02*
X192328810Y-49683390D01*
X192328810Y-49683390D02*
X192233572Y-49731009D01*
X192233572Y-49731009D02*
X191900239Y-49731009D01*
X192900239Y-50254819D02*
X192900239Y-49254819D01*
X193328810Y-49969104D02*
X193805000Y-49969104D01*
X193233572Y-50254819D02*
X193566905Y-49254819D01*
X193566905Y-49254819D02*
X193900238Y-50254819D01*
X194757381Y-50254819D02*
X194185953Y-50254819D01*
X194471667Y-50254819D02*
X194471667Y-49254819D01*
X194471667Y-49254819D02*
X194376429Y-49397676D01*
X194376429Y-49397676D02*
X194281191Y-49492914D01*
X194281191Y-49492914D02*
X194185953Y-49540533D01*
X174966666Y-118864819D02*
X174966666Y-119579104D01*
X174966666Y-119579104D02*
X174919047Y-119721961D01*
X174919047Y-119721961D02*
X174823809Y-119817200D01*
X174823809Y-119817200D02*
X174680952Y-119864819D01*
X174680952Y-119864819D02*
X174585714Y-119864819D01*
X175347619Y-118864819D02*
X175966666Y-118864819D01*
X175966666Y-118864819D02*
X175633333Y-119245771D01*
X175633333Y-119245771D02*
X175776190Y-119245771D01*
X175776190Y-119245771D02*
X175871428Y-119293390D01*
X175871428Y-119293390D02*
X175919047Y-119341009D01*
X175919047Y-119341009D02*
X175966666Y-119436247D01*
X175966666Y-119436247D02*
X175966666Y-119674342D01*
X175966666Y-119674342D02*
X175919047Y-119769580D01*
X175919047Y-119769580D02*
X175871428Y-119817200D01*
X175871428Y-119817200D02*
X175776190Y-119864819D01*
X175776190Y-119864819D02*
X175490476Y-119864819D01*
X175490476Y-119864819D02*
X175395238Y-119817200D01*
X175395238Y-119817200D02*
X175347619Y-119769580D01*
X165094879Y-76495033D02*
X165047260Y-76542653D01*
X165047260Y-76542653D02*
X164904403Y-76590272D01*
X164904403Y-76590272D02*
X164809165Y-76590272D01*
X164809165Y-76590272D02*
X164666308Y-76542653D01*
X164666308Y-76542653D02*
X164571070Y-76447414D01*
X164571070Y-76447414D02*
X164523451Y-76352176D01*
X164523451Y-76352176D02*
X164475832Y-76161700D01*
X164475832Y-76161700D02*
X164475832Y-76018843D01*
X164475832Y-76018843D02*
X164523451Y-75828367D01*
X164523451Y-75828367D02*
X164571070Y-75733129D01*
X164571070Y-75733129D02*
X164666308Y-75637891D01*
X164666308Y-75637891D02*
X164809165Y-75590272D01*
X164809165Y-75590272D02*
X164904403Y-75590272D01*
X164904403Y-75590272D02*
X165047260Y-75637891D01*
X165047260Y-75637891D02*
X165094879Y-75685510D01*
X166047260Y-76590272D02*
X165475832Y-76590272D01*
X165761546Y-76590272D02*
X165761546Y-75590272D01*
X165761546Y-75590272D02*
X165666308Y-75733129D01*
X165666308Y-75733129D02*
X165571070Y-75828367D01*
X165571070Y-75828367D02*
X165475832Y-75875986D01*
X160996666Y-118864819D02*
X160996666Y-119579104D01*
X160996666Y-119579104D02*
X160949047Y-119721961D01*
X160949047Y-119721961D02*
X160853809Y-119817200D01*
X160853809Y-119817200D02*
X160710952Y-119864819D01*
X160710952Y-119864819D02*
X160615714Y-119864819D01*
X161425238Y-118960057D02*
X161472857Y-118912438D01*
X161472857Y-118912438D02*
X161568095Y-118864819D01*
X161568095Y-118864819D02*
X161806190Y-118864819D01*
X161806190Y-118864819D02*
X161901428Y-118912438D01*
X161901428Y-118912438D02*
X161949047Y-118960057D01*
X161949047Y-118960057D02*
X161996666Y-119055295D01*
X161996666Y-119055295D02*
X161996666Y-119150533D01*
X161996666Y-119150533D02*
X161949047Y-119293390D01*
X161949047Y-119293390D02*
X161377619Y-119864819D01*
X161377619Y-119864819D02*
X161996666Y-119864819D01*
X135074819Y-134876905D02*
X135789104Y-134876905D01*
X135789104Y-134876905D02*
X135931961Y-134924524D01*
X135931961Y-134924524D02*
X136027200Y-135019762D01*
X136027200Y-135019762D02*
X136074819Y-135162619D01*
X136074819Y-135162619D02*
X136074819Y-135257857D01*
X136074819Y-133876905D02*
X136074819Y-134448333D01*
X136074819Y-134162619D02*
X135074819Y-134162619D01*
X135074819Y-134162619D02*
X135217676Y-134257857D01*
X135217676Y-134257857D02*
X135312914Y-134353095D01*
X135312914Y-134353095D02*
X135360533Y-134448333D01*
X135074819Y-133257857D02*
X135074819Y-133162619D01*
X135074819Y-133162619D02*
X135122438Y-133067381D01*
X135122438Y-133067381D02*
X135170057Y-133019762D01*
X135170057Y-133019762D02*
X135265295Y-132972143D01*
X135265295Y-132972143D02*
X135455771Y-132924524D01*
X135455771Y-132924524D02*
X135693866Y-132924524D01*
X135693866Y-132924524D02*
X135884342Y-132972143D01*
X135884342Y-132972143D02*
X135979580Y-133019762D01*
X135979580Y-133019762D02*
X136027200Y-133067381D01*
X136027200Y-133067381D02*
X136074819Y-133162619D01*
X136074819Y-133162619D02*
X136074819Y-133257857D01*
X136074819Y-133257857D02*
X136027200Y-133353095D01*
X136027200Y-133353095D02*
X135979580Y-133400714D01*
X135979580Y-133400714D02*
X135884342Y-133448333D01*
X135884342Y-133448333D02*
X135693866Y-133495952D01*
X135693866Y-133495952D02*
X135455771Y-133495952D01*
X135455771Y-133495952D02*
X135265295Y-133448333D01*
X135265295Y-133448333D02*
X135170057Y-133400714D01*
X135170057Y-133400714D02*
X135122438Y-133353095D01*
X135122438Y-133353095D02*
X135074819Y-133257857D01*
X136170057Y-132734048D02*
X136170057Y-131972143D01*
X136074819Y-131257857D02*
X136074819Y-131734047D01*
X136074819Y-131734047D02*
X135074819Y-131734047D01*
X135385295Y-131048333D02*
X135385295Y-130553095D01*
X135385295Y-130553095D02*
X135690057Y-130819761D01*
X135690057Y-130819761D02*
X135690057Y-130705476D01*
X135690057Y-130705476D02*
X135728152Y-130629285D01*
X135728152Y-130629285D02*
X135766247Y-130591190D01*
X135766247Y-130591190D02*
X135842438Y-130553095D01*
X135842438Y-130553095D02*
X136032914Y-130553095D01*
X136032914Y-130553095D02*
X136109104Y-130591190D01*
X136109104Y-130591190D02*
X136147200Y-130629285D01*
X136147200Y-130629285D02*
X136185295Y-130705476D01*
X136185295Y-130705476D02*
X136185295Y-130934047D01*
X136185295Y-130934047D02*
X136147200Y-131010238D01*
X136147200Y-131010238D02*
X136109104Y-131048333D01*
X136170057Y-130400714D02*
X136170057Y-129638809D01*
X135979580Y-128829285D02*
X136027200Y-128876904D01*
X136027200Y-128876904D02*
X136074819Y-129019761D01*
X136074819Y-129019761D02*
X136074819Y-129114999D01*
X136074819Y-129114999D02*
X136027200Y-129257856D01*
X136027200Y-129257856D02*
X135931961Y-129353094D01*
X135931961Y-129353094D02*
X135836723Y-129400713D01*
X135836723Y-129400713D02*
X135646247Y-129448332D01*
X135646247Y-129448332D02*
X135503390Y-129448332D01*
X135503390Y-129448332D02*
X135312914Y-129400713D01*
X135312914Y-129400713D02*
X135217676Y-129353094D01*
X135217676Y-129353094D02*
X135122438Y-129257856D01*
X135122438Y-129257856D02*
X135074819Y-129114999D01*
X135074819Y-129114999D02*
X135074819Y-129019761D01*
X135074819Y-129019761D02*
X135122438Y-128876904D01*
X135122438Y-128876904D02*
X135170057Y-128829285D01*
X135074819Y-128210237D02*
X135074819Y-128019761D01*
X135074819Y-128019761D02*
X135122438Y-127924523D01*
X135122438Y-127924523D02*
X135217676Y-127829285D01*
X135217676Y-127829285D02*
X135408152Y-127781666D01*
X135408152Y-127781666D02*
X135741485Y-127781666D01*
X135741485Y-127781666D02*
X135931961Y-127829285D01*
X135931961Y-127829285D02*
X136027200Y-127924523D01*
X136027200Y-127924523D02*
X136074819Y-128019761D01*
X136074819Y-128019761D02*
X136074819Y-128210237D01*
X136074819Y-128210237D02*
X136027200Y-128305475D01*
X136027200Y-128305475D02*
X135931961Y-128400713D01*
X135931961Y-128400713D02*
X135741485Y-128448332D01*
X135741485Y-128448332D02*
X135408152Y-128448332D01*
X135408152Y-128448332D02*
X135217676Y-128400713D01*
X135217676Y-128400713D02*
X135122438Y-128305475D01*
X135122438Y-128305475D02*
X135074819Y-128210237D01*
X135074819Y-127448332D02*
X136074819Y-126781666D01*
X135074819Y-126781666D02*
X136074819Y-127448332D01*
X135789104Y-126448332D02*
X135789104Y-125972142D01*
X136074819Y-126543570D02*
X135074819Y-126210237D01*
X135074819Y-126210237D02*
X136074819Y-125876904D01*
X136074819Y-125019761D02*
X136074819Y-125591189D01*
X136074819Y-125305475D02*
X135074819Y-125305475D01*
X135074819Y-125305475D02*
X135217676Y-125400713D01*
X135217676Y-125400713D02*
X135312914Y-125495951D01*
X135312914Y-125495951D02*
X135360533Y-125591189D01*
X165346666Y-61684819D02*
X165346666Y-62399104D01*
X165346666Y-62399104D02*
X165299047Y-62541961D01*
X165299047Y-62541961D02*
X165203809Y-62637200D01*
X165203809Y-62637200D02*
X165060952Y-62684819D01*
X165060952Y-62684819D02*
X164965714Y-62684819D01*
X165965714Y-62113390D02*
X165870476Y-62065771D01*
X165870476Y-62065771D02*
X165822857Y-62018152D01*
X165822857Y-62018152D02*
X165775238Y-61922914D01*
X165775238Y-61922914D02*
X165775238Y-61875295D01*
X165775238Y-61875295D02*
X165822857Y-61780057D01*
X165822857Y-61780057D02*
X165870476Y-61732438D01*
X165870476Y-61732438D02*
X165965714Y-61684819D01*
X165965714Y-61684819D02*
X166156190Y-61684819D01*
X166156190Y-61684819D02*
X166251428Y-61732438D01*
X166251428Y-61732438D02*
X166299047Y-61780057D01*
X166299047Y-61780057D02*
X166346666Y-61875295D01*
X166346666Y-61875295D02*
X166346666Y-61922914D01*
X166346666Y-61922914D02*
X166299047Y-62018152D01*
X166299047Y-62018152D02*
X166251428Y-62065771D01*
X166251428Y-62065771D02*
X166156190Y-62113390D01*
X166156190Y-62113390D02*
X165965714Y-62113390D01*
X165965714Y-62113390D02*
X165870476Y-62161009D01*
X165870476Y-62161009D02*
X165822857Y-62208628D01*
X165822857Y-62208628D02*
X165775238Y-62303866D01*
X165775238Y-62303866D02*
X165775238Y-62494342D01*
X165775238Y-62494342D02*
X165822857Y-62589580D01*
X165822857Y-62589580D02*
X165870476Y-62637200D01*
X165870476Y-62637200D02*
X165965714Y-62684819D01*
X165965714Y-62684819D02*
X166156190Y-62684819D01*
X166156190Y-62684819D02*
X166251428Y-62637200D01*
X166251428Y-62637200D02*
X166299047Y-62589580D01*
X166299047Y-62589580D02*
X166346666Y-62494342D01*
X166346666Y-62494342D02*
X166346666Y-62303866D01*
X166346666Y-62303866D02*
X166299047Y-62208628D01*
X166299047Y-62208628D02*
X166251428Y-62161009D01*
X166251428Y-62161009D02*
X166156190Y-62113390D01*
X166537143Y-62780057D02*
X167299047Y-62780057D01*
X168013333Y-62684819D02*
X167537143Y-62684819D01*
X167537143Y-62684819D02*
X167537143Y-61684819D01*
X168260952Y-62071485D02*
X168299048Y-62033390D01*
X168299048Y-62033390D02*
X168375238Y-61995295D01*
X168375238Y-61995295D02*
X168565714Y-61995295D01*
X168565714Y-61995295D02*
X168641905Y-62033390D01*
X168641905Y-62033390D02*
X168680000Y-62071485D01*
X168680000Y-62071485D02*
X168718095Y-62147676D01*
X168718095Y-62147676D02*
X168718095Y-62223866D01*
X168718095Y-62223866D02*
X168680000Y-62338152D01*
X168680000Y-62338152D02*
X168222857Y-62795295D01*
X168222857Y-62795295D02*
X168718095Y-62795295D01*
X168870477Y-62780057D02*
X169632381Y-62780057D01*
X170203810Y-62161009D02*
X169870477Y-62161009D01*
X169870477Y-62684819D02*
X169870477Y-61684819D01*
X169870477Y-61684819D02*
X170346667Y-61684819D01*
X170727620Y-62161009D02*
X171060953Y-62161009D01*
X171203810Y-62684819D02*
X170727620Y-62684819D01*
X170727620Y-62684819D02*
X170727620Y-61684819D01*
X170727620Y-61684819D02*
X171203810Y-61684819D01*
X171632382Y-62684819D02*
X171632382Y-61684819D01*
X171632382Y-61684819D02*
X171965715Y-62399104D01*
X171965715Y-62399104D02*
X172299048Y-61684819D01*
X172299048Y-61684819D02*
X172299048Y-62684819D01*
X172775239Y-61684819D02*
X172775239Y-62494342D01*
X172775239Y-62494342D02*
X172822858Y-62589580D01*
X172822858Y-62589580D02*
X172870477Y-62637200D01*
X172870477Y-62637200D02*
X172965715Y-62684819D01*
X172965715Y-62684819D02*
X173156191Y-62684819D01*
X173156191Y-62684819D02*
X173251429Y-62637200D01*
X173251429Y-62637200D02*
X173299048Y-62589580D01*
X173299048Y-62589580D02*
X173346667Y-62494342D01*
X173346667Y-62494342D02*
X173346667Y-61684819D01*
X174394286Y-62684819D02*
X174060953Y-62208628D01*
X173822858Y-62684819D02*
X173822858Y-61684819D01*
X173822858Y-61684819D02*
X174203810Y-61684819D01*
X174203810Y-61684819D02*
X174299048Y-61732438D01*
X174299048Y-61732438D02*
X174346667Y-61780057D01*
X174346667Y-61780057D02*
X174394286Y-61875295D01*
X174394286Y-61875295D02*
X174394286Y-62018152D01*
X174394286Y-62018152D02*
X174346667Y-62113390D01*
X174346667Y-62113390D02*
X174299048Y-62161009D01*
X174299048Y-62161009D02*
X174203810Y-62208628D01*
X174203810Y-62208628D02*
X173822858Y-62208628D01*
X175346667Y-62684819D02*
X174775239Y-62684819D01*
X175060953Y-62684819D02*
X175060953Y-61684819D01*
X175060953Y-61684819D02*
X174965715Y-61827676D01*
X174965715Y-61827676D02*
X174870477Y-61922914D01*
X174870477Y-61922914D02*
X174775239Y-61970533D01*
X215084819Y-135424524D02*
X215799104Y-135424524D01*
X215799104Y-135424524D02*
X215941961Y-135472143D01*
X215941961Y-135472143D02*
X216037200Y-135567381D01*
X216037200Y-135567381D02*
X216084819Y-135710238D01*
X216084819Y-135710238D02*
X216084819Y-135805476D01*
X216084819Y-134424524D02*
X216084819Y-134995952D01*
X216084819Y-134710238D02*
X215084819Y-134710238D01*
X215084819Y-134710238D02*
X215227676Y-134805476D01*
X215227676Y-134805476D02*
X215322914Y-134900714D01*
X215322914Y-134900714D02*
X215370533Y-134995952D01*
X215084819Y-134091190D02*
X215084819Y-133472143D01*
X215084819Y-133472143D02*
X215465771Y-133805476D01*
X215465771Y-133805476D02*
X215465771Y-133662619D01*
X215465771Y-133662619D02*
X215513390Y-133567381D01*
X215513390Y-133567381D02*
X215561009Y-133519762D01*
X215561009Y-133519762D02*
X215656247Y-133472143D01*
X215656247Y-133472143D02*
X215894342Y-133472143D01*
X215894342Y-133472143D02*
X215989580Y-133519762D01*
X215989580Y-133519762D02*
X216037200Y-133567381D01*
X216037200Y-133567381D02*
X216084819Y-133662619D01*
X216084819Y-133662619D02*
X216084819Y-133948333D01*
X216084819Y-133948333D02*
X216037200Y-134043571D01*
X216037200Y-134043571D02*
X215989580Y-134091190D01*
X216180057Y-133281667D02*
X216180057Y-132519762D01*
X216084819Y-131805476D02*
X216084819Y-132281666D01*
X216084819Y-132281666D02*
X215084819Y-132281666D01*
X215661961Y-131176904D02*
X216195295Y-131176904D01*
X215357200Y-131367380D02*
X215928628Y-131557857D01*
X215928628Y-131557857D02*
X215928628Y-131062618D01*
X216180057Y-130948333D02*
X216180057Y-130186428D01*
X215561009Y-129614999D02*
X215561009Y-129948332D01*
X216084819Y-129948332D02*
X215084819Y-129948332D01*
X215084819Y-129948332D02*
X215084819Y-129472142D01*
X215561009Y-129091189D02*
X215561009Y-128757856D01*
X216084819Y-128614999D02*
X216084819Y-129091189D01*
X216084819Y-129091189D02*
X215084819Y-129091189D01*
X215084819Y-129091189D02*
X215084819Y-128614999D01*
X216084819Y-128186427D02*
X215084819Y-128186427D01*
X215084819Y-128186427D02*
X215799104Y-127853094D01*
X215799104Y-127853094D02*
X215084819Y-127519761D01*
X215084819Y-127519761D02*
X216084819Y-127519761D01*
X215084819Y-127043570D02*
X215894342Y-127043570D01*
X215894342Y-127043570D02*
X215989580Y-126995951D01*
X215989580Y-126995951D02*
X216037200Y-126948332D01*
X216037200Y-126948332D02*
X216084819Y-126853094D01*
X216084819Y-126853094D02*
X216084819Y-126662618D01*
X216084819Y-126662618D02*
X216037200Y-126567380D01*
X216037200Y-126567380D02*
X215989580Y-126519761D01*
X215989580Y-126519761D02*
X215894342Y-126472142D01*
X215894342Y-126472142D02*
X215084819Y-126472142D01*
X216084819Y-125424523D02*
X215608628Y-125757856D01*
X216084819Y-125995951D02*
X215084819Y-125995951D01*
X215084819Y-125995951D02*
X215084819Y-125614999D01*
X215084819Y-125614999D02*
X215132438Y-125519761D01*
X215132438Y-125519761D02*
X215180057Y-125472142D01*
X215180057Y-125472142D02*
X215275295Y-125424523D01*
X215275295Y-125424523D02*
X215418152Y-125424523D01*
X215418152Y-125424523D02*
X215513390Y-125472142D01*
X215513390Y-125472142D02*
X215561009Y-125519761D01*
X215561009Y-125519761D02*
X215608628Y-125614999D01*
X215608628Y-125614999D02*
X215608628Y-125995951D01*
X216084819Y-124472142D02*
X216084819Y-125043570D01*
X216084819Y-124757856D02*
X215084819Y-124757856D01*
X215084819Y-124757856D02*
X215227676Y-124853094D01*
X215227676Y-124853094D02*
X215322914Y-124948332D01*
X215322914Y-124948332D02*
X215370533Y-125043570D01*
X139849819Y-74135714D02*
X140564104Y-74135714D01*
X140564104Y-74135714D02*
X140706961Y-74183333D01*
X140706961Y-74183333D02*
X140802200Y-74278571D01*
X140802200Y-74278571D02*
X140849819Y-74421428D01*
X140849819Y-74421428D02*
X140849819Y-74516666D01*
X140849819Y-73135714D02*
X140849819Y-73707142D01*
X140849819Y-73421428D02*
X139849819Y-73421428D01*
X139849819Y-73421428D02*
X139992676Y-73516666D01*
X139992676Y-73516666D02*
X140087914Y-73611904D01*
X140087914Y-73611904D02*
X140135533Y-73707142D01*
X140945057Y-72945238D02*
X140945057Y-72183333D01*
X140849819Y-71469047D02*
X140849819Y-71945237D01*
X140849819Y-71945237D02*
X139849819Y-71945237D01*
X140960295Y-70764285D02*
X140960295Y-71221428D01*
X140960295Y-70992856D02*
X140160295Y-70992856D01*
X140160295Y-70992856D02*
X140274580Y-71069047D01*
X140274580Y-71069047D02*
X140350771Y-71145237D01*
X140350771Y-71145237D02*
X140388866Y-71221428D01*
X140945057Y-70611904D02*
X140945057Y-69849999D01*
X140754580Y-69040475D02*
X140802200Y-69088094D01*
X140802200Y-69088094D02*
X140849819Y-69230951D01*
X140849819Y-69230951D02*
X140849819Y-69326189D01*
X140849819Y-69326189D02*
X140802200Y-69469046D01*
X140802200Y-69469046D02*
X140706961Y-69564284D01*
X140706961Y-69564284D02*
X140611723Y-69611903D01*
X140611723Y-69611903D02*
X140421247Y-69659522D01*
X140421247Y-69659522D02*
X140278390Y-69659522D01*
X140278390Y-69659522D02*
X140087914Y-69611903D01*
X140087914Y-69611903D02*
X139992676Y-69564284D01*
X139992676Y-69564284D02*
X139897438Y-69469046D01*
X139897438Y-69469046D02*
X139849819Y-69326189D01*
X139849819Y-69326189D02*
X139849819Y-69230951D01*
X139849819Y-69230951D02*
X139897438Y-69088094D01*
X139897438Y-69088094D02*
X139945057Y-69040475D01*
X139849819Y-68421427D02*
X139849819Y-68230951D01*
X139849819Y-68230951D02*
X139897438Y-68135713D01*
X139897438Y-68135713D02*
X139992676Y-68040475D01*
X139992676Y-68040475D02*
X140183152Y-67992856D01*
X140183152Y-67992856D02*
X140516485Y-67992856D01*
X140516485Y-67992856D02*
X140706961Y-68040475D01*
X140706961Y-68040475D02*
X140802200Y-68135713D01*
X140802200Y-68135713D02*
X140849819Y-68230951D01*
X140849819Y-68230951D02*
X140849819Y-68421427D01*
X140849819Y-68421427D02*
X140802200Y-68516665D01*
X140802200Y-68516665D02*
X140706961Y-68611903D01*
X140706961Y-68611903D02*
X140516485Y-68659522D01*
X140516485Y-68659522D02*
X140183152Y-68659522D01*
X140183152Y-68659522D02*
X139992676Y-68611903D01*
X139992676Y-68611903D02*
X139897438Y-68516665D01*
X139897438Y-68516665D02*
X139849819Y-68421427D01*
X139849819Y-67659522D02*
X140849819Y-66992856D01*
X139849819Y-66992856D02*
X140849819Y-67659522D01*
X140564104Y-66659522D02*
X140564104Y-66183332D01*
X140849819Y-66754760D02*
X139849819Y-66421427D01*
X139849819Y-66421427D02*
X140849819Y-66088094D01*
X140849819Y-65230951D02*
X140849819Y-65802379D01*
X140849819Y-65516665D02*
X139849819Y-65516665D01*
X139849819Y-65516665D02*
X139992676Y-65611903D01*
X139992676Y-65611903D02*
X140087914Y-65707141D01*
X140087914Y-65707141D02*
X140135533Y-65802379D01*
X142694819Y-135424524D02*
X143409104Y-135424524D01*
X143409104Y-135424524D02*
X143551961Y-135472143D01*
X143551961Y-135472143D02*
X143647200Y-135567381D01*
X143647200Y-135567381D02*
X143694819Y-135710238D01*
X143694819Y-135710238D02*
X143694819Y-135805476D01*
X143694819Y-134424524D02*
X143694819Y-134995952D01*
X143694819Y-134710238D02*
X142694819Y-134710238D01*
X142694819Y-134710238D02*
X142837676Y-134805476D01*
X142837676Y-134805476D02*
X142932914Y-134900714D01*
X142932914Y-134900714D02*
X142980533Y-134995952D01*
X142790057Y-134043571D02*
X142742438Y-133995952D01*
X142742438Y-133995952D02*
X142694819Y-133900714D01*
X142694819Y-133900714D02*
X142694819Y-133662619D01*
X142694819Y-133662619D02*
X142742438Y-133567381D01*
X142742438Y-133567381D02*
X142790057Y-133519762D01*
X142790057Y-133519762D02*
X142885295Y-133472143D01*
X142885295Y-133472143D02*
X142980533Y-133472143D01*
X142980533Y-133472143D02*
X143123390Y-133519762D01*
X143123390Y-133519762D02*
X143694819Y-134091190D01*
X143694819Y-134091190D02*
X143694819Y-133472143D01*
X143790057Y-133281667D02*
X143790057Y-132519762D01*
X143694819Y-131805476D02*
X143694819Y-132281666D01*
X143694819Y-132281666D02*
X142694819Y-132281666D01*
X143005295Y-131595952D02*
X143005295Y-131100714D01*
X143005295Y-131100714D02*
X143310057Y-131367380D01*
X143310057Y-131367380D02*
X143310057Y-131253095D01*
X143310057Y-131253095D02*
X143348152Y-131176904D01*
X143348152Y-131176904D02*
X143386247Y-131138809D01*
X143386247Y-131138809D02*
X143462438Y-131100714D01*
X143462438Y-131100714D02*
X143652914Y-131100714D01*
X143652914Y-131100714D02*
X143729104Y-131138809D01*
X143729104Y-131138809D02*
X143767200Y-131176904D01*
X143767200Y-131176904D02*
X143805295Y-131253095D01*
X143805295Y-131253095D02*
X143805295Y-131481666D01*
X143805295Y-131481666D02*
X143767200Y-131557857D01*
X143767200Y-131557857D02*
X143729104Y-131595952D01*
X143790057Y-130948333D02*
X143790057Y-130186428D01*
X143171009Y-129614999D02*
X143171009Y-129948332D01*
X143694819Y-129948332D02*
X142694819Y-129948332D01*
X142694819Y-129948332D02*
X142694819Y-129472142D01*
X143171009Y-129091189D02*
X143171009Y-128757856D01*
X143694819Y-128614999D02*
X143694819Y-129091189D01*
X143694819Y-129091189D02*
X142694819Y-129091189D01*
X142694819Y-129091189D02*
X142694819Y-128614999D01*
X143694819Y-128186427D02*
X142694819Y-128186427D01*
X142694819Y-128186427D02*
X143409104Y-127853094D01*
X143409104Y-127853094D02*
X142694819Y-127519761D01*
X142694819Y-127519761D02*
X143694819Y-127519761D01*
X142694819Y-127043570D02*
X143504342Y-127043570D01*
X143504342Y-127043570D02*
X143599580Y-126995951D01*
X143599580Y-126995951D02*
X143647200Y-126948332D01*
X143647200Y-126948332D02*
X143694819Y-126853094D01*
X143694819Y-126853094D02*
X143694819Y-126662618D01*
X143694819Y-126662618D02*
X143647200Y-126567380D01*
X143647200Y-126567380D02*
X143599580Y-126519761D01*
X143599580Y-126519761D02*
X143504342Y-126472142D01*
X143504342Y-126472142D02*
X142694819Y-126472142D01*
X143694819Y-125424523D02*
X143218628Y-125757856D01*
X143694819Y-125995951D02*
X142694819Y-125995951D01*
X142694819Y-125995951D02*
X142694819Y-125614999D01*
X142694819Y-125614999D02*
X142742438Y-125519761D01*
X142742438Y-125519761D02*
X142790057Y-125472142D01*
X142790057Y-125472142D02*
X142885295Y-125424523D01*
X142885295Y-125424523D02*
X143028152Y-125424523D01*
X143028152Y-125424523D02*
X143123390Y-125472142D01*
X143123390Y-125472142D02*
X143171009Y-125519761D01*
X143171009Y-125519761D02*
X143218628Y-125614999D01*
X143218628Y-125614999D02*
X143218628Y-125995951D01*
X143694819Y-124472142D02*
X143694819Y-125043570D01*
X143694819Y-124757856D02*
X142694819Y-124757856D01*
X142694819Y-124757856D02*
X142837676Y-124853094D01*
X142837676Y-124853094D02*
X142932914Y-124948332D01*
X142932914Y-124948332D02*
X142980533Y-125043570D01*
X186316666Y-118864819D02*
X186316666Y-119579104D01*
X186316666Y-119579104D02*
X186269047Y-119721961D01*
X186269047Y-119721961D02*
X186173809Y-119817200D01*
X186173809Y-119817200D02*
X186030952Y-119864819D01*
X186030952Y-119864819D02*
X185935714Y-119864819D01*
X187221428Y-119198152D02*
X187221428Y-119864819D01*
X186983333Y-118817200D02*
X186745238Y-119531485D01*
X186745238Y-119531485D02*
X187364285Y-119531485D01*
X185043094Y-64494819D02*
X185043094Y-65209104D01*
X185043094Y-65209104D02*
X184995475Y-65351961D01*
X184995475Y-65351961D02*
X184900237Y-65447200D01*
X184900237Y-65447200D02*
X184757380Y-65494819D01*
X184757380Y-65494819D02*
X184662142Y-65494819D01*
X186043094Y-65494819D02*
X185471666Y-65494819D01*
X185757380Y-65494819D02*
X185757380Y-64494819D01*
X185757380Y-64494819D02*
X185662142Y-64637676D01*
X185662142Y-64637676D02*
X185566904Y-64732914D01*
X185566904Y-64732914D02*
X185471666Y-64780533D01*
X186900237Y-64494819D02*
X186709761Y-64494819D01*
X186709761Y-64494819D02*
X186614523Y-64542438D01*
X186614523Y-64542438D02*
X186566904Y-64590057D01*
X186566904Y-64590057D02*
X186471666Y-64732914D01*
X186471666Y-64732914D02*
X186424047Y-64923390D01*
X186424047Y-64923390D02*
X186424047Y-65304342D01*
X186424047Y-65304342D02*
X186471666Y-65399580D01*
X186471666Y-65399580D02*
X186519285Y-65447200D01*
X186519285Y-65447200D02*
X186614523Y-65494819D01*
X186614523Y-65494819D02*
X186804999Y-65494819D01*
X186804999Y-65494819D02*
X186900237Y-65447200D01*
X186900237Y-65447200D02*
X186947856Y-65399580D01*
X186947856Y-65399580D02*
X186995475Y-65304342D01*
X186995475Y-65304342D02*
X186995475Y-65066247D01*
X186995475Y-65066247D02*
X186947856Y-64971009D01*
X186947856Y-64971009D02*
X186900237Y-64923390D01*
X186900237Y-64923390D02*
X186804999Y-64875771D01*
X186804999Y-64875771D02*
X186614523Y-64875771D01*
X186614523Y-64875771D02*
X186519285Y-64923390D01*
X186519285Y-64923390D02*
X186471666Y-64971009D01*
X186471666Y-64971009D02*
X186424047Y-65066247D01*
X187185952Y-65590057D02*
X187947856Y-65590057D01*
X188662142Y-65494819D02*
X188185952Y-65494819D01*
X188185952Y-65494819D02*
X188185952Y-64494819D01*
X189328809Y-64805295D02*
X188947857Y-64805295D01*
X188947857Y-64805295D02*
X188909761Y-65186247D01*
X188909761Y-65186247D02*
X188947857Y-65148152D01*
X188947857Y-65148152D02*
X189024047Y-65110057D01*
X189024047Y-65110057D02*
X189214523Y-65110057D01*
X189214523Y-65110057D02*
X189290714Y-65148152D01*
X189290714Y-65148152D02*
X189328809Y-65186247D01*
X189328809Y-65186247D02*
X189366904Y-65262438D01*
X189366904Y-65262438D02*
X189366904Y-65452914D01*
X189366904Y-65452914D02*
X189328809Y-65529104D01*
X189328809Y-65529104D02*
X189290714Y-65567200D01*
X189290714Y-65567200D02*
X189214523Y-65605295D01*
X189214523Y-65605295D02*
X189024047Y-65605295D01*
X189024047Y-65605295D02*
X188947857Y-65567200D01*
X188947857Y-65567200D02*
X188909761Y-65529104D01*
X189519286Y-65590057D02*
X190281190Y-65590057D01*
X191090714Y-65399580D02*
X191043095Y-65447200D01*
X191043095Y-65447200D02*
X190900238Y-65494819D01*
X190900238Y-65494819D02*
X190805000Y-65494819D01*
X190805000Y-65494819D02*
X190662143Y-65447200D01*
X190662143Y-65447200D02*
X190566905Y-65351961D01*
X190566905Y-65351961D02*
X190519286Y-65256723D01*
X190519286Y-65256723D02*
X190471667Y-65066247D01*
X190471667Y-65066247D02*
X190471667Y-64923390D01*
X190471667Y-64923390D02*
X190519286Y-64732914D01*
X190519286Y-64732914D02*
X190566905Y-64637676D01*
X190566905Y-64637676D02*
X190662143Y-64542438D01*
X190662143Y-64542438D02*
X190805000Y-64494819D01*
X190805000Y-64494819D02*
X190900238Y-64494819D01*
X190900238Y-64494819D02*
X191043095Y-64542438D01*
X191043095Y-64542438D02*
X191090714Y-64590057D01*
X191709762Y-64494819D02*
X191900238Y-64494819D01*
X191900238Y-64494819D02*
X191995476Y-64542438D01*
X191995476Y-64542438D02*
X192090714Y-64637676D01*
X192090714Y-64637676D02*
X192138333Y-64828152D01*
X192138333Y-64828152D02*
X192138333Y-65161485D01*
X192138333Y-65161485D02*
X192090714Y-65351961D01*
X192090714Y-65351961D02*
X191995476Y-65447200D01*
X191995476Y-65447200D02*
X191900238Y-65494819D01*
X191900238Y-65494819D02*
X191709762Y-65494819D01*
X191709762Y-65494819D02*
X191614524Y-65447200D01*
X191614524Y-65447200D02*
X191519286Y-65351961D01*
X191519286Y-65351961D02*
X191471667Y-65161485D01*
X191471667Y-65161485D02*
X191471667Y-64828152D01*
X191471667Y-64828152D02*
X191519286Y-64637676D01*
X191519286Y-64637676D02*
X191614524Y-64542438D01*
X191614524Y-64542438D02*
X191709762Y-64494819D01*
X192471667Y-64494819D02*
X193138333Y-65494819D01*
X193138333Y-64494819D02*
X192471667Y-65494819D01*
X193471667Y-65209104D02*
X193947857Y-65209104D01*
X193376429Y-65494819D02*
X193709762Y-64494819D01*
X193709762Y-64494819D02*
X194043095Y-65494819D01*
X194900238Y-65494819D02*
X194328810Y-65494819D01*
X194614524Y-65494819D02*
X194614524Y-64494819D01*
X194614524Y-64494819D02*
X194519286Y-64637676D01*
X194519286Y-64637676D02*
X194424048Y-64732914D01*
X194424048Y-64732914D02*
X194328810Y-64780533D01*
X207464819Y-134876905D02*
X208179104Y-134876905D01*
X208179104Y-134876905D02*
X208321961Y-134924524D01*
X208321961Y-134924524D02*
X208417200Y-135019762D01*
X208417200Y-135019762D02*
X208464819Y-135162619D01*
X208464819Y-135162619D02*
X208464819Y-135257857D01*
X208464819Y-133876905D02*
X208464819Y-134448333D01*
X208464819Y-134162619D02*
X207464819Y-134162619D01*
X207464819Y-134162619D02*
X207607676Y-134257857D01*
X207607676Y-134257857D02*
X207702914Y-134353095D01*
X207702914Y-134353095D02*
X207750533Y-134448333D01*
X208464819Y-132924524D02*
X208464819Y-133495952D01*
X208464819Y-133210238D02*
X207464819Y-133210238D01*
X207464819Y-133210238D02*
X207607676Y-133305476D01*
X207607676Y-133305476D02*
X207702914Y-133400714D01*
X207702914Y-133400714D02*
X207750533Y-133495952D01*
X208560057Y-132734048D02*
X208560057Y-131972143D01*
X208464819Y-131257857D02*
X208464819Y-131734047D01*
X208464819Y-131734047D02*
X207464819Y-131734047D01*
X208041961Y-130629285D02*
X208575295Y-130629285D01*
X207737200Y-130819761D02*
X208308628Y-131010238D01*
X208308628Y-131010238D02*
X208308628Y-130514999D01*
X208560057Y-130400714D02*
X208560057Y-129638809D01*
X208369580Y-128829285D02*
X208417200Y-128876904D01*
X208417200Y-128876904D02*
X208464819Y-129019761D01*
X208464819Y-129019761D02*
X208464819Y-129114999D01*
X208464819Y-129114999D02*
X208417200Y-129257856D01*
X208417200Y-129257856D02*
X208321961Y-129353094D01*
X208321961Y-129353094D02*
X208226723Y-129400713D01*
X208226723Y-129400713D02*
X208036247Y-129448332D01*
X208036247Y-129448332D02*
X207893390Y-129448332D01*
X207893390Y-129448332D02*
X207702914Y-129400713D01*
X207702914Y-129400713D02*
X207607676Y-129353094D01*
X207607676Y-129353094D02*
X207512438Y-129257856D01*
X207512438Y-129257856D02*
X207464819Y-129114999D01*
X207464819Y-129114999D02*
X207464819Y-129019761D01*
X207464819Y-129019761D02*
X207512438Y-128876904D01*
X207512438Y-128876904D02*
X207560057Y-128829285D01*
X207464819Y-128210237D02*
X207464819Y-128019761D01*
X207464819Y-128019761D02*
X207512438Y-127924523D01*
X207512438Y-127924523D02*
X207607676Y-127829285D01*
X207607676Y-127829285D02*
X207798152Y-127781666D01*
X207798152Y-127781666D02*
X208131485Y-127781666D01*
X208131485Y-127781666D02*
X208321961Y-127829285D01*
X208321961Y-127829285D02*
X208417200Y-127924523D01*
X208417200Y-127924523D02*
X208464819Y-128019761D01*
X208464819Y-128019761D02*
X208464819Y-128210237D01*
X208464819Y-128210237D02*
X208417200Y-128305475D01*
X208417200Y-128305475D02*
X208321961Y-128400713D01*
X208321961Y-128400713D02*
X208131485Y-128448332D01*
X208131485Y-128448332D02*
X207798152Y-128448332D01*
X207798152Y-128448332D02*
X207607676Y-128400713D01*
X207607676Y-128400713D02*
X207512438Y-128305475D01*
X207512438Y-128305475D02*
X207464819Y-128210237D01*
X207464819Y-127448332D02*
X208464819Y-126781666D01*
X207464819Y-126781666D02*
X208464819Y-127448332D01*
X208179104Y-126448332D02*
X208179104Y-125972142D01*
X208464819Y-126543570D02*
X207464819Y-126210237D01*
X207464819Y-126210237D02*
X208464819Y-125876904D01*
X208464819Y-125019761D02*
X208464819Y-125591189D01*
X208464819Y-125305475D02*
X207464819Y-125305475D01*
X207464819Y-125305475D02*
X207607676Y-125400713D01*
X207607676Y-125400713D02*
X207702914Y-125495951D01*
X207702914Y-125495951D02*
X207750533Y-125591189D01*
X139849819Y-58752857D02*
X140564104Y-58752857D01*
X140564104Y-58752857D02*
X140706961Y-58800476D01*
X140706961Y-58800476D02*
X140802200Y-58895714D01*
X140802200Y-58895714D02*
X140849819Y-59038571D01*
X140849819Y-59038571D02*
X140849819Y-59133809D01*
X139849819Y-57848095D02*
X139849819Y-58038571D01*
X139849819Y-58038571D02*
X139897438Y-58133809D01*
X139897438Y-58133809D02*
X139945057Y-58181428D01*
X139945057Y-58181428D02*
X140087914Y-58276666D01*
X140087914Y-58276666D02*
X140278390Y-58324285D01*
X140278390Y-58324285D02*
X140659342Y-58324285D01*
X140659342Y-58324285D02*
X140754580Y-58276666D01*
X140754580Y-58276666D02*
X140802200Y-58229047D01*
X140802200Y-58229047D02*
X140849819Y-58133809D01*
X140849819Y-58133809D02*
X140849819Y-57943333D01*
X140849819Y-57943333D02*
X140802200Y-57848095D01*
X140802200Y-57848095D02*
X140754580Y-57800476D01*
X140754580Y-57800476D02*
X140659342Y-57752857D01*
X140659342Y-57752857D02*
X140421247Y-57752857D01*
X140421247Y-57752857D02*
X140326009Y-57800476D01*
X140326009Y-57800476D02*
X140278390Y-57848095D01*
X140278390Y-57848095D02*
X140230771Y-57943333D01*
X140230771Y-57943333D02*
X140230771Y-58133809D01*
X140230771Y-58133809D02*
X140278390Y-58229047D01*
X140278390Y-58229047D02*
X140326009Y-58276666D01*
X140326009Y-58276666D02*
X140421247Y-58324285D01*
X140945057Y-57562381D02*
X140945057Y-56800476D01*
X140849819Y-56086190D02*
X140849819Y-56562380D01*
X140849819Y-56562380D02*
X139849819Y-56562380D01*
X140960295Y-55381428D02*
X140960295Y-55838571D01*
X140960295Y-55609999D02*
X140160295Y-55609999D01*
X140160295Y-55609999D02*
X140274580Y-55686190D01*
X140274580Y-55686190D02*
X140350771Y-55762380D01*
X140350771Y-55762380D02*
X140388866Y-55838571D01*
X140945057Y-55229047D02*
X140945057Y-54467142D01*
X139849819Y-54371903D02*
X139849819Y-53800475D01*
X140849819Y-54086189D02*
X139849819Y-54086189D01*
X140849819Y-53467141D02*
X139849819Y-53467141D01*
X140326009Y-52657618D02*
X140373628Y-52514761D01*
X140373628Y-52514761D02*
X140421247Y-52467142D01*
X140421247Y-52467142D02*
X140516485Y-52419523D01*
X140516485Y-52419523D02*
X140659342Y-52419523D01*
X140659342Y-52419523D02*
X140754580Y-52467142D01*
X140754580Y-52467142D02*
X140802200Y-52514761D01*
X140802200Y-52514761D02*
X140849819Y-52609999D01*
X140849819Y-52609999D02*
X140849819Y-52990951D01*
X140849819Y-52990951D02*
X139849819Y-52990951D01*
X139849819Y-52990951D02*
X139849819Y-52657618D01*
X139849819Y-52657618D02*
X139897438Y-52562380D01*
X139897438Y-52562380D02*
X139945057Y-52514761D01*
X139945057Y-52514761D02*
X140040295Y-52467142D01*
X140040295Y-52467142D02*
X140135533Y-52467142D01*
X140135533Y-52467142D02*
X140230771Y-52514761D01*
X140230771Y-52514761D02*
X140278390Y-52562380D01*
X140278390Y-52562380D02*
X140326009Y-52657618D01*
X140326009Y-52657618D02*
X140326009Y-52990951D01*
X140849819Y-51990951D02*
X139849819Y-51990951D01*
X140564104Y-51562380D02*
X140564104Y-51086190D01*
X140849819Y-51657618D02*
X139849819Y-51324285D01*
X139849819Y-51324285D02*
X140849819Y-50990952D01*
X140849819Y-50133809D02*
X140849819Y-50705237D01*
X140849819Y-50419523D02*
X139849819Y-50419523D01*
X139849819Y-50419523D02*
X139992676Y-50514761D01*
X139992676Y-50514761D02*
X140087914Y-50609999D01*
X140087914Y-50609999D02*
X140135533Y-50705237D01*
X222704819Y-134734047D02*
X223419104Y-134734047D01*
X223419104Y-134734047D02*
X223561961Y-134781666D01*
X223561961Y-134781666D02*
X223657200Y-134876904D01*
X223657200Y-134876904D02*
X223704819Y-135019761D01*
X223704819Y-135019761D02*
X223704819Y-135114999D01*
X223704819Y-133734047D02*
X223704819Y-134305475D01*
X223704819Y-134019761D02*
X222704819Y-134019761D01*
X222704819Y-134019761D02*
X222847676Y-134114999D01*
X222847676Y-134114999D02*
X222942914Y-134210237D01*
X222942914Y-134210237D02*
X222990533Y-134305475D01*
X222704819Y-132829285D02*
X222704819Y-133305475D01*
X222704819Y-133305475D02*
X223181009Y-133353094D01*
X223181009Y-133353094D02*
X223133390Y-133305475D01*
X223133390Y-133305475D02*
X223085771Y-133210237D01*
X223085771Y-133210237D02*
X223085771Y-132972142D01*
X223085771Y-132972142D02*
X223133390Y-132876904D01*
X223133390Y-132876904D02*
X223181009Y-132829285D01*
X223181009Y-132829285D02*
X223276247Y-132781666D01*
X223276247Y-132781666D02*
X223514342Y-132781666D01*
X223514342Y-132781666D02*
X223609580Y-132829285D01*
X223609580Y-132829285D02*
X223657200Y-132876904D01*
X223657200Y-132876904D02*
X223704819Y-132972142D01*
X223704819Y-132972142D02*
X223704819Y-133210237D01*
X223704819Y-133210237D02*
X223657200Y-133305475D01*
X223657200Y-133305475D02*
X223609580Y-133353094D01*
X223800057Y-132591190D02*
X223800057Y-131829285D01*
X223704819Y-131114999D02*
X223704819Y-131591189D01*
X223704819Y-131591189D02*
X222704819Y-131591189D01*
X223281961Y-130486427D02*
X223815295Y-130486427D01*
X222977200Y-130676903D02*
X223548628Y-130867380D01*
X223548628Y-130867380D02*
X223548628Y-130372141D01*
X223800057Y-130257856D02*
X223800057Y-129495951D01*
X222704819Y-129400712D02*
X222704819Y-128829284D01*
X223704819Y-129114998D02*
X222704819Y-129114998D01*
X223704819Y-128495950D02*
X222704819Y-128495950D01*
X223181009Y-127686427D02*
X223228628Y-127543570D01*
X223228628Y-127543570D02*
X223276247Y-127495951D01*
X223276247Y-127495951D02*
X223371485Y-127448332D01*
X223371485Y-127448332D02*
X223514342Y-127448332D01*
X223514342Y-127448332D02*
X223609580Y-127495951D01*
X223609580Y-127495951D02*
X223657200Y-127543570D01*
X223657200Y-127543570D02*
X223704819Y-127638808D01*
X223704819Y-127638808D02*
X223704819Y-128019760D01*
X223704819Y-128019760D02*
X222704819Y-128019760D01*
X222704819Y-128019760D02*
X222704819Y-127686427D01*
X222704819Y-127686427D02*
X222752438Y-127591189D01*
X222752438Y-127591189D02*
X222800057Y-127543570D01*
X222800057Y-127543570D02*
X222895295Y-127495951D01*
X222895295Y-127495951D02*
X222990533Y-127495951D01*
X222990533Y-127495951D02*
X223085771Y-127543570D01*
X223085771Y-127543570D02*
X223133390Y-127591189D01*
X223133390Y-127591189D02*
X223181009Y-127686427D01*
X223181009Y-127686427D02*
X223181009Y-128019760D01*
X223704819Y-127019760D02*
X222704819Y-127019760D01*
X223419104Y-126591189D02*
X223419104Y-126114999D01*
X223704819Y-126686427D02*
X222704819Y-126353094D01*
X222704819Y-126353094D02*
X223704819Y-126019761D01*
X223704819Y-125162618D02*
X223704819Y-125734046D01*
X223704819Y-125448332D02*
X222704819Y-125448332D01*
X222704819Y-125448332D02*
X222847676Y-125543570D01*
X222847676Y-125543570D02*
X222942914Y-125638808D01*
X222942914Y-125638808D02*
X222990533Y-125734046D01*
X184495475Y-56874819D02*
X184495475Y-57589104D01*
X184495475Y-57589104D02*
X184447856Y-57731961D01*
X184447856Y-57731961D02*
X184352618Y-57827200D01*
X184352618Y-57827200D02*
X184209761Y-57874819D01*
X184209761Y-57874819D02*
X184114523Y-57874819D01*
X185495475Y-57874819D02*
X184924047Y-57874819D01*
X185209761Y-57874819D02*
X185209761Y-56874819D01*
X185209761Y-56874819D02*
X185114523Y-57017676D01*
X185114523Y-57017676D02*
X185019285Y-57112914D01*
X185019285Y-57112914D02*
X184924047Y-57160533D01*
X186066904Y-57303390D02*
X185971666Y-57255771D01*
X185971666Y-57255771D02*
X185924047Y-57208152D01*
X185924047Y-57208152D02*
X185876428Y-57112914D01*
X185876428Y-57112914D02*
X185876428Y-57065295D01*
X185876428Y-57065295D02*
X185924047Y-56970057D01*
X185924047Y-56970057D02*
X185971666Y-56922438D01*
X185971666Y-56922438D02*
X186066904Y-56874819D01*
X186066904Y-56874819D02*
X186257380Y-56874819D01*
X186257380Y-56874819D02*
X186352618Y-56922438D01*
X186352618Y-56922438D02*
X186400237Y-56970057D01*
X186400237Y-56970057D02*
X186447856Y-57065295D01*
X186447856Y-57065295D02*
X186447856Y-57112914D01*
X186447856Y-57112914D02*
X186400237Y-57208152D01*
X186400237Y-57208152D02*
X186352618Y-57255771D01*
X186352618Y-57255771D02*
X186257380Y-57303390D01*
X186257380Y-57303390D02*
X186066904Y-57303390D01*
X186066904Y-57303390D02*
X185971666Y-57351009D01*
X185971666Y-57351009D02*
X185924047Y-57398628D01*
X185924047Y-57398628D02*
X185876428Y-57493866D01*
X185876428Y-57493866D02*
X185876428Y-57684342D01*
X185876428Y-57684342D02*
X185924047Y-57779580D01*
X185924047Y-57779580D02*
X185971666Y-57827200D01*
X185971666Y-57827200D02*
X186066904Y-57874819D01*
X186066904Y-57874819D02*
X186257380Y-57874819D01*
X186257380Y-57874819D02*
X186352618Y-57827200D01*
X186352618Y-57827200D02*
X186400237Y-57779580D01*
X186400237Y-57779580D02*
X186447856Y-57684342D01*
X186447856Y-57684342D02*
X186447856Y-57493866D01*
X186447856Y-57493866D02*
X186400237Y-57398628D01*
X186400237Y-57398628D02*
X186352618Y-57351009D01*
X186352618Y-57351009D02*
X186257380Y-57303390D01*
X186638333Y-57970057D02*
X187400237Y-57970057D01*
X188114523Y-57874819D02*
X187638333Y-57874819D01*
X187638333Y-57874819D02*
X187638333Y-56874819D01*
X188781190Y-57185295D02*
X188400238Y-57185295D01*
X188400238Y-57185295D02*
X188362142Y-57566247D01*
X188362142Y-57566247D02*
X188400238Y-57528152D01*
X188400238Y-57528152D02*
X188476428Y-57490057D01*
X188476428Y-57490057D02*
X188666904Y-57490057D01*
X188666904Y-57490057D02*
X188743095Y-57528152D01*
X188743095Y-57528152D02*
X188781190Y-57566247D01*
X188781190Y-57566247D02*
X188819285Y-57642438D01*
X188819285Y-57642438D02*
X188819285Y-57832914D01*
X188819285Y-57832914D02*
X188781190Y-57909104D01*
X188781190Y-57909104D02*
X188743095Y-57947200D01*
X188743095Y-57947200D02*
X188666904Y-57985295D01*
X188666904Y-57985295D02*
X188476428Y-57985295D01*
X188476428Y-57985295D02*
X188400238Y-57947200D01*
X188400238Y-57947200D02*
X188362142Y-57909104D01*
X188971667Y-57970057D02*
X189733571Y-57970057D01*
X190305000Y-57351009D02*
X189971667Y-57351009D01*
X189971667Y-57874819D02*
X189971667Y-56874819D01*
X189971667Y-56874819D02*
X190447857Y-56874819D01*
X190828810Y-57351009D02*
X191162143Y-57351009D01*
X191305000Y-57874819D02*
X190828810Y-57874819D01*
X190828810Y-57874819D02*
X190828810Y-56874819D01*
X190828810Y-56874819D02*
X191305000Y-56874819D01*
X191733572Y-57874819D02*
X191733572Y-56874819D01*
X191733572Y-56874819D02*
X192066905Y-57589104D01*
X192066905Y-57589104D02*
X192400238Y-56874819D01*
X192400238Y-56874819D02*
X192400238Y-57874819D01*
X192876429Y-56874819D02*
X192876429Y-57684342D01*
X192876429Y-57684342D02*
X192924048Y-57779580D01*
X192924048Y-57779580D02*
X192971667Y-57827200D01*
X192971667Y-57827200D02*
X193066905Y-57874819D01*
X193066905Y-57874819D02*
X193257381Y-57874819D01*
X193257381Y-57874819D02*
X193352619Y-57827200D01*
X193352619Y-57827200D02*
X193400238Y-57779580D01*
X193400238Y-57779580D02*
X193447857Y-57684342D01*
X193447857Y-57684342D02*
X193447857Y-56874819D01*
X194495476Y-57874819D02*
X194162143Y-57398628D01*
X193924048Y-57874819D02*
X193924048Y-56874819D01*
X193924048Y-56874819D02*
X194305000Y-56874819D01*
X194305000Y-56874819D02*
X194400238Y-56922438D01*
X194400238Y-56922438D02*
X194447857Y-56970057D01*
X194447857Y-56970057D02*
X194495476Y-57065295D01*
X194495476Y-57065295D02*
X194495476Y-57208152D01*
X194495476Y-57208152D02*
X194447857Y-57303390D01*
X194447857Y-57303390D02*
X194400238Y-57351009D01*
X194400238Y-57351009D02*
X194305000Y-57398628D01*
X194305000Y-57398628D02*
X193924048Y-57398628D01*
X195447857Y-57874819D02*
X194876429Y-57874819D01*
X195162143Y-57874819D02*
X195162143Y-56874819D01*
X195162143Y-56874819D02*
X195066905Y-57017676D01*
X195066905Y-57017676D02*
X194971667Y-57112914D01*
X194971667Y-57112914D02*
X194876429Y-57160533D01*
X175153333Y-102869580D02*
X175105714Y-102917200D01*
X175105714Y-102917200D02*
X174962857Y-102964819D01*
X174962857Y-102964819D02*
X174867619Y-102964819D01*
X174867619Y-102964819D02*
X174724762Y-102917200D01*
X174724762Y-102917200D02*
X174629524Y-102821961D01*
X174629524Y-102821961D02*
X174581905Y-102726723D01*
X174581905Y-102726723D02*
X174534286Y-102536247D01*
X174534286Y-102536247D02*
X174534286Y-102393390D01*
X174534286Y-102393390D02*
X174581905Y-102202914D01*
X174581905Y-102202914D02*
X174629524Y-102107676D01*
X174629524Y-102107676D02*
X174724762Y-102012438D01*
X174724762Y-102012438D02*
X174867619Y-101964819D01*
X174867619Y-101964819D02*
X174962857Y-101964819D01*
X174962857Y-101964819D02*
X175105714Y-102012438D01*
X175105714Y-102012438D02*
X175153333Y-102060057D01*
X175534286Y-102060057D02*
X175581905Y-102012438D01*
X175581905Y-102012438D02*
X175677143Y-101964819D01*
X175677143Y-101964819D02*
X175915238Y-101964819D01*
X175915238Y-101964819D02*
X176010476Y-102012438D01*
X176010476Y-102012438D02*
X176058095Y-102060057D01*
X176058095Y-102060057D02*
X176105714Y-102155295D01*
X176105714Y-102155295D02*
X176105714Y-102250533D01*
X176105714Y-102250533D02*
X176058095Y-102393390D01*
X176058095Y-102393390D02*
X175486667Y-102964819D01*
X175486667Y-102964819D02*
X176105714Y-102964819D01*
X166037142Y-54064819D02*
X166037142Y-54779104D01*
X166037142Y-54779104D02*
X165989523Y-54921961D01*
X165989523Y-54921961D02*
X165894285Y-55017200D01*
X165894285Y-55017200D02*
X165751428Y-55064819D01*
X165751428Y-55064819D02*
X165656190Y-55064819D01*
X166560952Y-55064819D02*
X166751428Y-55064819D01*
X166751428Y-55064819D02*
X166846666Y-55017200D01*
X166846666Y-55017200D02*
X166894285Y-54969580D01*
X166894285Y-54969580D02*
X166989523Y-54826723D01*
X166989523Y-54826723D02*
X167037142Y-54636247D01*
X167037142Y-54636247D02*
X167037142Y-54255295D01*
X167037142Y-54255295D02*
X166989523Y-54160057D01*
X166989523Y-54160057D02*
X166941904Y-54112438D01*
X166941904Y-54112438D02*
X166846666Y-54064819D01*
X166846666Y-54064819D02*
X166656190Y-54064819D01*
X166656190Y-54064819D02*
X166560952Y-54112438D01*
X166560952Y-54112438D02*
X166513333Y-54160057D01*
X166513333Y-54160057D02*
X166465714Y-54255295D01*
X166465714Y-54255295D02*
X166465714Y-54493390D01*
X166465714Y-54493390D02*
X166513333Y-54588628D01*
X166513333Y-54588628D02*
X166560952Y-54636247D01*
X166560952Y-54636247D02*
X166656190Y-54683866D01*
X166656190Y-54683866D02*
X166846666Y-54683866D01*
X166846666Y-54683866D02*
X166941904Y-54636247D01*
X166941904Y-54636247D02*
X166989523Y-54588628D01*
X166989523Y-54588628D02*
X167037142Y-54493390D01*
X167227619Y-55160057D02*
X167989523Y-55160057D01*
X168703809Y-55064819D02*
X168227619Y-55064819D01*
X168227619Y-55064819D02*
X168227619Y-54064819D01*
X168951428Y-54451485D02*
X168989524Y-54413390D01*
X168989524Y-54413390D02*
X169065714Y-54375295D01*
X169065714Y-54375295D02*
X169256190Y-54375295D01*
X169256190Y-54375295D02*
X169332381Y-54413390D01*
X169332381Y-54413390D02*
X169370476Y-54451485D01*
X169370476Y-54451485D02*
X169408571Y-54527676D01*
X169408571Y-54527676D02*
X169408571Y-54603866D01*
X169408571Y-54603866D02*
X169370476Y-54718152D01*
X169370476Y-54718152D02*
X168913333Y-55175295D01*
X168913333Y-55175295D02*
X169408571Y-55175295D01*
X169560953Y-55160057D02*
X170322857Y-55160057D01*
X170418096Y-54064819D02*
X170989524Y-54064819D01*
X170703810Y-55064819D02*
X170703810Y-54064819D01*
X171322858Y-55064819D02*
X171322858Y-54064819D01*
X172132381Y-54541009D02*
X172275238Y-54588628D01*
X172275238Y-54588628D02*
X172322857Y-54636247D01*
X172322857Y-54636247D02*
X172370476Y-54731485D01*
X172370476Y-54731485D02*
X172370476Y-54874342D01*
X172370476Y-54874342D02*
X172322857Y-54969580D01*
X172322857Y-54969580D02*
X172275238Y-55017200D01*
X172275238Y-55017200D02*
X172180000Y-55064819D01*
X172180000Y-55064819D02*
X171799048Y-55064819D01*
X171799048Y-55064819D02*
X171799048Y-54064819D01*
X171799048Y-54064819D02*
X172132381Y-54064819D01*
X172132381Y-54064819D02*
X172227619Y-54112438D01*
X172227619Y-54112438D02*
X172275238Y-54160057D01*
X172275238Y-54160057D02*
X172322857Y-54255295D01*
X172322857Y-54255295D02*
X172322857Y-54350533D01*
X172322857Y-54350533D02*
X172275238Y-54445771D01*
X172275238Y-54445771D02*
X172227619Y-54493390D01*
X172227619Y-54493390D02*
X172132381Y-54541009D01*
X172132381Y-54541009D02*
X171799048Y-54541009D01*
X172799048Y-55064819D02*
X172799048Y-54064819D01*
X173227619Y-54779104D02*
X173703809Y-54779104D01*
X173132381Y-55064819D02*
X173465714Y-54064819D01*
X173465714Y-54064819D02*
X173799047Y-55064819D01*
X174656190Y-55064819D02*
X174084762Y-55064819D01*
X174370476Y-55064819D02*
X174370476Y-54064819D01*
X174370476Y-54064819D02*
X174275238Y-54207676D01*
X174275238Y-54207676D02*
X174180000Y-54302914D01*
X174180000Y-54302914D02*
X174084762Y-54350533D01*
X165894285Y-69304819D02*
X165894285Y-70019104D01*
X165894285Y-70019104D02*
X165846666Y-70161961D01*
X165846666Y-70161961D02*
X165751428Y-70257200D01*
X165751428Y-70257200D02*
X165608571Y-70304819D01*
X165608571Y-70304819D02*
X165513333Y-70304819D01*
X166275238Y-69304819D02*
X166941904Y-69304819D01*
X166941904Y-69304819D02*
X166513333Y-70304819D01*
X167084762Y-70400057D02*
X167846666Y-70400057D01*
X168560952Y-70304819D02*
X168084762Y-70304819D01*
X168084762Y-70304819D02*
X168084762Y-69304819D01*
X168808571Y-69691485D02*
X168846667Y-69653390D01*
X168846667Y-69653390D02*
X168922857Y-69615295D01*
X168922857Y-69615295D02*
X169113333Y-69615295D01*
X169113333Y-69615295D02*
X169189524Y-69653390D01*
X169189524Y-69653390D02*
X169227619Y-69691485D01*
X169227619Y-69691485D02*
X169265714Y-69767676D01*
X169265714Y-69767676D02*
X169265714Y-69843866D01*
X169265714Y-69843866D02*
X169227619Y-69958152D01*
X169227619Y-69958152D02*
X168770476Y-70415295D01*
X168770476Y-70415295D02*
X169265714Y-70415295D01*
X169418096Y-70400057D02*
X170180000Y-70400057D01*
X170989524Y-70209580D02*
X170941905Y-70257200D01*
X170941905Y-70257200D02*
X170799048Y-70304819D01*
X170799048Y-70304819D02*
X170703810Y-70304819D01*
X170703810Y-70304819D02*
X170560953Y-70257200D01*
X170560953Y-70257200D02*
X170465715Y-70161961D01*
X170465715Y-70161961D02*
X170418096Y-70066723D01*
X170418096Y-70066723D02*
X170370477Y-69876247D01*
X170370477Y-69876247D02*
X170370477Y-69733390D01*
X170370477Y-69733390D02*
X170418096Y-69542914D01*
X170418096Y-69542914D02*
X170465715Y-69447676D01*
X170465715Y-69447676D02*
X170560953Y-69352438D01*
X170560953Y-69352438D02*
X170703810Y-69304819D01*
X170703810Y-69304819D02*
X170799048Y-69304819D01*
X170799048Y-69304819D02*
X170941905Y-69352438D01*
X170941905Y-69352438D02*
X170989524Y-69400057D01*
X171608572Y-69304819D02*
X171799048Y-69304819D01*
X171799048Y-69304819D02*
X171894286Y-69352438D01*
X171894286Y-69352438D02*
X171989524Y-69447676D01*
X171989524Y-69447676D02*
X172037143Y-69638152D01*
X172037143Y-69638152D02*
X172037143Y-69971485D01*
X172037143Y-69971485D02*
X171989524Y-70161961D01*
X171989524Y-70161961D02*
X171894286Y-70257200D01*
X171894286Y-70257200D02*
X171799048Y-70304819D01*
X171799048Y-70304819D02*
X171608572Y-70304819D01*
X171608572Y-70304819D02*
X171513334Y-70257200D01*
X171513334Y-70257200D02*
X171418096Y-70161961D01*
X171418096Y-70161961D02*
X171370477Y-69971485D01*
X171370477Y-69971485D02*
X171370477Y-69638152D01*
X171370477Y-69638152D02*
X171418096Y-69447676D01*
X171418096Y-69447676D02*
X171513334Y-69352438D01*
X171513334Y-69352438D02*
X171608572Y-69304819D01*
X172370477Y-69304819D02*
X173037143Y-70304819D01*
X173037143Y-69304819D02*
X172370477Y-70304819D01*
X173370477Y-70019104D02*
X173846667Y-70019104D01*
X173275239Y-70304819D02*
X173608572Y-69304819D01*
X173608572Y-69304819D02*
X173941905Y-70304819D01*
X174799048Y-70304819D02*
X174227620Y-70304819D01*
X174513334Y-70304819D02*
X174513334Y-69304819D01*
X174513334Y-69304819D02*
X174418096Y-69447676D01*
X174418096Y-69447676D02*
X174322858Y-69542914D01*
X174322858Y-69542914D02*
X174227620Y-69590533D01*
X212435475Y-56874819D02*
X212435475Y-57589104D01*
X212435475Y-57589104D02*
X212387856Y-57731961D01*
X212387856Y-57731961D02*
X212292618Y-57827200D01*
X212292618Y-57827200D02*
X212149761Y-57874819D01*
X212149761Y-57874819D02*
X212054523Y-57874819D01*
X213435475Y-57874819D02*
X212864047Y-57874819D01*
X213149761Y-57874819D02*
X213149761Y-56874819D01*
X213149761Y-56874819D02*
X213054523Y-57017676D01*
X213054523Y-57017676D02*
X212959285Y-57112914D01*
X212959285Y-57112914D02*
X212864047Y-57160533D01*
X213911666Y-57874819D02*
X214102142Y-57874819D01*
X214102142Y-57874819D02*
X214197380Y-57827200D01*
X214197380Y-57827200D02*
X214244999Y-57779580D01*
X214244999Y-57779580D02*
X214340237Y-57636723D01*
X214340237Y-57636723D02*
X214387856Y-57446247D01*
X214387856Y-57446247D02*
X214387856Y-57065295D01*
X214387856Y-57065295D02*
X214340237Y-56970057D01*
X214340237Y-56970057D02*
X214292618Y-56922438D01*
X214292618Y-56922438D02*
X214197380Y-56874819D01*
X214197380Y-56874819D02*
X214006904Y-56874819D01*
X214006904Y-56874819D02*
X213911666Y-56922438D01*
X213911666Y-56922438D02*
X213864047Y-56970057D01*
X213864047Y-56970057D02*
X213816428Y-57065295D01*
X213816428Y-57065295D02*
X213816428Y-57303390D01*
X213816428Y-57303390D02*
X213864047Y-57398628D01*
X213864047Y-57398628D02*
X213911666Y-57446247D01*
X213911666Y-57446247D02*
X214006904Y-57493866D01*
X214006904Y-57493866D02*
X214197380Y-57493866D01*
X214197380Y-57493866D02*
X214292618Y-57446247D01*
X214292618Y-57446247D02*
X214340237Y-57398628D01*
X214340237Y-57398628D02*
X214387856Y-57303390D01*
X214578333Y-57970057D02*
X215340237Y-57970057D01*
X216054523Y-57874819D02*
X215578333Y-57874819D01*
X215578333Y-57874819D02*
X215578333Y-56874819D01*
X216683095Y-57185295D02*
X216530714Y-57185295D01*
X216530714Y-57185295D02*
X216454523Y-57223390D01*
X216454523Y-57223390D02*
X216416428Y-57261485D01*
X216416428Y-57261485D02*
X216340238Y-57375771D01*
X216340238Y-57375771D02*
X216302142Y-57528152D01*
X216302142Y-57528152D02*
X216302142Y-57832914D01*
X216302142Y-57832914D02*
X216340238Y-57909104D01*
X216340238Y-57909104D02*
X216378333Y-57947200D01*
X216378333Y-57947200D02*
X216454523Y-57985295D01*
X216454523Y-57985295D02*
X216606904Y-57985295D01*
X216606904Y-57985295D02*
X216683095Y-57947200D01*
X216683095Y-57947200D02*
X216721190Y-57909104D01*
X216721190Y-57909104D02*
X216759285Y-57832914D01*
X216759285Y-57832914D02*
X216759285Y-57642438D01*
X216759285Y-57642438D02*
X216721190Y-57566247D01*
X216721190Y-57566247D02*
X216683095Y-57528152D01*
X216683095Y-57528152D02*
X216606904Y-57490057D01*
X216606904Y-57490057D02*
X216454523Y-57490057D01*
X216454523Y-57490057D02*
X216378333Y-57528152D01*
X216378333Y-57528152D02*
X216340238Y-57566247D01*
X216340238Y-57566247D02*
X216302142Y-57642438D01*
X216911667Y-57970057D02*
X217673571Y-57970057D01*
X218245000Y-57351009D02*
X217911667Y-57351009D01*
X217911667Y-57874819D02*
X217911667Y-56874819D01*
X217911667Y-56874819D02*
X218387857Y-56874819D01*
X218768810Y-57351009D02*
X219102143Y-57351009D01*
X219245000Y-57874819D02*
X218768810Y-57874819D01*
X218768810Y-57874819D02*
X218768810Y-56874819D01*
X218768810Y-56874819D02*
X219245000Y-56874819D01*
X219673572Y-57874819D02*
X219673572Y-56874819D01*
X219673572Y-56874819D02*
X220006905Y-57589104D01*
X220006905Y-57589104D02*
X220340238Y-56874819D01*
X220340238Y-56874819D02*
X220340238Y-57874819D01*
X220816429Y-56874819D02*
X220816429Y-57684342D01*
X220816429Y-57684342D02*
X220864048Y-57779580D01*
X220864048Y-57779580D02*
X220911667Y-57827200D01*
X220911667Y-57827200D02*
X221006905Y-57874819D01*
X221006905Y-57874819D02*
X221197381Y-57874819D01*
X221197381Y-57874819D02*
X221292619Y-57827200D01*
X221292619Y-57827200D02*
X221340238Y-57779580D01*
X221340238Y-57779580D02*
X221387857Y-57684342D01*
X221387857Y-57684342D02*
X221387857Y-56874819D01*
X222435476Y-57874819D02*
X222102143Y-57398628D01*
X221864048Y-57874819D02*
X221864048Y-56874819D01*
X221864048Y-56874819D02*
X222245000Y-56874819D01*
X222245000Y-56874819D02*
X222340238Y-56922438D01*
X222340238Y-56922438D02*
X222387857Y-56970057D01*
X222387857Y-56970057D02*
X222435476Y-57065295D01*
X222435476Y-57065295D02*
X222435476Y-57208152D01*
X222435476Y-57208152D02*
X222387857Y-57303390D01*
X222387857Y-57303390D02*
X222340238Y-57351009D01*
X222340238Y-57351009D02*
X222245000Y-57398628D01*
X222245000Y-57398628D02*
X221864048Y-57398628D01*
X223387857Y-57874819D02*
X222816429Y-57874819D01*
X223102143Y-57874819D02*
X223102143Y-56874819D01*
X223102143Y-56874819D02*
X223006905Y-57017676D01*
X223006905Y-57017676D02*
X222911667Y-57112914D01*
X222911667Y-57112914D02*
X222816429Y-57160533D01*
X137309819Y-67063333D02*
X138024104Y-67063333D01*
X138024104Y-67063333D02*
X138166961Y-67110952D01*
X138166961Y-67110952D02*
X138262200Y-67206190D01*
X138262200Y-67206190D02*
X138309819Y-67349047D01*
X138309819Y-67349047D02*
X138309819Y-67444285D01*
X137309819Y-66110952D02*
X137309819Y-66587142D01*
X137309819Y-66587142D02*
X137786009Y-66634761D01*
X137786009Y-66634761D02*
X137738390Y-66587142D01*
X137738390Y-66587142D02*
X137690771Y-66491904D01*
X137690771Y-66491904D02*
X137690771Y-66253809D01*
X137690771Y-66253809D02*
X137738390Y-66158571D01*
X137738390Y-66158571D02*
X137786009Y-66110952D01*
X137786009Y-66110952D02*
X137881247Y-66063333D01*
X137881247Y-66063333D02*
X138119342Y-66063333D01*
X138119342Y-66063333D02*
X138214580Y-66110952D01*
X138214580Y-66110952D02*
X138262200Y-66158571D01*
X138262200Y-66158571D02*
X138309819Y-66253809D01*
X138309819Y-66253809D02*
X138309819Y-66491904D01*
X138309819Y-66491904D02*
X138262200Y-66587142D01*
X138262200Y-66587142D02*
X138214580Y-66634761D01*
X138405057Y-65872857D02*
X138405057Y-65110952D01*
X138309819Y-64396666D02*
X138309819Y-64872856D01*
X138309819Y-64872856D02*
X137309819Y-64872856D01*
X138420295Y-63691904D02*
X138420295Y-64149047D01*
X138420295Y-63920475D02*
X137620295Y-63920475D01*
X137620295Y-63920475D02*
X137734580Y-63996666D01*
X137734580Y-63996666D02*
X137810771Y-64072856D01*
X137810771Y-64072856D02*
X137848866Y-64149047D01*
X138405057Y-63539523D02*
X138405057Y-62777618D01*
X137786009Y-62206189D02*
X137786009Y-62539522D01*
X138309819Y-62539522D02*
X137309819Y-62539522D01*
X137309819Y-62539522D02*
X137309819Y-62063332D01*
X137786009Y-61682379D02*
X137786009Y-61349046D01*
X138309819Y-61206189D02*
X138309819Y-61682379D01*
X138309819Y-61682379D02*
X137309819Y-61682379D01*
X137309819Y-61682379D02*
X137309819Y-61206189D01*
X138309819Y-60777617D02*
X137309819Y-60777617D01*
X137309819Y-60777617D02*
X138024104Y-60444284D01*
X138024104Y-60444284D02*
X137309819Y-60110951D01*
X137309819Y-60110951D02*
X138309819Y-60110951D01*
X137309819Y-59634760D02*
X138119342Y-59634760D01*
X138119342Y-59634760D02*
X138214580Y-59587141D01*
X138214580Y-59587141D02*
X138262200Y-59539522D01*
X138262200Y-59539522D02*
X138309819Y-59444284D01*
X138309819Y-59444284D02*
X138309819Y-59253808D01*
X138309819Y-59253808D02*
X138262200Y-59158570D01*
X138262200Y-59158570D02*
X138214580Y-59110951D01*
X138214580Y-59110951D02*
X138119342Y-59063332D01*
X138119342Y-59063332D02*
X137309819Y-59063332D01*
X138309819Y-58015713D02*
X137833628Y-58349046D01*
X138309819Y-58587141D02*
X137309819Y-58587141D01*
X137309819Y-58587141D02*
X137309819Y-58206189D01*
X137309819Y-58206189D02*
X137357438Y-58110951D01*
X137357438Y-58110951D02*
X137405057Y-58063332D01*
X137405057Y-58063332D02*
X137500295Y-58015713D01*
X137500295Y-58015713D02*
X137643152Y-58015713D01*
X137643152Y-58015713D02*
X137738390Y-58063332D01*
X137738390Y-58063332D02*
X137786009Y-58110951D01*
X137786009Y-58110951D02*
X137833628Y-58206189D01*
X137833628Y-58206189D02*
X137833628Y-58587141D01*
X138309819Y-57063332D02*
X138309819Y-57634760D01*
X138309819Y-57349046D02*
X137309819Y-57349046D01*
X137309819Y-57349046D02*
X137452676Y-57444284D01*
X137452676Y-57444284D02*
X137547914Y-57539522D01*
X137547914Y-57539522D02*
X137595533Y-57634760D01*
X183746088Y-94699580D02*
X183698469Y-94747200D01*
X183698469Y-94747200D02*
X183555612Y-94794819D01*
X183555612Y-94794819D02*
X183460374Y-94794819D01*
X183460374Y-94794819D02*
X183317517Y-94747200D01*
X183317517Y-94747200D02*
X183222279Y-94651961D01*
X183222279Y-94651961D02*
X183174660Y-94556723D01*
X183174660Y-94556723D02*
X183127041Y-94366247D01*
X183127041Y-94366247D02*
X183127041Y-94223390D01*
X183127041Y-94223390D02*
X183174660Y-94032914D01*
X183174660Y-94032914D02*
X183222279Y-93937676D01*
X183222279Y-93937676D02*
X183317517Y-93842438D01*
X183317517Y-93842438D02*
X183460374Y-93794819D01*
X183460374Y-93794819D02*
X183555612Y-93794819D01*
X183555612Y-93794819D02*
X183698469Y-93842438D01*
X183698469Y-93842438D02*
X183746088Y-93890057D01*
X184079422Y-93794819D02*
X184698469Y-93794819D01*
X184698469Y-93794819D02*
X184365136Y-94175771D01*
X184365136Y-94175771D02*
X184507993Y-94175771D01*
X184507993Y-94175771D02*
X184603231Y-94223390D01*
X184603231Y-94223390D02*
X184650850Y-94271009D01*
X184650850Y-94271009D02*
X184698469Y-94366247D01*
X184698469Y-94366247D02*
X184698469Y-94604342D01*
X184698469Y-94604342D02*
X184650850Y-94699580D01*
X184650850Y-94699580D02*
X184603231Y-94747200D01*
X184603231Y-94747200D02*
X184507993Y-94794819D01*
X184507993Y-94794819D02*
X184222279Y-94794819D01*
X184222279Y-94794819D02*
X184127041Y-94747200D01*
X184127041Y-94747200D02*
X184079422Y-94699580D01*
X213125952Y-49254819D02*
X213125952Y-49969104D01*
X213125952Y-49969104D02*
X213078333Y-50111961D01*
X213078333Y-50111961D02*
X212983095Y-50207200D01*
X212983095Y-50207200D02*
X212840238Y-50254819D01*
X212840238Y-50254819D02*
X212745000Y-50254819D01*
X213554524Y-49350057D02*
X213602143Y-49302438D01*
X213602143Y-49302438D02*
X213697381Y-49254819D01*
X213697381Y-49254819D02*
X213935476Y-49254819D01*
X213935476Y-49254819D02*
X214030714Y-49302438D01*
X214030714Y-49302438D02*
X214078333Y-49350057D01*
X214078333Y-49350057D02*
X214125952Y-49445295D01*
X214125952Y-49445295D02*
X214125952Y-49540533D01*
X214125952Y-49540533D02*
X214078333Y-49683390D01*
X214078333Y-49683390D02*
X213506905Y-50254819D01*
X213506905Y-50254819D02*
X214125952Y-50254819D01*
X215078333Y-50254819D02*
X214506905Y-50254819D01*
X214792619Y-50254819D02*
X214792619Y-49254819D01*
X214792619Y-49254819D02*
X214697381Y-49397676D01*
X214697381Y-49397676D02*
X214602143Y-49492914D01*
X214602143Y-49492914D02*
X214506905Y-49540533D01*
X215268810Y-50350057D02*
X216030714Y-50350057D01*
X216745000Y-50254819D02*
X216268810Y-50254819D01*
X216268810Y-50254819D02*
X216268810Y-49254819D01*
X217373572Y-49565295D02*
X217221191Y-49565295D01*
X217221191Y-49565295D02*
X217145000Y-49603390D01*
X217145000Y-49603390D02*
X217106905Y-49641485D01*
X217106905Y-49641485D02*
X217030715Y-49755771D01*
X217030715Y-49755771D02*
X216992619Y-49908152D01*
X216992619Y-49908152D02*
X216992619Y-50212914D01*
X216992619Y-50212914D02*
X217030715Y-50289104D01*
X217030715Y-50289104D02*
X217068810Y-50327200D01*
X217068810Y-50327200D02*
X217145000Y-50365295D01*
X217145000Y-50365295D02*
X217297381Y-50365295D01*
X217297381Y-50365295D02*
X217373572Y-50327200D01*
X217373572Y-50327200D02*
X217411667Y-50289104D01*
X217411667Y-50289104D02*
X217449762Y-50212914D01*
X217449762Y-50212914D02*
X217449762Y-50022438D01*
X217449762Y-50022438D02*
X217411667Y-49946247D01*
X217411667Y-49946247D02*
X217373572Y-49908152D01*
X217373572Y-49908152D02*
X217297381Y-49870057D01*
X217297381Y-49870057D02*
X217145000Y-49870057D01*
X217145000Y-49870057D02*
X217068810Y-49908152D01*
X217068810Y-49908152D02*
X217030715Y-49946247D01*
X217030715Y-49946247D02*
X216992619Y-50022438D01*
X217602144Y-50350057D02*
X218364048Y-50350057D01*
X218459287Y-49254819D02*
X219030715Y-49254819D01*
X218745001Y-50254819D02*
X218745001Y-49254819D01*
X219364049Y-50254819D02*
X219364049Y-49254819D01*
X220173572Y-49731009D02*
X220316429Y-49778628D01*
X220316429Y-49778628D02*
X220364048Y-49826247D01*
X220364048Y-49826247D02*
X220411667Y-49921485D01*
X220411667Y-49921485D02*
X220411667Y-50064342D01*
X220411667Y-50064342D02*
X220364048Y-50159580D01*
X220364048Y-50159580D02*
X220316429Y-50207200D01*
X220316429Y-50207200D02*
X220221191Y-50254819D01*
X220221191Y-50254819D02*
X219840239Y-50254819D01*
X219840239Y-50254819D02*
X219840239Y-49254819D01*
X219840239Y-49254819D02*
X220173572Y-49254819D01*
X220173572Y-49254819D02*
X220268810Y-49302438D01*
X220268810Y-49302438D02*
X220316429Y-49350057D01*
X220316429Y-49350057D02*
X220364048Y-49445295D01*
X220364048Y-49445295D02*
X220364048Y-49540533D01*
X220364048Y-49540533D02*
X220316429Y-49635771D01*
X220316429Y-49635771D02*
X220268810Y-49683390D01*
X220268810Y-49683390D02*
X220173572Y-49731009D01*
X220173572Y-49731009D02*
X219840239Y-49731009D01*
X220840239Y-50254819D02*
X220840239Y-49254819D01*
X221268810Y-49969104D02*
X221745000Y-49969104D01*
X221173572Y-50254819D02*
X221506905Y-49254819D01*
X221506905Y-49254819D02*
X221840238Y-50254819D01*
X222697381Y-50254819D02*
X222125953Y-50254819D01*
X222411667Y-50254819D02*
X222411667Y-49254819D01*
X222411667Y-49254819D02*
X222316429Y-49397676D01*
X222316429Y-49397676D02*
X222221191Y-49492914D01*
X222221191Y-49492914D02*
X222125953Y-49540533D01*
D11*
%TO.C,J14_L_{3}_TIBIA1*%
X142130000Y-127120000D02*
X142130000Y-129880000D01*
X142130000Y-129880000D02*
X149970000Y-129880000D01*
X143080000Y-126807358D02*
X143080000Y-127120000D01*
X143080000Y-135880000D02*
X143080000Y-129880000D01*
X143940000Y-126807358D02*
X143940000Y-127120000D01*
X143940000Y-129880000D02*
X143940000Y-135880000D01*
X143940000Y-135880000D02*
X143080000Y-135880000D01*
X144780000Y-127120000D02*
X144780000Y-129880000D01*
X145620000Y-126807358D02*
X145620000Y-127120000D01*
X145620000Y-135880000D02*
X145620000Y-129880000D01*
X146480000Y-126807358D02*
X146480000Y-127120000D01*
X146480000Y-129880000D02*
X146480000Y-135880000D01*
X146480000Y-135880000D02*
X145620000Y-135880000D01*
X147320000Y-127120000D02*
X147320000Y-129880000D01*
X148160000Y-126890000D02*
X148160000Y-127120000D01*
X148590000Y-124460000D02*
X149860000Y-124460000D01*
X149020000Y-126890000D02*
X149020000Y-127120000D01*
X149860000Y-124460000D02*
X149860000Y-125730000D01*
X149970000Y-127120000D02*
X142130000Y-127120000D01*
X149970000Y-129880000D02*
X149970000Y-127120000D01*
X149020000Y-129880000D02*
X148160000Y-129880000D01*
X148160000Y-135880000D01*
X149020000Y-135880000D01*
X149020000Y-129880000D01*
G36*
X149020000Y-129880000D02*
G01*
X148160000Y-129880000D01*
X148160000Y-135880000D01*
X149020000Y-135880000D01*
X149020000Y-129880000D01*
G37*
%TO.C,J17_L_{6}_COXA1*%
X212090000Y-66040000D02*
X213360000Y-66040000D01*
X212090000Y-67310000D02*
X212090000Y-66040000D01*
X214437358Y-69420000D02*
X214750000Y-69420000D01*
X214437358Y-70280000D02*
X214750000Y-70280000D01*
X214437358Y-71960000D02*
X214750000Y-71960000D01*
X214437358Y-72820000D02*
X214750000Y-72820000D01*
X214520000Y-66880000D02*
X214750000Y-66880000D01*
X214520000Y-67740000D02*
X214750000Y-67740000D01*
X214750000Y-65930000D02*
X214750000Y-73770000D01*
X214750000Y-68580000D02*
X217510000Y-68580000D01*
X214750000Y-71120000D02*
X217510000Y-71120000D01*
X214750000Y-73770000D02*
X217510000Y-73770000D01*
X217510000Y-65930000D02*
X214750000Y-65930000D01*
X217510000Y-69420000D02*
X223510000Y-69420000D01*
X217510000Y-71960000D02*
X223510000Y-71960000D01*
X217510000Y-73770000D02*
X217510000Y-65930000D01*
X223510000Y-69420000D02*
X223510000Y-70280000D01*
X223510000Y-70280000D02*
X217510000Y-70280000D01*
X223510000Y-71960000D02*
X223510000Y-72820000D01*
X223510000Y-72820000D02*
X217510000Y-72820000D01*
X217510000Y-66880000D02*
X223510000Y-66880000D01*
X223510000Y-67740000D01*
X217510000Y-67740000D01*
X217510000Y-66880000D01*
G36*
X217510000Y-66880000D02*
G01*
X223510000Y-66880000D01*
X223510000Y-67740000D01*
X217510000Y-67740000D01*
X217510000Y-66880000D01*
G37*
%TO.C,J20_L_{5}_TIBIA1*%
X184150000Y-50800000D02*
X185420000Y-50800000D01*
X184150000Y-52070000D02*
X184150000Y-50800000D01*
X186497358Y-54180000D02*
X186810000Y-54180000D01*
X186497358Y-55040000D02*
X186810000Y-55040000D01*
X186497358Y-56720000D02*
X186810000Y-56720000D01*
X186497358Y-57580000D02*
X186810000Y-57580000D01*
X186580000Y-51640000D02*
X186810000Y-51640000D01*
X186580000Y-52500000D02*
X186810000Y-52500000D01*
X186810000Y-50690000D02*
X186810000Y-58530000D01*
X186810000Y-53340000D02*
X189570000Y-53340000D01*
X186810000Y-55880000D02*
X189570000Y-55880000D01*
X186810000Y-58530000D02*
X189570000Y-58530000D01*
X189570000Y-50690000D02*
X186810000Y-50690000D01*
X189570000Y-54180000D02*
X195570000Y-54180000D01*
X189570000Y-56720000D02*
X195570000Y-56720000D01*
X189570000Y-58530000D02*
X189570000Y-50690000D01*
X195570000Y-54180000D02*
X195570000Y-55040000D01*
X195570000Y-55040000D02*
X189570000Y-55040000D01*
X195570000Y-56720000D02*
X195570000Y-57580000D01*
X195570000Y-57580000D02*
X189570000Y-57580000D01*
X189570000Y-51640000D02*
X195570000Y-51640000D01*
X195570000Y-52500000D01*
X189570000Y-52500000D01*
X189570000Y-51640000D01*
G36*
X189570000Y-51640000D02*
G01*
X195570000Y-51640000D01*
X195570000Y-52500000D01*
X189570000Y-52500000D01*
X189570000Y-51640000D01*
G37*
%TO.C,J3*%
X170180000Y-120410000D02*
X180420000Y-120410000D01*
X170180000Y-123430000D02*
X180420000Y-123430000D01*
X170180000Y-128330000D02*
X180420000Y-128330000D01*
X170180000Y-129830000D02*
X180420000Y-129830000D01*
X170180000Y-130450000D02*
X170180000Y-120410000D01*
X172500000Y-130450000D02*
X170180000Y-130450000D01*
X180420000Y-120410000D02*
X180420000Y-130450000D01*
X180420000Y-130450000D02*
X173100000Y-130450000D01*
X173240000Y-131060000D02*
X172360000Y-131060000D01*
X172800000Y-130450000D01*
X173240000Y-131060000D01*
G36*
X173240000Y-131060000D02*
G01*
X172360000Y-131060000D01*
X172800000Y-130450000D01*
X173240000Y-131060000D01*
G37*
%TO.C,C1*%
X156647755Y-80535000D02*
X158247755Y-80535000D01*
X157447755Y-79735000D02*
X157447755Y-81335000D01*
X165337246Y-77010000D02*
X165337246Y-93170000D01*
X165377246Y-77010000D02*
X165377246Y-93170000D01*
X165417246Y-77010000D02*
X165417246Y-93170000D01*
X165457246Y-77011000D02*
X165457246Y-93169000D01*
X165497246Y-77012000D02*
X165497246Y-93168000D01*
X165537246Y-77012000D02*
X165537246Y-93168000D01*
X165577246Y-77014000D02*
X165577246Y-93166000D01*
X165617246Y-77015000D02*
X165617246Y-93165000D01*
X165657246Y-77016000D02*
X165657246Y-93164000D01*
X165697246Y-77018000D02*
X165697246Y-93162000D01*
X165737246Y-77020000D02*
X165737246Y-93160000D01*
X165777246Y-77022000D02*
X165777246Y-93158000D01*
X165817246Y-77024000D02*
X165817246Y-93156000D01*
X165857246Y-77027000D02*
X165857246Y-93153000D01*
X165897246Y-77029000D02*
X165897246Y-93151000D01*
X165937246Y-77032000D02*
X165937246Y-93148000D01*
X165977246Y-77035000D02*
X165977246Y-93145000D01*
X166017246Y-77039000D02*
X166017246Y-93141000D01*
X166057246Y-77042000D02*
X166057246Y-93138000D01*
X166097246Y-77046000D02*
X166097246Y-93134000D01*
X166137246Y-77050000D02*
X166137246Y-93130000D01*
X166177246Y-77054000D02*
X166177246Y-93126000D01*
X166217246Y-77058000D02*
X166217246Y-93122000D01*
X166257246Y-77062000D02*
X166257246Y-93118000D01*
X166297246Y-77067000D02*
X166297246Y-93113000D01*
X166337246Y-77072000D02*
X166337246Y-93108000D01*
X166377246Y-77077000D02*
X166377246Y-93103000D01*
X166417246Y-77082000D02*
X166417246Y-93098000D01*
X166457246Y-77088000D02*
X166457246Y-93092000D01*
X166497246Y-77093000D02*
X166497246Y-93087000D01*
X166537246Y-77099000D02*
X166537246Y-93081000D01*
X166577246Y-77105000D02*
X166577246Y-93075000D01*
X166617246Y-77112000D02*
X166617246Y-93068000D01*
X166657246Y-77118000D02*
X166657246Y-93062000D01*
X166697246Y-77125000D02*
X166697246Y-93055000D01*
X166737246Y-77132000D02*
X166737246Y-93048000D01*
X166777246Y-77139000D02*
X166777246Y-93041000D01*
X166817246Y-77146000D02*
X166817246Y-93034000D01*
X166857246Y-77154000D02*
X166857246Y-93026000D01*
X166897246Y-77161000D02*
X166897246Y-93019000D01*
X166937246Y-77169000D02*
X166937246Y-93011000D01*
X166977246Y-77177000D02*
X166977246Y-93003000D01*
X167017246Y-77186000D02*
X167017246Y-92994000D01*
X167057246Y-77194000D02*
X167057246Y-92986000D01*
X167097246Y-77203000D02*
X167097246Y-92977000D01*
X167137246Y-77212000D02*
X167137246Y-92968000D01*
X167177246Y-77221000D02*
X167177246Y-92959000D01*
X167217246Y-77231000D02*
X167217246Y-92949000D01*
X167257246Y-77240000D02*
X167257246Y-92940000D01*
X167297246Y-77250000D02*
X167297246Y-92930000D01*
X167337246Y-77260000D02*
X167337246Y-92920000D01*
X167377246Y-77270000D02*
X167377246Y-92910000D01*
X167417246Y-77281000D02*
X167417246Y-92899000D01*
X167457246Y-77292000D02*
X167457246Y-92888000D01*
X167497246Y-77303000D02*
X167497246Y-92877000D01*
X167537246Y-77314000D02*
X167537246Y-92866000D01*
X167577246Y-77325000D02*
X167577246Y-92855000D01*
X167617246Y-77337000D02*
X167617246Y-92843000D01*
X167657246Y-77348000D02*
X167657246Y-83650000D01*
X167657246Y-86530000D02*
X167657246Y-92832000D01*
X167697246Y-77361000D02*
X167697246Y-83650000D01*
X167697246Y-86530000D02*
X167697246Y-92819000D01*
X167737246Y-77373000D02*
X167737246Y-83650000D01*
X167737246Y-86530000D02*
X167737246Y-92807000D01*
X167777246Y-77385000D02*
X167777246Y-83650000D01*
X167777246Y-86530000D02*
X167777246Y-92795000D01*
X167817246Y-77398000D02*
X167817246Y-83650000D01*
X167817246Y-86530000D02*
X167817246Y-92782000D01*
X167857246Y-77411000D02*
X167857246Y-83650000D01*
X167857246Y-86530000D02*
X167857246Y-92769000D01*
X167897246Y-77424000D02*
X167897246Y-83650000D01*
X167897246Y-86530000D02*
X167897246Y-92756000D01*
X167937246Y-77438000D02*
X167937246Y-83650000D01*
X167937246Y-86530000D02*
X167937246Y-92742000D01*
X167977246Y-77451000D02*
X167977246Y-83650000D01*
X167977246Y-86530000D02*
X167977246Y-92729000D01*
X168017246Y-77465000D02*
X168017246Y-83650000D01*
X168017246Y-86530000D02*
X168017246Y-92715000D01*
X168057246Y-77479000D02*
X168057246Y-83650000D01*
X168057246Y-86530000D02*
X168057246Y-92701000D01*
X168097246Y-77493000D02*
X168097246Y-83650000D01*
X168097246Y-86530000D02*
X168097246Y-92687000D01*
X168137246Y-77508000D02*
X168137246Y-83650000D01*
X168137246Y-86530000D02*
X168137246Y-92672000D01*
X168177246Y-77523000D02*
X168177246Y-83650000D01*
X168177246Y-86530000D02*
X168177246Y-92657000D01*
X168217246Y-77538000D02*
X168217246Y-83650000D01*
X168217246Y-86530000D02*
X168217246Y-92642000D01*
X168257246Y-77553000D02*
X168257246Y-83650000D01*
X168257246Y-86530000D02*
X168257246Y-92627000D01*
X168297246Y-77569000D02*
X168297246Y-83650000D01*
X168297246Y-86530000D02*
X168297246Y-92611000D01*
X168337246Y-77585000D02*
X168337246Y-83650000D01*
X168337246Y-86530000D02*
X168337246Y-92595000D01*
X168377246Y-77601000D02*
X168377246Y-83650000D01*
X168377246Y-86530000D02*
X168377246Y-92579000D01*
X168417246Y-77617000D02*
X168417246Y-83650000D01*
X168417246Y-86530000D02*
X168417246Y-92563000D01*
X168457246Y-77633000D02*
X168457246Y-83650000D01*
X168457246Y-86530000D02*
X168457246Y-92547000D01*
X168497246Y-77650000D02*
X168497246Y-83650000D01*
X168497246Y-86530000D02*
X168497246Y-92530000D01*
X168537246Y-77667000D02*
X168537246Y-83650000D01*
X168537246Y-86530000D02*
X168537246Y-92513000D01*
X168577246Y-77684000D02*
X168577246Y-83650000D01*
X168577246Y-86530000D02*
X168577246Y-92496000D01*
X168617246Y-77702000D02*
X168617246Y-83650000D01*
X168617246Y-86530000D02*
X168617246Y-92478000D01*
X168657246Y-77720000D02*
X168657246Y-83650000D01*
X168657246Y-86530000D02*
X168657246Y-92460000D01*
X168697246Y-77738000D02*
X168697246Y-83650000D01*
X168697246Y-86530000D02*
X168697246Y-92442000D01*
X168737246Y-77756000D02*
X168737246Y-83650000D01*
X168737246Y-86530000D02*
X168737246Y-92424000D01*
X168777246Y-77775000D02*
X168777246Y-83650000D01*
X168777246Y-86530000D02*
X168777246Y-92405000D01*
X168817246Y-77794000D02*
X168817246Y-83650000D01*
X168817246Y-86530000D02*
X168817246Y-92386000D01*
X168857246Y-77813000D02*
X168857246Y-83650000D01*
X168857246Y-86530000D02*
X168857246Y-92367000D01*
X168897246Y-77832000D02*
X168897246Y-83650000D01*
X168897246Y-86530000D02*
X168897246Y-92348000D01*
X168937246Y-77852000D02*
X168937246Y-83650000D01*
X168937246Y-86530000D02*
X168937246Y-92328000D01*
X168977246Y-77872000D02*
X168977246Y-83650000D01*
X168977246Y-86530000D02*
X168977246Y-92308000D01*
X169017246Y-77892000D02*
X169017246Y-83650000D01*
X169017246Y-86530000D02*
X169017246Y-92288000D01*
X169057246Y-77912000D02*
X169057246Y-83650000D01*
X169057246Y-86530000D02*
X169057246Y-92268000D01*
X169097246Y-77933000D02*
X169097246Y-83650000D01*
X169097246Y-86530000D02*
X169097246Y-92247000D01*
X169137246Y-77954000D02*
X169137246Y-83650000D01*
X169137246Y-86530000D02*
X169137246Y-92226000D01*
X169177246Y-77975000D02*
X169177246Y-83650000D01*
X169177246Y-86530000D02*
X169177246Y-92205000D01*
X169217246Y-77997000D02*
X169217246Y-83650000D01*
X169217246Y-86530000D02*
X169217246Y-92183000D01*
X169257246Y-78019000D02*
X169257246Y-83650000D01*
X169257246Y-86530000D02*
X169257246Y-92161000D01*
X169297246Y-78041000D02*
X169297246Y-83650000D01*
X169297246Y-86530000D02*
X169297246Y-92139000D01*
X169337246Y-78064000D02*
X169337246Y-83650000D01*
X169337246Y-86530000D02*
X169337246Y-92116000D01*
X169377246Y-78086000D02*
X169377246Y-83650000D01*
X169377246Y-86530000D02*
X169377246Y-92094000D01*
X169417246Y-78109000D02*
X169417246Y-83650000D01*
X169417246Y-86530000D02*
X169417246Y-92071000D01*
X169457246Y-78133000D02*
X169457246Y-83650000D01*
X169457246Y-86530000D02*
X169457246Y-92047000D01*
X169497246Y-78157000D02*
X169497246Y-83650000D01*
X169497246Y-86530000D02*
X169497246Y-92023000D01*
X169537246Y-78181000D02*
X169537246Y-83650000D01*
X169537246Y-86530000D02*
X169537246Y-91999000D01*
X169577246Y-78205000D02*
X169577246Y-83650000D01*
X169577246Y-86530000D02*
X169577246Y-91975000D01*
X169617246Y-78230000D02*
X169617246Y-83650000D01*
X169617246Y-86530000D02*
X169617246Y-91950000D01*
X169657246Y-78255000D02*
X169657246Y-83650000D01*
X169657246Y-86530000D02*
X169657246Y-91925000D01*
X169697246Y-78280000D02*
X169697246Y-83650000D01*
X169697246Y-86530000D02*
X169697246Y-91900000D01*
X169737246Y-78305000D02*
X169737246Y-83650000D01*
X169737246Y-86530000D02*
X169737246Y-91875000D01*
X169777246Y-78331000D02*
X169777246Y-83650000D01*
X169777246Y-86530000D02*
X169777246Y-91849000D01*
X169817246Y-78358000D02*
X169817246Y-83650000D01*
X169817246Y-86530000D02*
X169817246Y-91822000D01*
X169857246Y-78384000D02*
X169857246Y-83650000D01*
X169857246Y-86530000D02*
X169857246Y-91796000D01*
X169897246Y-78411000D02*
X169897246Y-83650000D01*
X169897246Y-86530000D02*
X169897246Y-91769000D01*
X169937246Y-78439000D02*
X169937246Y-83650000D01*
X169937246Y-86530000D02*
X169937246Y-91741000D01*
X169977246Y-78466000D02*
X169977246Y-83650000D01*
X169977246Y-86530000D02*
X169977246Y-91714000D01*
X170017246Y-78494000D02*
X170017246Y-83650000D01*
X170017246Y-86530000D02*
X170017246Y-91686000D01*
X170057246Y-78523000D02*
X170057246Y-83650000D01*
X170057246Y-86530000D02*
X170057246Y-91657000D01*
X170097246Y-78551000D02*
X170097246Y-83650000D01*
X170097246Y-86530000D02*
X170097246Y-91629000D01*
X170137246Y-78581000D02*
X170137246Y-83650000D01*
X170137246Y-86530000D02*
X170137246Y-91599000D01*
X170177246Y-78610000D02*
X170177246Y-83650000D01*
X170177246Y-86530000D02*
X170177246Y-91570000D01*
X170217246Y-78640000D02*
X170217246Y-83650000D01*
X170217246Y-86530000D02*
X170217246Y-91540000D01*
X170257246Y-78670000D02*
X170257246Y-83650000D01*
X170257246Y-86530000D02*
X170257246Y-91510000D01*
X170297246Y-78701000D02*
X170297246Y-83650000D01*
X170297246Y-86530000D02*
X170297246Y-91479000D01*
X170337246Y-78732000D02*
X170337246Y-83650000D01*
X170337246Y-86530000D02*
X170337246Y-91448000D01*
X170377246Y-78763000D02*
X170377246Y-83650000D01*
X170377246Y-86530000D02*
X170377246Y-91417000D01*
X170417246Y-78795000D02*
X170417246Y-83650000D01*
X170417246Y-86530000D02*
X170417246Y-91385000D01*
X170457246Y-78828000D02*
X170457246Y-83650000D01*
X170457246Y-86530000D02*
X170457246Y-91352000D01*
X170497246Y-78860000D02*
X170497246Y-83650000D01*
X170497246Y-86530000D02*
X170497246Y-91320000D01*
X170537246Y-78893000D02*
X170537246Y-91287000D01*
X170577246Y-78927000D02*
X170577246Y-91253000D01*
X170617246Y-78961000D02*
X170617246Y-91219000D01*
X170657246Y-78996000D02*
X170657246Y-91184000D01*
X170697246Y-79030000D02*
X170697246Y-91150000D01*
X170737246Y-79066000D02*
X170737246Y-91114000D01*
X170777246Y-79102000D02*
X170777246Y-91078000D01*
X170817246Y-79138000D02*
X170817246Y-91042000D01*
X170857246Y-79175000D02*
X170857246Y-91005000D01*
X170897246Y-79212000D02*
X170897246Y-90968000D01*
X170937246Y-79250000D02*
X170937246Y-90930000D01*
X170977246Y-79288000D02*
X170977246Y-90892000D01*
X171017246Y-79327000D02*
X171017246Y-90853000D01*
X171057246Y-79367000D02*
X171057246Y-90813000D01*
X171097246Y-79407000D02*
X171097246Y-90773000D01*
X171137246Y-79447000D02*
X171137246Y-90733000D01*
X171177246Y-79488000D02*
X171177246Y-90692000D01*
X171217246Y-79530000D02*
X171217246Y-90650000D01*
X171257246Y-79572000D02*
X171257246Y-90608000D01*
X171297246Y-79615000D02*
X171297246Y-90565000D01*
X171337246Y-79659000D02*
X171337246Y-90521000D01*
X171377246Y-79703000D02*
X171377246Y-90477000D01*
X171417246Y-79748000D02*
X171417246Y-90432000D01*
X171457246Y-79793000D02*
X171457246Y-90387000D01*
X171497246Y-79840000D02*
X171497246Y-90340000D01*
X171537246Y-79886000D02*
X171537246Y-90294000D01*
X171577246Y-79934000D02*
X171577246Y-90246000D01*
X171617246Y-79983000D02*
X171617246Y-90197000D01*
X171657246Y-80032000D02*
X171657246Y-90148000D01*
X171697246Y-80082000D02*
X171697246Y-90098000D01*
X171737246Y-80133000D02*
X171737246Y-90047000D01*
X171777246Y-80184000D02*
X171777246Y-89996000D01*
X171817246Y-80237000D02*
X171817246Y-89943000D01*
X171857246Y-80290000D02*
X171857246Y-89890000D01*
X171897246Y-80345000D02*
X171897246Y-89835000D01*
X171937246Y-80400000D02*
X171937246Y-89780000D01*
X171977246Y-80456000D02*
X171977246Y-89724000D01*
X172017246Y-80514000D02*
X172017246Y-89666000D01*
X172057246Y-80572000D02*
X172057246Y-89608000D01*
X172097246Y-80631000D02*
X172097246Y-89549000D01*
X172137246Y-80692000D02*
X172137246Y-89488000D01*
X172177246Y-80754000D02*
X172177246Y-89426000D01*
X172217246Y-80817000D02*
X172217246Y-89363000D01*
X172257246Y-80882000D02*
X172257246Y-89298000D01*
X172297246Y-80948000D02*
X172297246Y-89232000D01*
X172337246Y-81015000D02*
X172337246Y-89165000D01*
X172377246Y-81084000D02*
X172377246Y-89096000D01*
X172417246Y-81154000D02*
X172417246Y-89026000D01*
X172457246Y-81226000D02*
X172457246Y-88954000D01*
X172497246Y-81300000D02*
X172497246Y-88880000D01*
X172537246Y-81376000D02*
X172537246Y-88804000D01*
X172577246Y-81453000D02*
X172577246Y-88727000D01*
X172617246Y-81533000D02*
X172617246Y-88647000D01*
X172657246Y-81615000D02*
X172657246Y-88565000D01*
X172697246Y-81700000D02*
X172697246Y-88480000D01*
X172737246Y-81787000D02*
X172737246Y-88393000D01*
X172777246Y-81877000D02*
X172777246Y-88303000D01*
X172817246Y-81970000D02*
X172817246Y-88210000D01*
X172857246Y-82067000D02*
X172857246Y-88113000D01*
X172897246Y-82167000D02*
X172897246Y-88013000D01*
X172937246Y-82271000D02*
X172937246Y-87909000D01*
X172977246Y-82380000D02*
X172977246Y-87800000D01*
X173017246Y-82493000D02*
X173017246Y-87687000D01*
X173057246Y-82613000D02*
X173057246Y-87567000D01*
X173097246Y-82739000D02*
X173097246Y-87441000D01*
X173137246Y-82873000D02*
X173137246Y-87307000D01*
X173177246Y-83016000D02*
X173177246Y-87164000D01*
X173217246Y-83170000D02*
X173217246Y-87010000D01*
X173257246Y-83339000D02*
X173257246Y-86841000D01*
X173297246Y-83526000D02*
X173297246Y-86654000D01*
X173337246Y-83739000D02*
X173337246Y-86441000D01*
X173377246Y-83993000D02*
X173377246Y-86187000D01*
X173417246Y-84325000D02*
X173417246Y-85855000D01*
X173457246Y-85090000D02*
G75*
G02*
X157217246Y-85090000I-8120000J0D01*
G01*
X157217246Y-85090000D02*
G75*
G02*
X173457246Y-85090000I8120000J0D01*
G01*
%TO.C,J2*%
X156210000Y-120410000D02*
X166450000Y-120410000D01*
X156210000Y-123430000D02*
X166450000Y-123430000D01*
X156210000Y-128330000D02*
X166450000Y-128330000D01*
X156210000Y-129830000D02*
X166450000Y-129830000D01*
X156210000Y-130450000D02*
X156210000Y-120410000D01*
X158530000Y-130450000D02*
X156210000Y-130450000D01*
X166450000Y-120410000D02*
X166450000Y-130450000D01*
X166450000Y-130450000D02*
X159130000Y-130450000D01*
X159270000Y-131060000D02*
X158390000Y-131060000D01*
X158830000Y-130450000D01*
X159270000Y-131060000D01*
G36*
X159270000Y-131060000D02*
G01*
X158390000Y-131060000D01*
X158830000Y-130450000D01*
X159270000Y-131060000D01*
G37*
%TO.C,J10_L_{3}_COXA1*%
X126890000Y-127120000D02*
X126890000Y-129880000D01*
X126890000Y-129880000D02*
X134730000Y-129880000D01*
X127840000Y-126807358D02*
X127840000Y-127120000D01*
X127840000Y-135880000D02*
X127840000Y-129880000D01*
X128700000Y-126807358D02*
X128700000Y-127120000D01*
X128700000Y-129880000D02*
X128700000Y-135880000D01*
X128700000Y-135880000D02*
X127840000Y-135880000D01*
X129540000Y-127120000D02*
X129540000Y-129880000D01*
X130380000Y-126807358D02*
X130380000Y-127120000D01*
X130380000Y-135880000D02*
X130380000Y-129880000D01*
X131240000Y-126807358D02*
X131240000Y-127120000D01*
X131240000Y-129880000D02*
X131240000Y-135880000D01*
X131240000Y-135880000D02*
X130380000Y-135880000D01*
X132080000Y-127120000D02*
X132080000Y-129880000D01*
X132920000Y-126890000D02*
X132920000Y-127120000D01*
X133350000Y-124460000D02*
X134620000Y-124460000D01*
X133780000Y-126890000D02*
X133780000Y-127120000D01*
X134620000Y-124460000D02*
X134620000Y-125730000D01*
X134730000Y-127120000D02*
X126890000Y-127120000D01*
X134730000Y-129880000D02*
X134730000Y-127120000D01*
X133780000Y-129880000D02*
X132920000Y-129880000D01*
X132920000Y-135880000D01*
X133780000Y-135880000D01*
X133780000Y-129880000D01*
G36*
X133780000Y-129880000D02*
G01*
X132920000Y-129880000D01*
X132920000Y-135880000D01*
X133780000Y-135880000D01*
X133780000Y-129880000D01*
G37*
%TO.C,J8_L_{2}_FEMUR1*%
X152410000Y-59260000D02*
X158410000Y-59260000D01*
X152410000Y-60120000D02*
X152410000Y-59260000D01*
X152410000Y-61800000D02*
X158410000Y-61800000D01*
X152410000Y-62660000D02*
X152410000Y-61800000D01*
X158410000Y-58310000D02*
X158410000Y-66150000D01*
X158410000Y-60120000D02*
X152410000Y-60120000D01*
X158410000Y-62660000D02*
X152410000Y-62660000D01*
X158410000Y-66150000D02*
X161170000Y-66150000D01*
X161170000Y-58310000D02*
X158410000Y-58310000D01*
X161170000Y-60960000D02*
X158410000Y-60960000D01*
X161170000Y-63500000D02*
X158410000Y-63500000D01*
X161170000Y-66150000D02*
X161170000Y-58310000D01*
X161400000Y-64340000D02*
X161170000Y-64340000D01*
X161400000Y-65200000D02*
X161170000Y-65200000D01*
X161482642Y-59260000D02*
X161170000Y-59260000D01*
X161482642Y-60120000D02*
X161170000Y-60120000D01*
X161482642Y-61800000D02*
X161170000Y-61800000D01*
X161482642Y-62660000D02*
X161170000Y-62660000D01*
X163830000Y-64770000D02*
X163830000Y-66040000D01*
X163830000Y-66040000D02*
X162560000Y-66040000D01*
X158410000Y-65200000D02*
X152410000Y-65200000D01*
X152410000Y-64340000D01*
X158410000Y-64340000D01*
X158410000Y-65200000D01*
G36*
X158410000Y-65200000D02*
G01*
X152410000Y-65200000D01*
X152410000Y-64340000D01*
X158410000Y-64340000D01*
X158410000Y-65200000D01*
G37*
%TO.C,J13_L_{4}_FEMUR1*%
X206900000Y-127120000D02*
X206900000Y-129880000D01*
X206900000Y-129880000D02*
X214740000Y-129880000D01*
X207850000Y-126807358D02*
X207850000Y-127120000D01*
X207850000Y-135880000D02*
X207850000Y-129880000D01*
X208710000Y-126807358D02*
X208710000Y-127120000D01*
X208710000Y-129880000D02*
X208710000Y-135880000D01*
X208710000Y-135880000D02*
X207850000Y-135880000D01*
X209550000Y-127120000D02*
X209550000Y-129880000D01*
X210390000Y-126807358D02*
X210390000Y-127120000D01*
X210390000Y-135880000D02*
X210390000Y-129880000D01*
X211250000Y-126807358D02*
X211250000Y-127120000D01*
X211250000Y-129880000D02*
X211250000Y-135880000D01*
X211250000Y-135880000D02*
X210390000Y-135880000D01*
X212090000Y-127120000D02*
X212090000Y-129880000D01*
X212930000Y-126890000D02*
X212930000Y-127120000D01*
X213360000Y-124460000D02*
X214630000Y-124460000D01*
X213790000Y-126890000D02*
X213790000Y-127120000D01*
X214630000Y-124460000D02*
X214630000Y-125730000D01*
X214740000Y-127120000D02*
X206900000Y-127120000D01*
X214740000Y-129880000D02*
X214740000Y-127120000D01*
X213790000Y-129880000D02*
X212930000Y-129880000D01*
X212930000Y-135880000D01*
X213790000Y-135880000D01*
X213790000Y-129880000D01*
G36*
X213790000Y-129880000D02*
G01*
X212930000Y-129880000D01*
X212930000Y-135880000D01*
X213790000Y-135880000D01*
X213790000Y-129880000D01*
G37*
%TO.C,J1_L_{1}_COXA1*%
X124470000Y-66880000D02*
X130470000Y-66880000D01*
X124470000Y-67740000D02*
X124470000Y-66880000D01*
X124470000Y-69420000D02*
X130470000Y-69420000D01*
X124470000Y-70280000D02*
X124470000Y-69420000D01*
X130470000Y-65930000D02*
X130470000Y-73770000D01*
X130470000Y-67740000D02*
X124470000Y-67740000D01*
X130470000Y-70280000D02*
X124470000Y-70280000D01*
X130470000Y-73770000D02*
X133230000Y-73770000D01*
X133230000Y-65930000D02*
X130470000Y-65930000D01*
X133230000Y-68580000D02*
X130470000Y-68580000D01*
X133230000Y-71120000D02*
X130470000Y-71120000D01*
X133230000Y-73770000D02*
X133230000Y-65930000D01*
X133460000Y-71960000D02*
X133230000Y-71960000D01*
X133460000Y-72820000D02*
X133230000Y-72820000D01*
X133542642Y-66880000D02*
X133230000Y-66880000D01*
X133542642Y-67740000D02*
X133230000Y-67740000D01*
X133542642Y-69420000D02*
X133230000Y-69420000D01*
X133542642Y-70280000D02*
X133230000Y-70280000D01*
X135890000Y-72390000D02*
X135890000Y-73660000D01*
X135890000Y-73660000D02*
X134620000Y-73660000D01*
X130470000Y-72820000D02*
X124470000Y-72820000D01*
X124470000Y-71960000D01*
X130470000Y-71960000D01*
X130470000Y-72820000D01*
G36*
X130470000Y-72820000D02*
G01*
X124470000Y-72820000D01*
X124470000Y-71960000D01*
X130470000Y-71960000D01*
X130470000Y-72820000D01*
G37*
%TO.C,J12_L_{3}_FEMUR1*%
X134510000Y-127120000D02*
X134510000Y-129880000D01*
X134510000Y-129880000D02*
X142350000Y-129880000D01*
X135460000Y-126807358D02*
X135460000Y-127120000D01*
X135460000Y-135880000D02*
X135460000Y-129880000D01*
X136320000Y-126807358D02*
X136320000Y-127120000D01*
X136320000Y-129880000D02*
X136320000Y-135880000D01*
X136320000Y-135880000D02*
X135460000Y-135880000D01*
X137160000Y-127120000D02*
X137160000Y-129880000D01*
X138000000Y-126807358D02*
X138000000Y-127120000D01*
X138000000Y-135880000D02*
X138000000Y-129880000D01*
X138860000Y-126807358D02*
X138860000Y-127120000D01*
X138860000Y-129880000D02*
X138860000Y-135880000D01*
X138860000Y-135880000D02*
X138000000Y-135880000D01*
X139700000Y-127120000D02*
X139700000Y-129880000D01*
X140540000Y-126890000D02*
X140540000Y-127120000D01*
X140970000Y-124460000D02*
X142240000Y-124460000D01*
X141400000Y-126890000D02*
X141400000Y-127120000D01*
X142240000Y-124460000D02*
X142240000Y-125730000D01*
X142350000Y-127120000D02*
X134510000Y-127120000D01*
X142350000Y-129880000D02*
X142350000Y-127120000D01*
X141400000Y-129880000D02*
X140540000Y-129880000D01*
X140540000Y-135880000D01*
X141400000Y-135880000D01*
X141400000Y-129880000D01*
G36*
X141400000Y-129880000D02*
G01*
X140540000Y-129880000D01*
X140540000Y-135880000D01*
X141400000Y-135880000D01*
X141400000Y-129880000D01*
G37*
%TO.C,J4*%
X181530000Y-120410000D02*
X191770000Y-120410000D01*
X181530000Y-123430000D02*
X191770000Y-123430000D01*
X181530000Y-128330000D02*
X191770000Y-128330000D01*
X181530000Y-129830000D02*
X191770000Y-129830000D01*
X181530000Y-130450000D02*
X181530000Y-120410000D01*
X183850000Y-130450000D02*
X181530000Y-130450000D01*
X191770000Y-120410000D02*
X191770000Y-130450000D01*
X191770000Y-130450000D02*
X184450000Y-130450000D01*
X184590000Y-131060000D02*
X183710000Y-131060000D01*
X184150000Y-130450000D01*
X184590000Y-131060000D01*
G36*
X184590000Y-131060000D02*
G01*
X183710000Y-131060000D01*
X184150000Y-130450000D01*
X184590000Y-131060000D01*
G37*
%TO.C,J16_L_{5}_COXA1*%
X184150000Y-66040000D02*
X185420000Y-66040000D01*
X184150000Y-67310000D02*
X184150000Y-66040000D01*
X186497358Y-69420000D02*
X186810000Y-69420000D01*
X186497358Y-70280000D02*
X186810000Y-70280000D01*
X186497358Y-71960000D02*
X186810000Y-71960000D01*
X186497358Y-72820000D02*
X186810000Y-72820000D01*
X186580000Y-66880000D02*
X186810000Y-66880000D01*
X186580000Y-67740000D02*
X186810000Y-67740000D01*
X186810000Y-65930000D02*
X186810000Y-73770000D01*
X186810000Y-68580000D02*
X189570000Y-68580000D01*
X186810000Y-71120000D02*
X189570000Y-71120000D01*
X186810000Y-73770000D02*
X189570000Y-73770000D01*
X189570000Y-65930000D02*
X186810000Y-65930000D01*
X189570000Y-69420000D02*
X195570000Y-69420000D01*
X189570000Y-71960000D02*
X195570000Y-71960000D01*
X189570000Y-73770000D02*
X189570000Y-65930000D01*
X195570000Y-69420000D02*
X195570000Y-70280000D01*
X195570000Y-70280000D02*
X189570000Y-70280000D01*
X195570000Y-71960000D02*
X195570000Y-72820000D01*
X195570000Y-72820000D02*
X189570000Y-72820000D01*
X189570000Y-66880000D02*
X195570000Y-66880000D01*
X195570000Y-67740000D01*
X189570000Y-67740000D01*
X189570000Y-66880000D01*
G36*
X189570000Y-66880000D02*
G01*
X195570000Y-66880000D01*
X195570000Y-67740000D01*
X189570000Y-67740000D01*
X189570000Y-66880000D01*
G37*
%TO.C,J11_L_{4}_COXA1*%
X199280000Y-127120000D02*
X199280000Y-129880000D01*
X199280000Y-129880000D02*
X207120000Y-129880000D01*
X200230000Y-126807358D02*
X200230000Y-127120000D01*
X200230000Y-135880000D02*
X200230000Y-129880000D01*
X201090000Y-126807358D02*
X201090000Y-127120000D01*
X201090000Y-129880000D02*
X201090000Y-135880000D01*
X201090000Y-135880000D02*
X200230000Y-135880000D01*
X201930000Y-127120000D02*
X201930000Y-129880000D01*
X202770000Y-126807358D02*
X202770000Y-127120000D01*
X202770000Y-135880000D02*
X202770000Y-129880000D01*
X203630000Y-126807358D02*
X203630000Y-127120000D01*
X203630000Y-129880000D02*
X203630000Y-135880000D01*
X203630000Y-135880000D02*
X202770000Y-135880000D01*
X204470000Y-127120000D02*
X204470000Y-129880000D01*
X205310000Y-126890000D02*
X205310000Y-127120000D01*
X205740000Y-124460000D02*
X207010000Y-124460000D01*
X206170000Y-126890000D02*
X206170000Y-127120000D01*
X207010000Y-124460000D02*
X207010000Y-125730000D01*
X207120000Y-127120000D02*
X199280000Y-127120000D01*
X207120000Y-129880000D02*
X207120000Y-127120000D01*
X206170000Y-129880000D02*
X205310000Y-129880000D01*
X205310000Y-135880000D01*
X206170000Y-135880000D01*
X206170000Y-129880000D01*
G36*
X206170000Y-129880000D02*
G01*
X205310000Y-129880000D01*
X205310000Y-135880000D01*
X206170000Y-135880000D01*
X206170000Y-129880000D01*
G37*
%TO.C,J6_L_{1}_TIBIA1*%
X124470000Y-51640000D02*
X130470000Y-51640000D01*
X124470000Y-52500000D02*
X124470000Y-51640000D01*
X124470000Y-54180000D02*
X130470000Y-54180000D01*
X124470000Y-55040000D02*
X124470000Y-54180000D01*
X130470000Y-50690000D02*
X130470000Y-58530000D01*
X130470000Y-52500000D02*
X124470000Y-52500000D01*
X130470000Y-55040000D02*
X124470000Y-55040000D01*
X130470000Y-58530000D02*
X133230000Y-58530000D01*
X133230000Y-50690000D02*
X130470000Y-50690000D01*
X133230000Y-53340000D02*
X130470000Y-53340000D01*
X133230000Y-55880000D02*
X130470000Y-55880000D01*
X133230000Y-58530000D02*
X133230000Y-50690000D01*
X133460000Y-56720000D02*
X133230000Y-56720000D01*
X133460000Y-57580000D02*
X133230000Y-57580000D01*
X133542642Y-51640000D02*
X133230000Y-51640000D01*
X133542642Y-52500000D02*
X133230000Y-52500000D01*
X133542642Y-54180000D02*
X133230000Y-54180000D01*
X133542642Y-55040000D02*
X133230000Y-55040000D01*
X135890000Y-57150000D02*
X135890000Y-58420000D01*
X135890000Y-58420000D02*
X134620000Y-58420000D01*
X130470000Y-57580000D02*
X124470000Y-57580000D01*
X124470000Y-56720000D01*
X130470000Y-56720000D01*
X130470000Y-57580000D01*
G36*
X130470000Y-57580000D02*
G01*
X124470000Y-57580000D01*
X124470000Y-56720000D01*
X130470000Y-56720000D01*
X130470000Y-57580000D01*
G37*
%TO.C,J15_L_{4}_TIBIA1*%
X214520000Y-127120000D02*
X214520000Y-129880000D01*
X214520000Y-129880000D02*
X222360000Y-129880000D01*
X215470000Y-126807358D02*
X215470000Y-127120000D01*
X215470000Y-135880000D02*
X215470000Y-129880000D01*
X216330000Y-126807358D02*
X216330000Y-127120000D01*
X216330000Y-129880000D02*
X216330000Y-135880000D01*
X216330000Y-135880000D02*
X215470000Y-135880000D01*
X217170000Y-127120000D02*
X217170000Y-129880000D01*
X218010000Y-126807358D02*
X218010000Y-127120000D01*
X218010000Y-135880000D02*
X218010000Y-129880000D01*
X218870000Y-126807358D02*
X218870000Y-127120000D01*
X218870000Y-129880000D02*
X218870000Y-135880000D01*
X218870000Y-135880000D02*
X218010000Y-135880000D01*
X219710000Y-127120000D02*
X219710000Y-129880000D01*
X220550000Y-126890000D02*
X220550000Y-127120000D01*
X220980000Y-124460000D02*
X222250000Y-124460000D01*
X221410000Y-126890000D02*
X221410000Y-127120000D01*
X222250000Y-124460000D02*
X222250000Y-125730000D01*
X222360000Y-127120000D02*
X214520000Y-127120000D01*
X222360000Y-129880000D02*
X222360000Y-127120000D01*
X221410000Y-129880000D02*
X220550000Y-129880000D01*
X220550000Y-135880000D01*
X221410000Y-135880000D01*
X221410000Y-129880000D01*
G36*
X221410000Y-129880000D02*
G01*
X220550000Y-129880000D01*
X220550000Y-135880000D01*
X221410000Y-135880000D01*
X221410000Y-129880000D01*
G37*
%TO.C,J18_L_{5}_FEMUR1*%
X184150000Y-58420000D02*
X185420000Y-58420000D01*
X184150000Y-59690000D02*
X184150000Y-58420000D01*
X186497358Y-61800000D02*
X186810000Y-61800000D01*
X186497358Y-62660000D02*
X186810000Y-62660000D01*
X186497358Y-64340000D02*
X186810000Y-64340000D01*
X186497358Y-65200000D02*
X186810000Y-65200000D01*
X186580000Y-59260000D02*
X186810000Y-59260000D01*
X186580000Y-60120000D02*
X186810000Y-60120000D01*
X186810000Y-58310000D02*
X186810000Y-66150000D01*
X186810000Y-60960000D02*
X189570000Y-60960000D01*
X186810000Y-63500000D02*
X189570000Y-63500000D01*
X186810000Y-66150000D02*
X189570000Y-66150000D01*
X189570000Y-58310000D02*
X186810000Y-58310000D01*
X189570000Y-61800000D02*
X195570000Y-61800000D01*
X189570000Y-64340000D02*
X195570000Y-64340000D01*
X189570000Y-66150000D02*
X189570000Y-58310000D01*
X195570000Y-61800000D02*
X195570000Y-62660000D01*
X195570000Y-62660000D02*
X189570000Y-62660000D01*
X195570000Y-64340000D02*
X195570000Y-65200000D01*
X195570000Y-65200000D02*
X189570000Y-65200000D01*
X189570000Y-59260000D02*
X195570000Y-59260000D01*
X195570000Y-60120000D01*
X189570000Y-60120000D01*
X189570000Y-59260000D01*
G36*
X189570000Y-59260000D02*
G01*
X195570000Y-59260000D01*
X195570000Y-60120000D01*
X189570000Y-60120000D01*
X189570000Y-59260000D01*
G37*
%TO.C,C2*%
X166630509Y-107205000D02*
X168230509Y-107205000D01*
X167430509Y-106405000D02*
X167430509Y-108005000D01*
X175320000Y-103680000D02*
X175320000Y-119840000D01*
X175360000Y-103680000D02*
X175360000Y-119840000D01*
X175400000Y-103680000D02*
X175400000Y-119840000D01*
X175440000Y-103681000D02*
X175440000Y-119839000D01*
X175480000Y-103682000D02*
X175480000Y-119838000D01*
X175520000Y-103682000D02*
X175520000Y-119838000D01*
X175560000Y-103684000D02*
X175560000Y-119836000D01*
X175600000Y-103685000D02*
X175600000Y-119835000D01*
X175640000Y-103686000D02*
X175640000Y-119834000D01*
X175680000Y-103688000D02*
X175680000Y-119832000D01*
X175720000Y-103690000D02*
X175720000Y-119830000D01*
X175760000Y-103692000D02*
X175760000Y-119828000D01*
X175800000Y-103694000D02*
X175800000Y-119826000D01*
X175840000Y-103697000D02*
X175840000Y-119823000D01*
X175880000Y-103699000D02*
X175880000Y-119821000D01*
X175920000Y-103702000D02*
X175920000Y-119818000D01*
X175960000Y-103705000D02*
X175960000Y-119815000D01*
X176000000Y-103709000D02*
X176000000Y-119811000D01*
X176040000Y-103712000D02*
X176040000Y-119808000D01*
X176080000Y-103716000D02*
X176080000Y-119804000D01*
X176120000Y-103720000D02*
X176120000Y-119800000D01*
X176160000Y-103724000D02*
X176160000Y-119796000D01*
X176200000Y-103728000D02*
X176200000Y-119792000D01*
X176240000Y-103732000D02*
X176240000Y-119788000D01*
X176280000Y-103737000D02*
X176280000Y-119783000D01*
X176320000Y-103742000D02*
X176320000Y-119778000D01*
X176360000Y-103747000D02*
X176360000Y-119773000D01*
X176400000Y-103752000D02*
X176400000Y-119768000D01*
X176440000Y-103758000D02*
X176440000Y-119762000D01*
X176480000Y-103763000D02*
X176480000Y-119757000D01*
X176520000Y-103769000D02*
X176520000Y-119751000D01*
X176560000Y-103775000D02*
X176560000Y-119745000D01*
X176600000Y-103782000D02*
X176600000Y-119738000D01*
X176640000Y-103788000D02*
X176640000Y-119732000D01*
X176680000Y-103795000D02*
X176680000Y-119725000D01*
X176720000Y-103802000D02*
X176720000Y-119718000D01*
X176760000Y-103809000D02*
X176760000Y-119711000D01*
X176800000Y-103816000D02*
X176800000Y-119704000D01*
X176840000Y-103824000D02*
X176840000Y-119696000D01*
X176880000Y-103831000D02*
X176880000Y-119689000D01*
X176920000Y-103839000D02*
X176920000Y-119681000D01*
X176960000Y-103847000D02*
X176960000Y-119673000D01*
X177000000Y-103856000D02*
X177000000Y-119664000D01*
X177040000Y-103864000D02*
X177040000Y-119656000D01*
X177080000Y-103873000D02*
X177080000Y-119647000D01*
X177120000Y-103882000D02*
X177120000Y-119638000D01*
X177160000Y-103891000D02*
X177160000Y-119629000D01*
X177200000Y-103901000D02*
X177200000Y-119619000D01*
X177240000Y-103910000D02*
X177240000Y-119610000D01*
X177280000Y-103920000D02*
X177280000Y-119600000D01*
X177320000Y-103930000D02*
X177320000Y-119590000D01*
X177360000Y-103940000D02*
X177360000Y-119580000D01*
X177400000Y-103951000D02*
X177400000Y-119569000D01*
X177440000Y-103962000D02*
X177440000Y-119558000D01*
X177480000Y-103973000D02*
X177480000Y-119547000D01*
X177520000Y-103984000D02*
X177520000Y-119536000D01*
X177560000Y-103995000D02*
X177560000Y-119525000D01*
X177600000Y-104007000D02*
X177600000Y-119513000D01*
X177640000Y-104018000D02*
X177640000Y-110320000D01*
X177640000Y-113200000D02*
X177640000Y-119502000D01*
X177680000Y-104031000D02*
X177680000Y-110320000D01*
X177680000Y-113200000D02*
X177680000Y-119489000D01*
X177720000Y-104043000D02*
X177720000Y-110320000D01*
X177720000Y-113200000D02*
X177720000Y-119477000D01*
X177760000Y-104055000D02*
X177760000Y-110320000D01*
X177760000Y-113200000D02*
X177760000Y-119465000D01*
X177800000Y-104068000D02*
X177800000Y-110320000D01*
X177800000Y-113200000D02*
X177800000Y-119452000D01*
X177840000Y-104081000D02*
X177840000Y-110320000D01*
X177840000Y-113200000D02*
X177840000Y-119439000D01*
X177880000Y-104094000D02*
X177880000Y-110320000D01*
X177880000Y-113200000D02*
X177880000Y-119426000D01*
X177920000Y-104108000D02*
X177920000Y-110320000D01*
X177920000Y-113200000D02*
X177920000Y-119412000D01*
X177960000Y-104121000D02*
X177960000Y-110320000D01*
X177960000Y-113200000D02*
X177960000Y-119399000D01*
X178000000Y-104135000D02*
X178000000Y-110320000D01*
X178000000Y-113200000D02*
X178000000Y-119385000D01*
X178040000Y-104149000D02*
X178040000Y-110320000D01*
X178040000Y-113200000D02*
X178040000Y-119371000D01*
X178080000Y-104163000D02*
X178080000Y-110320000D01*
X178080000Y-113200000D02*
X178080000Y-119357000D01*
X178120000Y-104178000D02*
X178120000Y-110320000D01*
X178120000Y-113200000D02*
X178120000Y-119342000D01*
X178160000Y-104193000D02*
X178160000Y-110320000D01*
X178160000Y-113200000D02*
X178160000Y-119327000D01*
X178200000Y-104208000D02*
X178200000Y-110320000D01*
X178200000Y-113200000D02*
X178200000Y-119312000D01*
X178240000Y-104223000D02*
X178240000Y-110320000D01*
X178240000Y-113200000D02*
X178240000Y-119297000D01*
X178280000Y-104239000D02*
X178280000Y-110320000D01*
X178280000Y-113200000D02*
X178280000Y-119281000D01*
X178320000Y-104255000D02*
X178320000Y-110320000D01*
X178320000Y-113200000D02*
X178320000Y-119265000D01*
X178360000Y-104271000D02*
X178360000Y-110320000D01*
X178360000Y-113200000D02*
X178360000Y-119249000D01*
X178400000Y-104287000D02*
X178400000Y-110320000D01*
X178400000Y-113200000D02*
X178400000Y-119233000D01*
X178440000Y-104303000D02*
X178440000Y-110320000D01*
X178440000Y-113200000D02*
X178440000Y-119217000D01*
X178480000Y-104320000D02*
X178480000Y-110320000D01*
X178480000Y-113200000D02*
X178480000Y-119200000D01*
X178520000Y-104337000D02*
X178520000Y-110320000D01*
X178520000Y-113200000D02*
X178520000Y-119183000D01*
X178560000Y-104354000D02*
X178560000Y-110320000D01*
X178560000Y-113200000D02*
X178560000Y-119166000D01*
X178600000Y-104372000D02*
X178600000Y-110320000D01*
X178600000Y-113200000D02*
X178600000Y-119148000D01*
X178640000Y-104390000D02*
X178640000Y-110320000D01*
X178640000Y-113200000D02*
X178640000Y-119130000D01*
X178680000Y-104408000D02*
X178680000Y-110320000D01*
X178680000Y-113200000D02*
X178680000Y-119112000D01*
X178720000Y-104426000D02*
X178720000Y-110320000D01*
X178720000Y-113200000D02*
X178720000Y-119094000D01*
X178760000Y-104445000D02*
X178760000Y-110320000D01*
X178760000Y-113200000D02*
X178760000Y-119075000D01*
X178800000Y-104464000D02*
X178800000Y-110320000D01*
X178800000Y-113200000D02*
X178800000Y-119056000D01*
X178840000Y-104483000D02*
X178840000Y-110320000D01*
X178840000Y-113200000D02*
X178840000Y-119037000D01*
X178880000Y-104502000D02*
X178880000Y-110320000D01*
X178880000Y-113200000D02*
X178880000Y-119018000D01*
X178920000Y-104522000D02*
X178920000Y-110320000D01*
X178920000Y-113200000D02*
X178920000Y-118998000D01*
X178960000Y-104542000D02*
X178960000Y-110320000D01*
X178960000Y-113200000D02*
X178960000Y-118978000D01*
X179000000Y-104562000D02*
X179000000Y-110320000D01*
X179000000Y-113200000D02*
X179000000Y-118958000D01*
X179040000Y-104582000D02*
X179040000Y-110320000D01*
X179040000Y-113200000D02*
X179040000Y-118938000D01*
X179080000Y-104603000D02*
X179080000Y-110320000D01*
X179080000Y-113200000D02*
X179080000Y-118917000D01*
X179120000Y-104624000D02*
X179120000Y-110320000D01*
X179120000Y-113200000D02*
X179120000Y-118896000D01*
X179160000Y-104645000D02*
X179160000Y-110320000D01*
X179160000Y-113200000D02*
X179160000Y-118875000D01*
X179200000Y-104667000D02*
X179200000Y-110320000D01*
X179200000Y-113200000D02*
X179200000Y-118853000D01*
X179240000Y-104689000D02*
X179240000Y-110320000D01*
X179240000Y-113200000D02*
X179240000Y-118831000D01*
X179280000Y-104711000D02*
X179280000Y-110320000D01*
X179280000Y-113200000D02*
X179280000Y-118809000D01*
X179320000Y-104734000D02*
X179320000Y-110320000D01*
X179320000Y-113200000D02*
X179320000Y-118786000D01*
X179360000Y-104756000D02*
X179360000Y-110320000D01*
X179360000Y-113200000D02*
X179360000Y-118764000D01*
X179400000Y-104779000D02*
X179400000Y-110320000D01*
X179400000Y-113200000D02*
X179400000Y-118741000D01*
X179440000Y-104803000D02*
X179440000Y-110320000D01*
X179440000Y-113200000D02*
X179440000Y-118717000D01*
X179480000Y-104827000D02*
X179480000Y-110320000D01*
X179480000Y-113200000D02*
X179480000Y-118693000D01*
X179520000Y-104851000D02*
X179520000Y-110320000D01*
X179520000Y-113200000D02*
X179520000Y-118669000D01*
X179560000Y-104875000D02*
X179560000Y-110320000D01*
X179560000Y-113200000D02*
X179560000Y-118645000D01*
X179600000Y-104900000D02*
X179600000Y-110320000D01*
X179600000Y-113200000D02*
X179600000Y-118620000D01*
X179640000Y-104925000D02*
X179640000Y-110320000D01*
X179640000Y-113200000D02*
X179640000Y-118595000D01*
X179680000Y-104950000D02*
X179680000Y-110320000D01*
X179680000Y-113200000D02*
X179680000Y-118570000D01*
X179720000Y-104975000D02*
X179720000Y-110320000D01*
X179720000Y-113200000D02*
X179720000Y-118545000D01*
X179760000Y-105001000D02*
X179760000Y-110320000D01*
X179760000Y-113200000D02*
X179760000Y-118519000D01*
X179800000Y-105028000D02*
X179800000Y-110320000D01*
X179800000Y-113200000D02*
X179800000Y-118492000D01*
X179840000Y-105054000D02*
X179840000Y-110320000D01*
X179840000Y-113200000D02*
X179840000Y-118466000D01*
X179880000Y-105081000D02*
X179880000Y-110320000D01*
X179880000Y-113200000D02*
X179880000Y-118439000D01*
X179920000Y-105109000D02*
X179920000Y-110320000D01*
X179920000Y-113200000D02*
X179920000Y-118411000D01*
X179960000Y-105136000D02*
X179960000Y-110320000D01*
X179960000Y-113200000D02*
X179960000Y-118384000D01*
X180000000Y-105164000D02*
X180000000Y-110320000D01*
X180000000Y-113200000D02*
X180000000Y-118356000D01*
X180040000Y-105193000D02*
X180040000Y-110320000D01*
X180040000Y-113200000D02*
X180040000Y-118327000D01*
X180080000Y-105221000D02*
X180080000Y-110320000D01*
X180080000Y-113200000D02*
X180080000Y-118299000D01*
X180120000Y-105251000D02*
X180120000Y-110320000D01*
X180120000Y-113200000D02*
X180120000Y-118269000D01*
X180160000Y-105280000D02*
X180160000Y-110320000D01*
X180160000Y-113200000D02*
X180160000Y-118240000D01*
X180200000Y-105310000D02*
X180200000Y-110320000D01*
X180200000Y-113200000D02*
X180200000Y-118210000D01*
X180240000Y-105340000D02*
X180240000Y-110320000D01*
X180240000Y-113200000D02*
X180240000Y-118180000D01*
X180280000Y-105371000D02*
X180280000Y-110320000D01*
X180280000Y-113200000D02*
X180280000Y-118149000D01*
X180320000Y-105402000D02*
X180320000Y-110320000D01*
X180320000Y-113200000D02*
X180320000Y-118118000D01*
X180360000Y-105433000D02*
X180360000Y-110320000D01*
X180360000Y-113200000D02*
X180360000Y-118087000D01*
X180400000Y-105465000D02*
X180400000Y-110320000D01*
X180400000Y-113200000D02*
X180400000Y-118055000D01*
X180440000Y-105498000D02*
X180440000Y-110320000D01*
X180440000Y-113200000D02*
X180440000Y-118022000D01*
X180480000Y-105530000D02*
X180480000Y-110320000D01*
X180480000Y-113200000D02*
X180480000Y-117990000D01*
X180520000Y-105563000D02*
X180520000Y-117957000D01*
X180560000Y-105597000D02*
X180560000Y-117923000D01*
X180600000Y-105631000D02*
X180600000Y-117889000D01*
X180640000Y-105666000D02*
X180640000Y-117854000D01*
X180680000Y-105700000D02*
X180680000Y-117820000D01*
X180720000Y-105736000D02*
X180720000Y-117784000D01*
X180760000Y-105772000D02*
X180760000Y-117748000D01*
X180800000Y-105808000D02*
X180800000Y-117712000D01*
X180840000Y-105845000D02*
X180840000Y-117675000D01*
X180880000Y-105882000D02*
X180880000Y-117638000D01*
X180920000Y-105920000D02*
X180920000Y-117600000D01*
X180960000Y-105958000D02*
X180960000Y-117562000D01*
X181000000Y-105997000D02*
X181000000Y-117523000D01*
X181040000Y-106037000D02*
X181040000Y-117483000D01*
X181080000Y-106077000D02*
X181080000Y-117443000D01*
X181120000Y-106117000D02*
X181120000Y-117403000D01*
X181160000Y-106158000D02*
X181160000Y-117362000D01*
X181200000Y-106200000D02*
X181200000Y-117320000D01*
X181240000Y-106242000D02*
X181240000Y-117278000D01*
X181280000Y-106285000D02*
X181280000Y-117235000D01*
X181320000Y-106329000D02*
X181320000Y-117191000D01*
X181360000Y-106373000D02*
X181360000Y-117147000D01*
X181400000Y-106418000D02*
X181400000Y-117102000D01*
X181440000Y-106463000D02*
X181440000Y-117057000D01*
X181480000Y-106510000D02*
X181480000Y-117010000D01*
X181520000Y-106556000D02*
X181520000Y-116964000D01*
X181560000Y-106604000D02*
X181560000Y-116916000D01*
X181600000Y-106653000D02*
X181600000Y-116867000D01*
X181640000Y-106702000D02*
X181640000Y-116818000D01*
X181680000Y-106752000D02*
X181680000Y-116768000D01*
X181720000Y-106803000D02*
X181720000Y-116717000D01*
X181760000Y-106854000D02*
X181760000Y-116666000D01*
X181800000Y-106907000D02*
X181800000Y-116613000D01*
X181840000Y-106960000D02*
X181840000Y-116560000D01*
X181880000Y-107015000D02*
X181880000Y-116505000D01*
X181920000Y-107070000D02*
X181920000Y-116450000D01*
X181960000Y-107126000D02*
X181960000Y-116394000D01*
X182000000Y-107184000D02*
X182000000Y-116336000D01*
X182040000Y-107242000D02*
X182040000Y-116278000D01*
X182080000Y-107301000D02*
X182080000Y-116219000D01*
X182120000Y-107362000D02*
X182120000Y-116158000D01*
X182160000Y-107424000D02*
X182160000Y-116096000D01*
X182200000Y-107487000D02*
X182200000Y-116033000D01*
X182240000Y-107552000D02*
X182240000Y-115968000D01*
X182280000Y-107618000D02*
X182280000Y-115902000D01*
X182320000Y-107685000D02*
X182320000Y-115835000D01*
X182360000Y-107754000D02*
X182360000Y-115766000D01*
X182400000Y-107824000D02*
X182400000Y-115696000D01*
X182440000Y-107896000D02*
X182440000Y-115624000D01*
X182480000Y-107970000D02*
X182480000Y-115550000D01*
X182520000Y-108046000D02*
X182520000Y-115474000D01*
X182560000Y-108123000D02*
X182560000Y-115397000D01*
X182600000Y-108203000D02*
X182600000Y-115317000D01*
X182640000Y-108285000D02*
X182640000Y-115235000D01*
X182680000Y-108370000D02*
X182680000Y-115150000D01*
X182720000Y-108457000D02*
X182720000Y-115063000D01*
X182760000Y-108547000D02*
X182760000Y-114973000D01*
X182800000Y-108640000D02*
X182800000Y-114880000D01*
X182840000Y-108737000D02*
X182840000Y-114783000D01*
X182880000Y-108837000D02*
X182880000Y-114683000D01*
X182920000Y-108941000D02*
X182920000Y-114579000D01*
X182960000Y-109050000D02*
X182960000Y-114470000D01*
X183000000Y-109163000D02*
X183000000Y-114357000D01*
X183040000Y-109283000D02*
X183040000Y-114237000D01*
X183080000Y-109409000D02*
X183080000Y-114111000D01*
X183120000Y-109543000D02*
X183120000Y-113977000D01*
X183160000Y-109686000D02*
X183160000Y-113834000D01*
X183200000Y-109840000D02*
X183200000Y-113680000D01*
X183240000Y-110009000D02*
X183240000Y-113511000D01*
X183280000Y-110196000D02*
X183280000Y-113324000D01*
X183320000Y-110409000D02*
X183320000Y-113111000D01*
X183360000Y-110663000D02*
X183360000Y-112857000D01*
X183400000Y-110995000D02*
X183400000Y-112525000D01*
X183440000Y-111760000D02*
G75*
G02*
X167200000Y-111760000I-8120000J0D01*
G01*
X167200000Y-111760000D02*
G75*
G02*
X183440000Y-111760000I8120000J0D01*
G01*
%TO.C,J9_L_{2}_TIBIA1*%
X152410000Y-51640000D02*
X158410000Y-51640000D01*
X152410000Y-52500000D02*
X152410000Y-51640000D01*
X152410000Y-54180000D02*
X158410000Y-54180000D01*
X152410000Y-55040000D02*
X152410000Y-54180000D01*
X158410000Y-50690000D02*
X158410000Y-58530000D01*
X158410000Y-52500000D02*
X152410000Y-52500000D01*
X158410000Y-55040000D02*
X152410000Y-55040000D01*
X158410000Y-58530000D02*
X161170000Y-58530000D01*
X161170000Y-50690000D02*
X158410000Y-50690000D01*
X161170000Y-53340000D02*
X158410000Y-53340000D01*
X161170000Y-55880000D02*
X158410000Y-55880000D01*
X161170000Y-58530000D02*
X161170000Y-50690000D01*
X161400000Y-56720000D02*
X161170000Y-56720000D01*
X161400000Y-57580000D02*
X161170000Y-57580000D01*
X161482642Y-51640000D02*
X161170000Y-51640000D01*
X161482642Y-52500000D02*
X161170000Y-52500000D01*
X161482642Y-54180000D02*
X161170000Y-54180000D01*
X161482642Y-55040000D02*
X161170000Y-55040000D01*
X163830000Y-57150000D02*
X163830000Y-58420000D01*
X163830000Y-58420000D02*
X162560000Y-58420000D01*
X158410000Y-57580000D02*
X152410000Y-57580000D01*
X152410000Y-56720000D01*
X158410000Y-56720000D01*
X158410000Y-57580000D01*
G36*
X158410000Y-57580000D02*
G01*
X152410000Y-57580000D01*
X152410000Y-56720000D01*
X158410000Y-56720000D01*
X158410000Y-57580000D01*
G37*
%TO.C,J7_L_{2}_COXA1*%
X152410000Y-66880000D02*
X158410000Y-66880000D01*
X152410000Y-67740000D02*
X152410000Y-66880000D01*
X152410000Y-69420000D02*
X158410000Y-69420000D01*
X152410000Y-70280000D02*
X152410000Y-69420000D01*
X158410000Y-65930000D02*
X158410000Y-73770000D01*
X158410000Y-67740000D02*
X152410000Y-67740000D01*
X158410000Y-70280000D02*
X152410000Y-70280000D01*
X158410000Y-73770000D02*
X161170000Y-73770000D01*
X161170000Y-65930000D02*
X158410000Y-65930000D01*
X161170000Y-68580000D02*
X158410000Y-68580000D01*
X161170000Y-71120000D02*
X158410000Y-71120000D01*
X161170000Y-73770000D02*
X161170000Y-65930000D01*
X161400000Y-71960000D02*
X161170000Y-71960000D01*
X161400000Y-72820000D02*
X161170000Y-72820000D01*
X161482642Y-66880000D02*
X161170000Y-66880000D01*
X161482642Y-67740000D02*
X161170000Y-67740000D01*
X161482642Y-69420000D02*
X161170000Y-69420000D01*
X161482642Y-70280000D02*
X161170000Y-70280000D01*
X163830000Y-72390000D02*
X163830000Y-73660000D01*
X163830000Y-73660000D02*
X162560000Y-73660000D01*
X158410000Y-72820000D02*
X152410000Y-72820000D01*
X152410000Y-71960000D01*
X158410000Y-71960000D01*
X158410000Y-72820000D01*
G36*
X158410000Y-72820000D02*
G01*
X152410000Y-72820000D01*
X152410000Y-71960000D01*
X158410000Y-71960000D01*
X158410000Y-72820000D01*
G37*
%TO.C,J19_L_{6}_FEMUR1*%
X212090000Y-58420000D02*
X213360000Y-58420000D01*
X212090000Y-59690000D02*
X212090000Y-58420000D01*
X214437358Y-61800000D02*
X214750000Y-61800000D01*
X214437358Y-62660000D02*
X214750000Y-62660000D01*
X214437358Y-64340000D02*
X214750000Y-64340000D01*
X214437358Y-65200000D02*
X214750000Y-65200000D01*
X214520000Y-59260000D02*
X214750000Y-59260000D01*
X214520000Y-60120000D02*
X214750000Y-60120000D01*
X214750000Y-58310000D02*
X214750000Y-66150000D01*
X214750000Y-60960000D02*
X217510000Y-60960000D01*
X214750000Y-63500000D02*
X217510000Y-63500000D01*
X214750000Y-66150000D02*
X217510000Y-66150000D01*
X217510000Y-58310000D02*
X214750000Y-58310000D01*
X217510000Y-61800000D02*
X223510000Y-61800000D01*
X217510000Y-64340000D02*
X223510000Y-64340000D01*
X217510000Y-66150000D02*
X217510000Y-58310000D01*
X223510000Y-61800000D02*
X223510000Y-62660000D01*
X223510000Y-62660000D02*
X217510000Y-62660000D01*
X223510000Y-64340000D02*
X223510000Y-65200000D01*
X223510000Y-65200000D02*
X217510000Y-65200000D01*
X217510000Y-59260000D02*
X223510000Y-59260000D01*
X223510000Y-60120000D01*
X217510000Y-60120000D01*
X217510000Y-59260000D01*
G36*
X217510000Y-59260000D02*
G01*
X223510000Y-59260000D01*
X223510000Y-60120000D01*
X217510000Y-60120000D01*
X217510000Y-59260000D01*
G37*
%TO.C,J5_L_{1}_FEMUR1*%
X124470000Y-59260000D02*
X130470000Y-59260000D01*
X124470000Y-60120000D02*
X124470000Y-59260000D01*
X124470000Y-61800000D02*
X130470000Y-61800000D01*
X124470000Y-62660000D02*
X124470000Y-61800000D01*
X130470000Y-58310000D02*
X130470000Y-66150000D01*
X130470000Y-60120000D02*
X124470000Y-60120000D01*
X130470000Y-62660000D02*
X124470000Y-62660000D01*
X130470000Y-66150000D02*
X133230000Y-66150000D01*
X133230000Y-58310000D02*
X130470000Y-58310000D01*
X133230000Y-60960000D02*
X130470000Y-60960000D01*
X133230000Y-63500000D02*
X130470000Y-63500000D01*
X133230000Y-66150000D02*
X133230000Y-58310000D01*
X133460000Y-64340000D02*
X133230000Y-64340000D01*
X133460000Y-65200000D02*
X133230000Y-65200000D01*
X133542642Y-59260000D02*
X133230000Y-59260000D01*
X133542642Y-60120000D02*
X133230000Y-60120000D01*
X133542642Y-61800000D02*
X133230000Y-61800000D01*
X133542642Y-62660000D02*
X133230000Y-62660000D01*
X135890000Y-64770000D02*
X135890000Y-66040000D01*
X135890000Y-66040000D02*
X134620000Y-66040000D01*
X130470000Y-65200000D02*
X124470000Y-65200000D01*
X124470000Y-64340000D01*
X130470000Y-64340000D01*
X130470000Y-65200000D01*
G36*
X130470000Y-65200000D02*
G01*
X124470000Y-65200000D01*
X124470000Y-64340000D01*
X130470000Y-64340000D01*
X130470000Y-65200000D01*
G37*
%TO.C,C3*%
X175832755Y-85855000D02*
X175832755Y-84325000D01*
X175872755Y-86187000D02*
X175872755Y-83993000D01*
X175912755Y-86441000D02*
X175912755Y-83739000D01*
X175952755Y-86654000D02*
X175952755Y-83526000D01*
X175992755Y-86841000D02*
X175992755Y-83339000D01*
X176032755Y-87010000D02*
X176032755Y-83170000D01*
X176072755Y-87164000D02*
X176072755Y-83016000D01*
X176112755Y-87307000D02*
X176112755Y-82873000D01*
X176152755Y-87441000D02*
X176152755Y-82739000D01*
X176192755Y-87567000D02*
X176192755Y-82613000D01*
X176232755Y-87687000D02*
X176232755Y-82493000D01*
X176272755Y-87800000D02*
X176272755Y-82380000D01*
X176312755Y-87909000D02*
X176312755Y-82271000D01*
X176352755Y-88013000D02*
X176352755Y-82167000D01*
X176392755Y-88113000D02*
X176392755Y-82067000D01*
X176432755Y-88210000D02*
X176432755Y-81970000D01*
X176472755Y-88303000D02*
X176472755Y-81877000D01*
X176512755Y-88393000D02*
X176512755Y-81787000D01*
X176552755Y-88480000D02*
X176552755Y-81700000D01*
X176592755Y-88565000D02*
X176592755Y-81615000D01*
X176632755Y-88647000D02*
X176632755Y-81533000D01*
X176672755Y-88727000D02*
X176672755Y-81453000D01*
X176712755Y-88804000D02*
X176712755Y-81376000D01*
X176752755Y-88880000D02*
X176752755Y-81300000D01*
X176792755Y-88954000D02*
X176792755Y-81226000D01*
X176832755Y-89026000D02*
X176832755Y-81154000D01*
X176872755Y-89096000D02*
X176872755Y-81084000D01*
X176912755Y-89165000D02*
X176912755Y-81015000D01*
X176952755Y-89232000D02*
X176952755Y-80948000D01*
X176992755Y-89298000D02*
X176992755Y-80882000D01*
X177032755Y-89363000D02*
X177032755Y-80817000D01*
X177072755Y-89426000D02*
X177072755Y-80754000D01*
X177112755Y-89488000D02*
X177112755Y-80692000D01*
X177152755Y-89549000D02*
X177152755Y-80631000D01*
X177192755Y-89608000D02*
X177192755Y-80572000D01*
X177232755Y-89666000D02*
X177232755Y-80514000D01*
X177272755Y-89724000D02*
X177272755Y-80456000D01*
X177312755Y-89780000D02*
X177312755Y-80400000D01*
X177352755Y-89835000D02*
X177352755Y-80345000D01*
X177392755Y-89890000D02*
X177392755Y-80290000D01*
X177432755Y-89943000D02*
X177432755Y-80237000D01*
X177472755Y-89996000D02*
X177472755Y-80184000D01*
X177512755Y-90047000D02*
X177512755Y-80133000D01*
X177552755Y-90098000D02*
X177552755Y-80082000D01*
X177592755Y-90148000D02*
X177592755Y-80032000D01*
X177632755Y-90197000D02*
X177632755Y-79983000D01*
X177672755Y-90246000D02*
X177672755Y-79934000D01*
X177712755Y-90294000D02*
X177712755Y-79886000D01*
X177752755Y-90340000D02*
X177752755Y-79840000D01*
X177792755Y-90387000D02*
X177792755Y-79793000D01*
X177832755Y-90432000D02*
X177832755Y-79748000D01*
X177872755Y-90477000D02*
X177872755Y-79703000D01*
X177912755Y-90521000D02*
X177912755Y-79659000D01*
X177952755Y-90565000D02*
X177952755Y-79615000D01*
X177992755Y-90608000D02*
X177992755Y-79572000D01*
X178032755Y-90650000D02*
X178032755Y-79530000D01*
X178072755Y-90692000D02*
X178072755Y-79488000D01*
X178112755Y-90733000D02*
X178112755Y-79447000D01*
X178152755Y-90773000D02*
X178152755Y-79407000D01*
X178192755Y-90813000D02*
X178192755Y-79367000D01*
X178232755Y-90853000D02*
X178232755Y-79327000D01*
X178272755Y-90892000D02*
X178272755Y-79288000D01*
X178312755Y-90930000D02*
X178312755Y-79250000D01*
X178352755Y-90968000D02*
X178352755Y-79212000D01*
X178392755Y-91005000D02*
X178392755Y-79175000D01*
X178432755Y-91042000D02*
X178432755Y-79138000D01*
X178472755Y-91078000D02*
X178472755Y-79102000D01*
X178512755Y-91114000D02*
X178512755Y-79066000D01*
X178552755Y-91150000D02*
X178552755Y-79030000D01*
X178592755Y-91184000D02*
X178592755Y-78996000D01*
X178632755Y-91219000D02*
X178632755Y-78961000D01*
X178672755Y-91253000D02*
X178672755Y-78927000D01*
X178712755Y-91287000D02*
X178712755Y-78893000D01*
X178752755Y-83650000D02*
X178752755Y-78860000D01*
X178752755Y-91320000D02*
X178752755Y-86530000D01*
X178792755Y-83650000D02*
X178792755Y-78828000D01*
X178792755Y-91352000D02*
X178792755Y-86530000D01*
X178832755Y-83650000D02*
X178832755Y-78795000D01*
X178832755Y-91385000D02*
X178832755Y-86530000D01*
X178872755Y-83650000D02*
X178872755Y-78763000D01*
X178872755Y-91417000D02*
X178872755Y-86530000D01*
X178912755Y-83650000D02*
X178912755Y-78732000D01*
X178912755Y-91448000D02*
X178912755Y-86530000D01*
X178952755Y-83650000D02*
X178952755Y-78701000D01*
X178952755Y-91479000D02*
X178952755Y-86530000D01*
X178992755Y-83650000D02*
X178992755Y-78670000D01*
X178992755Y-91510000D02*
X178992755Y-86530000D01*
X179032755Y-83650000D02*
X179032755Y-78640000D01*
X179032755Y-91540000D02*
X179032755Y-86530000D01*
X179072755Y-83650000D02*
X179072755Y-78610000D01*
X179072755Y-91570000D02*
X179072755Y-86530000D01*
X179112755Y-83650000D02*
X179112755Y-78581000D01*
X179112755Y-91599000D02*
X179112755Y-86530000D01*
X179152755Y-83650000D02*
X179152755Y-78551000D01*
X179152755Y-91629000D02*
X179152755Y-86530000D01*
X179192755Y-83650000D02*
X179192755Y-78523000D01*
X179192755Y-91657000D02*
X179192755Y-86530000D01*
X179232755Y-83650000D02*
X179232755Y-78494000D01*
X179232755Y-91686000D02*
X179232755Y-86530000D01*
X179272755Y-83650000D02*
X179272755Y-78466000D01*
X179272755Y-91714000D02*
X179272755Y-86530000D01*
X179312755Y-83650000D02*
X179312755Y-78439000D01*
X179312755Y-91741000D02*
X179312755Y-86530000D01*
X179352755Y-83650000D02*
X179352755Y-78411000D01*
X179352755Y-91769000D02*
X179352755Y-86530000D01*
X179392755Y-83650000D02*
X179392755Y-78384000D01*
X179392755Y-91796000D02*
X179392755Y-86530000D01*
X179432755Y-83650000D02*
X179432755Y-78358000D01*
X179432755Y-91822000D02*
X179432755Y-86530000D01*
X179472755Y-83650000D02*
X179472755Y-78331000D01*
X179472755Y-91849000D02*
X179472755Y-86530000D01*
X179512755Y-83650000D02*
X179512755Y-78305000D01*
X179512755Y-91875000D02*
X179512755Y-86530000D01*
X179552755Y-83650000D02*
X179552755Y-78280000D01*
X179552755Y-91900000D02*
X179552755Y-86530000D01*
X179592755Y-83650000D02*
X179592755Y-78255000D01*
X179592755Y-91925000D02*
X179592755Y-86530000D01*
X179632755Y-83650000D02*
X179632755Y-78230000D01*
X179632755Y-91950000D02*
X179632755Y-86530000D01*
X179672755Y-83650000D02*
X179672755Y-78205000D01*
X179672755Y-91975000D02*
X179672755Y-86530000D01*
X179712755Y-83650000D02*
X179712755Y-78181000D01*
X179712755Y-91999000D02*
X179712755Y-86530000D01*
X179752755Y-83650000D02*
X179752755Y-78157000D01*
X179752755Y-92023000D02*
X179752755Y-86530000D01*
X179792755Y-83650000D02*
X179792755Y-78133000D01*
X179792755Y-92047000D02*
X179792755Y-86530000D01*
X179832755Y-83650000D02*
X179832755Y-78109000D01*
X179832755Y-92071000D02*
X179832755Y-86530000D01*
X179872755Y-83650000D02*
X179872755Y-78086000D01*
X179872755Y-92094000D02*
X179872755Y-86530000D01*
X179912755Y-83650000D02*
X179912755Y-78064000D01*
X179912755Y-92116000D02*
X179912755Y-86530000D01*
X179952755Y-83650000D02*
X179952755Y-78041000D01*
X179952755Y-92139000D02*
X179952755Y-86530000D01*
X179992755Y-83650000D02*
X179992755Y-78019000D01*
X179992755Y-92161000D02*
X179992755Y-86530000D01*
X180032755Y-83650000D02*
X180032755Y-77997000D01*
X180032755Y-92183000D02*
X180032755Y-86530000D01*
X180072755Y-83650000D02*
X180072755Y-77975000D01*
X180072755Y-92205000D02*
X180072755Y-86530000D01*
X180112755Y-83650000D02*
X180112755Y-77954000D01*
X180112755Y-92226000D02*
X180112755Y-86530000D01*
X180152755Y-83650000D02*
X180152755Y-77933000D01*
X180152755Y-92247000D02*
X180152755Y-86530000D01*
X180192755Y-83650000D02*
X180192755Y-77912000D01*
X180192755Y-92268000D02*
X180192755Y-86530000D01*
X180232755Y-83650000D02*
X180232755Y-77892000D01*
X180232755Y-92288000D02*
X180232755Y-86530000D01*
X180272755Y-83650000D02*
X180272755Y-77872000D01*
X180272755Y-92308000D02*
X180272755Y-86530000D01*
X180312755Y-83650000D02*
X180312755Y-77852000D01*
X180312755Y-92328000D02*
X180312755Y-86530000D01*
X180352755Y-83650000D02*
X180352755Y-77832000D01*
X180352755Y-92348000D02*
X180352755Y-86530000D01*
X180392755Y-83650000D02*
X180392755Y-77813000D01*
X180392755Y-92367000D02*
X180392755Y-86530000D01*
X180432755Y-83650000D02*
X180432755Y-77794000D01*
X180432755Y-92386000D02*
X180432755Y-86530000D01*
X180472755Y-83650000D02*
X180472755Y-77775000D01*
X180472755Y-92405000D02*
X180472755Y-86530000D01*
X180512755Y-83650000D02*
X180512755Y-77756000D01*
X180512755Y-92424000D02*
X180512755Y-86530000D01*
X180552755Y-83650000D02*
X180552755Y-77738000D01*
X180552755Y-92442000D02*
X180552755Y-86530000D01*
X180592755Y-83650000D02*
X180592755Y-77720000D01*
X180592755Y-92460000D02*
X180592755Y-86530000D01*
X180632755Y-83650000D02*
X180632755Y-77702000D01*
X180632755Y-92478000D02*
X180632755Y-86530000D01*
X180672755Y-83650000D02*
X180672755Y-77684000D01*
X180672755Y-92496000D02*
X180672755Y-86530000D01*
X180712755Y-83650000D02*
X180712755Y-77667000D01*
X180712755Y-92513000D02*
X180712755Y-86530000D01*
X180752755Y-83650000D02*
X180752755Y-77650000D01*
X180752755Y-92530000D02*
X180752755Y-86530000D01*
X180792755Y-83650000D02*
X180792755Y-77633000D01*
X180792755Y-92547000D02*
X180792755Y-86530000D01*
X180832755Y-83650000D02*
X180832755Y-77617000D01*
X180832755Y-92563000D02*
X180832755Y-86530000D01*
X180872755Y-83650000D02*
X180872755Y-77601000D01*
X180872755Y-92579000D02*
X180872755Y-86530000D01*
X180912755Y-83650000D02*
X180912755Y-77585000D01*
X180912755Y-92595000D02*
X180912755Y-86530000D01*
X180952755Y-83650000D02*
X180952755Y-77569000D01*
X180952755Y-92611000D02*
X180952755Y-86530000D01*
X180992755Y-83650000D02*
X180992755Y-77553000D01*
X180992755Y-92627000D02*
X180992755Y-86530000D01*
X181032755Y-83650000D02*
X181032755Y-77538000D01*
X181032755Y-92642000D02*
X181032755Y-86530000D01*
X181072755Y-83650000D02*
X181072755Y-77523000D01*
X181072755Y-92657000D02*
X181072755Y-86530000D01*
X181112755Y-83650000D02*
X181112755Y-77508000D01*
X181112755Y-92672000D02*
X181112755Y-86530000D01*
X181152755Y-83650000D02*
X181152755Y-77493000D01*
X181152755Y-92687000D02*
X181152755Y-86530000D01*
X181192755Y-83650000D02*
X181192755Y-77479000D01*
X181192755Y-92701000D02*
X181192755Y-86530000D01*
X181232755Y-83650000D02*
X181232755Y-77465000D01*
X181232755Y-92715000D02*
X181232755Y-86530000D01*
X181272755Y-83650000D02*
X181272755Y-77451000D01*
X181272755Y-92729000D02*
X181272755Y-86530000D01*
X181312755Y-83650000D02*
X181312755Y-77438000D01*
X181312755Y-92742000D02*
X181312755Y-86530000D01*
X181352755Y-83650000D02*
X181352755Y-77424000D01*
X181352755Y-92756000D02*
X181352755Y-86530000D01*
X181392755Y-83650000D02*
X181392755Y-77411000D01*
X181392755Y-92769000D02*
X181392755Y-86530000D01*
X181432755Y-83650000D02*
X181432755Y-77398000D01*
X181432755Y-92782000D02*
X181432755Y-86530000D01*
X181472755Y-83650000D02*
X181472755Y-77385000D01*
X181472755Y-92795000D02*
X181472755Y-86530000D01*
X181512755Y-83650000D02*
X181512755Y-77373000D01*
X181512755Y-92807000D02*
X181512755Y-86530000D01*
X181552755Y-83650000D02*
X181552755Y-77361000D01*
X181552755Y-92819000D02*
X181552755Y-86530000D01*
X181592755Y-83650000D02*
X181592755Y-77348000D01*
X181592755Y-92832000D02*
X181592755Y-86530000D01*
X181632755Y-92843000D02*
X181632755Y-77337000D01*
X181672755Y-92855000D02*
X181672755Y-77325000D01*
X181712755Y-92866000D02*
X181712755Y-77314000D01*
X181752755Y-92877000D02*
X181752755Y-77303000D01*
X181792755Y-92888000D02*
X181792755Y-77292000D01*
X181832755Y-92899000D02*
X181832755Y-77281000D01*
X181872755Y-92910000D02*
X181872755Y-77270000D01*
X181912755Y-92920000D02*
X181912755Y-77260000D01*
X181952755Y-92930000D02*
X181952755Y-77250000D01*
X181992755Y-92940000D02*
X181992755Y-77240000D01*
X182032755Y-92949000D02*
X182032755Y-77231000D01*
X182072755Y-92959000D02*
X182072755Y-77221000D01*
X182112755Y-92968000D02*
X182112755Y-77212000D01*
X182152755Y-92977000D02*
X182152755Y-77203000D01*
X182192755Y-92986000D02*
X182192755Y-77194000D01*
X182232755Y-92994000D02*
X182232755Y-77186000D01*
X182272755Y-93003000D02*
X182272755Y-77177000D01*
X182312755Y-93011000D02*
X182312755Y-77169000D01*
X182352755Y-93019000D02*
X182352755Y-77161000D01*
X182392755Y-93026000D02*
X182392755Y-77154000D01*
X182432755Y-93034000D02*
X182432755Y-77146000D01*
X182472755Y-93041000D02*
X182472755Y-77139000D01*
X182512755Y-93048000D02*
X182512755Y-77132000D01*
X182552755Y-93055000D02*
X182552755Y-77125000D01*
X182592755Y-93062000D02*
X182592755Y-77118000D01*
X182632755Y-93068000D02*
X182632755Y-77112000D01*
X182672755Y-93075000D02*
X182672755Y-77105000D01*
X182712755Y-93081000D02*
X182712755Y-77099000D01*
X182752755Y-93087000D02*
X182752755Y-77093000D01*
X182792755Y-93092000D02*
X182792755Y-77088000D01*
X182832755Y-93098000D02*
X182832755Y-77082000D01*
X182872755Y-93103000D02*
X182872755Y-77077000D01*
X182912755Y-93108000D02*
X182912755Y-77072000D01*
X182952755Y-93113000D02*
X182952755Y-77067000D01*
X182992755Y-93118000D02*
X182992755Y-77062000D01*
X183032755Y-93122000D02*
X183032755Y-77058000D01*
X183072755Y-93126000D02*
X183072755Y-77054000D01*
X183112755Y-93130000D02*
X183112755Y-77050000D01*
X183152755Y-93134000D02*
X183152755Y-77046000D01*
X183192755Y-93138000D02*
X183192755Y-77042000D01*
X183232755Y-93141000D02*
X183232755Y-77039000D01*
X183272755Y-93145000D02*
X183272755Y-77035000D01*
X183312755Y-93148000D02*
X183312755Y-77032000D01*
X183352755Y-93151000D02*
X183352755Y-77029000D01*
X183392755Y-93153000D02*
X183392755Y-77027000D01*
X183432755Y-93156000D02*
X183432755Y-77024000D01*
X183472755Y-93158000D02*
X183472755Y-77022000D01*
X183512755Y-93160000D02*
X183512755Y-77020000D01*
X183552755Y-93162000D02*
X183552755Y-77018000D01*
X183592755Y-93164000D02*
X183592755Y-77016000D01*
X183632755Y-93165000D02*
X183632755Y-77015000D01*
X183672755Y-93166000D02*
X183672755Y-77014000D01*
X183712755Y-93168000D02*
X183712755Y-77012000D01*
X183752755Y-93168000D02*
X183752755Y-77012000D01*
X183792755Y-93169000D02*
X183792755Y-77011000D01*
X183832755Y-93170000D02*
X183832755Y-77010000D01*
X183872755Y-93170000D02*
X183872755Y-77010000D01*
X183912755Y-93170000D02*
X183912755Y-77010000D01*
X191802246Y-90445000D02*
X191802246Y-88845000D01*
X192602246Y-89645000D02*
X191002246Y-89645000D01*
X192032755Y-85090000D02*
G75*
G02*
X175792755Y-85090000I-8120000J0D01*
G01*
X175792755Y-85090000D02*
G75*
G02*
X192032755Y-85090000I8120000J0D01*
G01*
%TO.C,J21_L_{6}_TIBIA1*%
X212090000Y-50800000D02*
X213360000Y-50800000D01*
X212090000Y-52070000D02*
X212090000Y-50800000D01*
X214437358Y-54180000D02*
X214750000Y-54180000D01*
X214437358Y-55040000D02*
X214750000Y-55040000D01*
X214437358Y-56720000D02*
X214750000Y-56720000D01*
X214437358Y-57580000D02*
X214750000Y-57580000D01*
X214520000Y-51640000D02*
X214750000Y-51640000D01*
X214520000Y-52500000D02*
X214750000Y-52500000D01*
X214750000Y-50690000D02*
X214750000Y-58530000D01*
X214750000Y-53340000D02*
X217510000Y-53340000D01*
X214750000Y-55880000D02*
X217510000Y-55880000D01*
X214750000Y-58530000D02*
X217510000Y-58530000D01*
X217510000Y-50690000D02*
X214750000Y-50690000D01*
X217510000Y-54180000D02*
X223510000Y-54180000D01*
X217510000Y-56720000D02*
X223510000Y-56720000D01*
X217510000Y-58530000D02*
X217510000Y-50690000D01*
X223510000Y-54180000D02*
X223510000Y-55040000D01*
X223510000Y-55040000D02*
X217510000Y-55040000D01*
X223510000Y-56720000D02*
X223510000Y-57580000D01*
X223510000Y-57580000D02*
X217510000Y-57580000D01*
X217510000Y-51640000D02*
X223510000Y-51640000D01*
X223510000Y-52500000D01*
X217510000Y-52500000D01*
X217510000Y-51640000D01*
G36*
X217510000Y-51640000D02*
G01*
X223510000Y-51640000D01*
X223510000Y-52500000D01*
X217510000Y-52500000D01*
X217510000Y-51640000D01*
G37*
%TD*%
M02*
